<svg id="my-svg" width="100%" xmlns="http://www.w3.org/2000/svg" xmlns:xlink="http://www.w3.org/1999/xlink" class="flowchart" style="max-width: 2426.25px; background-color: transparent;" viewBox="0 -50 2426.247314453125 1155.46875" role="graphics-document document" aria-roledescription="flowchart-v2"><style>#my-svg{font-family:"trebuchet ms",verdana,arial,sans-serif;font-size:16px;fill:#ccc;}@keyframes edge-animation-frame{from{stroke-dashoffset:0;}}@keyframes dash{to{stroke-dashoffset:0;}}#my-svg .edge-animation-slow{stroke-dasharray:9,5!important;stroke-dashoffset:900;animation:dash 50s linear infinite;stroke-linecap:round;}#my-svg .edge-animation-fast{stroke-dasharray:9,5!important;stroke-dashoffset:900;animation:dash 20s linear infinite;stroke-linecap:round;}#my-svg .error-icon{fill:#a44141;}#my-svg .error-text{fill:#ddd;stroke:#ddd;}#my-svg .edge-thickness-normal{stroke-width:1px;}#my-svg .edge-thickness-thick{stroke-width:3.5px;}#my-svg .edge-pattern-solid{stroke-dasharray:0;}#my-svg .edge-thickness-invisible{stroke-width:0;fill:none;}#my-svg .edge-pattern-dashed{stroke-dasharray:3;}#my-svg .edge-pattern-dotted{stroke-dasharray:2;}#my-svg .marker{fill:lightgrey;stroke:lightgrey;}#my-svg .marker.cross{stroke:lightgrey;}#my-svg svg{font-family:"trebuchet ms",verdana,arial,sans-serif;font-size:16px;}#my-svg p{margin:0;}#my-svg .label{font-family:"trebuchet ms",verdana,arial,sans-serif;color:#ccc;}#my-svg .cluster-label text{fill:#F9FFFE;}#my-svg .cluster-label span{color:#F9FFFE;}#my-svg .cluster-label span p{background-color:transparent;}#my-svg .label text,#my-svg span{fill:#ccc;color:#ccc;}#my-svg .node rect,#my-svg .node circle,#my-svg .node ellipse,#my-svg .node polygon,#my-svg .node path{fill:#1f2020;stroke:#ccc;stroke-width:1px;}#my-svg .rough-node .label text,#my-svg .node .label text,#my-svg .image-shape .label,#my-svg .icon-shape .label{text-anchor:middle;}#my-svg .node .katex path{fill:#000;stroke:#000;stroke-width:1px;}#my-svg .rough-node .label,#my-svg .node .label,#my-svg .image-shape .label,#my-svg .icon-shape .label{text-align:center;}#my-svg .node.clickable{cursor:pointer;}#my-svg .root .anchor path{fill:lightgrey!important;stroke-width:0;stroke:lightgrey;}#my-svg .arrowheadPath{fill:lightgrey;}#my-svg .edgePath .path{stroke:lightgrey;stroke-width:1px;}#my-svg .flowchart-link{stroke:lightgrey;fill:none;}#my-svg .edgeLabel{background-color:hsl(0, 0%, 34.4117647059%);text-align:center;}#my-svg .edgeLabel p{background-color:hsl(0, 0%, 34.4117647059%);}#my-svg .edgeLabel rect{opacity:0.5;background-color:hsl(0, 0%, 34.4117647059%);fill:hsl(0, 0%, 34.4117647059%);}#my-svg .labelBkg{background-color:rgba(87.75, 87.75, 87.75, 0.5);}#my-svg .cluster rect{fill:hsl(180, 1.5873015873%, 28.3529411765%);stroke:rgba(255, 255, 255, 0.25);stroke-width:1px;}#my-svg .cluster text{fill:#F9FFFE;}#my-svg .cluster span{color:#F9FFFE;}#my-svg div.mermaidTooltip{position:absolute;text-align:center;max-width:200px;padding:2px;font-family:"trebuchet ms",verdana,arial,sans-serif;font-size:12px;background:hsl(20, 1.5873015873%, 12.3529411765%);border:1px solid rgba(255, 255, 255, 0.25);border-radius:2px;pointer-events:none;z-index:100;}#my-svg .flowchartTitleText{text-anchor:middle;font-size:18px;fill:#ccc;}#my-svg rect.text{fill:none;stroke-width:0;}#my-svg .icon-shape,#my-svg .image-shape{background-color:hsl(0, 0%, 34.4117647059%);text-align:center;}#my-svg .icon-shape p,#my-svg .image-shape p{background-color:hsl(0, 0%, 34.4117647059%);padding:2px;}#my-svg .icon-shape .label rect,#my-svg .image-shape .label rect{opacity:0.5;background-color:hsl(0, 0%, 34.4117647059%);fill:hsl(0, 0%, 34.4117647059%);}#my-svg .label-icon{display:inline-block;height:1em;overflow:visible;vertical-align:-0.125em;}#my-svg .node .label-icon path{fill:currentColor;stroke:revert;stroke-width:revert;}#my-svg .node .neo-node{stroke:#ccc;}#my-svg [data-look="neo"].node rect,#my-svg [data-look="neo"].cluster rect,#my-svg [data-look="neo"].node polygon{stroke:url(#my-svg-gradient);filter:drop-shadow( 1px 2px 2px rgba(185,185,185,1));}#my-svg [data-look="neo"].node path{stroke:url(#my-svg-gradient);stroke-width:1px;}#my-svg [data-look="neo"].node .outer-path{filter:drop-shadow( 1px 2px 2px rgba(185,185,185,1));}#my-svg [data-look="neo"].node .neo-line path{stroke:#ccc;filter:none;}#my-svg [data-look="neo"].node circle{stroke:url(#my-svg-gradient);filter:drop-shadow( 1px 2px 2px rgba(185,185,185,1));}#my-svg [data-look="neo"].node circle .state-start{fill:#000000;}#my-svg [data-look="neo"].icon-shape .icon{fill:url(#my-svg-gradient);filter:drop-shadow( 1px 2px 2px rgba(185,185,185,1));}#my-svg [data-look="neo"].icon-shape .icon-neo path{stroke:url(#my-svg-gradient);filter:drop-shadow( 1px 2px 2px rgba(185,185,185,1));}#my-svg :root{--mermaid-font-family:"trebuchet ms",verdana,arial,sans-serif;}#my-svg .titleBlock&gt;*{fill:#0d1117!important;stroke:#1e3a5f!important;stroke-width:1px!important;color:#e6edf3!important;}#my-svg .titleBlock span{fill:#0d1117!important;stroke:#1e3a5f!important;stroke-width:1px!important;color:#e6edf3!important;}#my-svg .titleBlock tspan{fill:#e6edf3!important;}#my-svg .session&gt;*{fill:#161b22!important;stroke:#30363d!important;stroke-width:1px!important;color:#e6edf3!important;}#my-svg .session span{fill:#161b22!important;stroke:#30363d!important;stroke-width:1px!important;color:#e6edf3!important;}#my-svg .session tspan{fill:#e6edf3!important;}#my-svg .peers&gt;*{fill:#161b22!important;stroke:#1e3a5f!important;stroke-width:1px!important;color:#e6edf3!important;}#my-svg .peers span{fill:#161b22!important;stroke:#1e3a5f!important;stroke-width:1px!important;color:#e6edf3!important;}#my-svg .peers tspan{fill:#e6edf3!important;}</style><g><marker id="my-svg_flowchart-v2-pointEnd" class="marker flowchart-v2" viewBox="0 0 10 10" refX="5" refY="5" markerUnits="userSpaceOnUse" markerWidth="8" markerHeight="8" orient="auto"><path d="M 0 0 L 10 5 L 0 10 z" class="arrowMarkerPath" style="stroke-width: 1; stroke-dasharray: 1, 0;"/></marker><marker id="my-svg_flowchart-v2-pointStart" class="marker flowchart-v2" viewBox="0 0 10 10" refX="4.5" refY="5" markerUnits="userSpaceOnUse" markerWidth="8" markerHeight="8" orient="auto"><path d="M 0 5 L 10 10 L 10 0 z" class="arrowMarkerPath" style="stroke-width: 1; stroke-dasharray: 1, 0;"/></marker><marker id="my-svg_flowchart-v2-pointEnd-margin" class="marker flowchart-v2" viewBox="0 0 11.5 14" refX="11.5" refY="7" markerUnits="userSpaceOnUse" markerWidth="10.5" markerHeight="14" orient="auto"><path d="M 0 0 L 11.5 7 L 0 14 z" class="arrowMarkerPath" style="stroke-width: 0; stroke-dasharray: 1, 0;"/></marker><marker id="my-svg_flowchart-v2-pointStart-margin" class="marker flowchart-v2" viewBox="0 0 11.5 14" refX="1" refY="7" markerUnits="userSpaceOnUse" markerWidth="11.5" markerHeight="14" orient="auto"><polygon points="0,7 11.5,14 11.5,0" class="arrowMarkerPath" style="stroke-width: 0; stroke-dasharray: 1, 0;"/></marker><marker id="my-svg_flowchart-v2-circleEnd" class="marker flowchart-v2" viewBox="0 0 10 10" refX="11" refY="5" markerUnits="userSpaceOnUse" markerWidth="11" markerHeight="11" orient="auto"><circle cx="5" cy="5" r="5" class="arrowMarkerPath" style="stroke-width: 1; stroke-dasharray: 1, 0;"/></marker><marker id="my-svg_flowchart-v2-circleStart" class="marker flowchart-v2" viewBox="0 0 10 10" refX="-1" refY="5" markerUnits="userSpaceOnUse" markerWidth="11" markerHeight="11" orient="auto"><circle cx="5" cy="5" r="5" class="arrowMarkerPath" style="stroke-width: 1; stroke-dasharray: 1, 0;"/></marker><marker id="my-svg_flowchart-v2-circleEnd-margin" class="marker flowchart-v2" viewBox="0 0 10 10" refY="5" refX="12.25" markerUnits="userSpaceOnUse" markerWidth="14" markerHeight="14" orient="auto"><circle cx="5" cy="5" r="5" class="arrowMarkerPath" style="stroke-width: 0; stroke-dasharray: 1, 0;"/></marker><marker id="my-svg_flowchart-v2-circleStart-margin" class="marker flowchart-v2" viewBox="0 0 10 10" refX="-2" refY="5" markerUnits="userSpaceOnUse" markerWidth="14" markerHeight="14" orient="auto"><circle cx="5" cy="5" r="5" class="arrowMarkerPath" style="stroke-width: 0; stroke-dasharray: 1, 0;"/></marker><marker id="my-svg_flowchart-v2-crossEnd" class="marker cross flowchart-v2" viewBox="0 0 11 11" refX="12" refY="5.2" markerUnits="userSpaceOnUse" markerWidth="11" markerHeight="11" orient="auto"><path d="M 1,1 l 9,9 M 10,1 l -9,9" class="arrowMarkerPath" style="stroke-width: 2; stroke-dasharray: 1, 0;"/></marker><marker id="my-svg_flowchart-v2-crossStart" class="marker cross flowchart-v2" viewBox="0 0 11 11" refX="-1" refY="5.2" markerUnits="userSpaceOnUse" markerWidth="11" markerHeight="11" orient="auto"><path d="M 1,1 l 9,9 M 10,1 l -9,9" class="arrowMarkerPath" style="stroke-width: 2; stroke-dasharray: 1, 0;"/></marker><marker id="my-svg_flowchart-v2-crossEnd-margin" class="marker cross flowchart-v2" viewBox="0 0 15 15" refX="17.7" refY="7.5" markerUnits="userSpaceOnUse" markerWidth="12" markerHeight="12" orient="auto"><path d="M 1,1 L 14,14 M 1,14 L 14,1" class="arrowMarkerPath" style="stroke-width: 2.5;"/></marker><marker id="my-svg_flowchart-v2-crossStart-margin" class="marker cross flowchart-v2" viewBox="0 0 15 15" refX="-3.5" refY="7.5" markerUnits="userSpaceOnUse" markerWidth="12" markerHeight="12" orient="auto"><path d="M 1,1 L 14,14 M 1,14 L 14,1" class="arrowMarkerPath" style="stroke-width: 2.5; stroke-dasharray: 1, 0;"/></marker><g class="root"><g class="clusters"/><g class="edgePaths"><path d="M1229.486,171.188L1229.486,175.688C1229.486,180.188,1229.486,189.188,1229.486,197.521C1229.486,205.854,1229.486,213.521,1229.486,217.354L1229.486,221.188" id="my-svg-L_Session_Observe_0" class="edge-thickness-normal edge-pattern-solid edge-thickness-normal edge-pattern-solid flowchart-link" style="stroke-dasharray: 0 0 46 4; stroke-dashoffset: 0;;" data-edge="true" data-et="edge" data-id="L_Session_Observe_0" data-points="W3sieCI6MTIyOS40ODU2MjYyMjA3MDMxLCJ5IjoxNzEuMTg3NX0seyJ4IjoxMjI5LjQ4NTYyNjIyMDcwMzEsInkiOjE5OC4xODc1fSx7IngiOjEyMjkuNDg1NjI2MjIwNzAzMSwieSI6MjI1LjE4NzV9XQ==" data-look="neo" marker-end="url(#my-svg_flowchart-v2-pointEnd-margin)"/><path d="M772.857,430.75L752.865,435.25C732.873,439.75,692.888,448.75,672.896,457.083C652.904,465.417,652.904,473.083,652.904,476.917L652.904,480.75" id="my-svg-L_Observe_Commit_0" class="edge-thickness-normal edge-pattern-solid edge-thickness-normal edge-pattern-solid flowchart-link" style="stroke-dasharray: 0 0 133.3030548095703 4; stroke-dashoffset: 0;;" data-edge="true" data-et="edge" data-id="L_Observe_Commit_0" data-points="W3sieCI6NzcyLjg1NzA5MjQ0MjQxMDIsInkiOjQzMC43NX0seyJ4Ijo2NTIuOTAzNTk0OTcwNzAzMSwieSI6NDU3Ljc1fSx7IngiOjY1Mi45MDM1OTQ5NzA3MDMxLCJ5Ijo0ODQuNzV9XQ==" data-look="neo" marker-end="url(#my-svg_flowchart-v2-pointEnd-margin)"/><path d="M1686.114,430.75L1706.106,435.25C1726.099,439.75,1766.083,448.75,1786.075,457.083C1806.068,465.417,1806.068,473.083,1806.068,476.917L1806.068,480.75" id="my-svg-L_Observe_Guard_0" class="edge-thickness-normal edge-pattern-solid edge-thickness-normal edge-pattern-solid flowchart-link" style="stroke-dasharray: 0 0 133.3038787841797 4; stroke-dashoffset: 0;;" data-edge="true" data-et="edge" data-id="L_Observe_Guard_0" data-points="W3sieCI6MTY4Ni4xMTQxNTk5OTg5OTYsInkiOjQzMC43NX0seyJ4IjoxODA2LjA2NzY1NzQ3MDcwMzEsInkiOjQ1Ny43NX0seyJ4IjoxODA2LjA2NzY1NzQ3MDcwMzEsInkiOjQ4NC43NX1d" data-look="neo" marker-end="url(#my-svg_flowchart-v2-pointEnd-margin)"/><path d="M652.904,690.313L652.904,694.813C652.904,699.313,652.904,708.313,672.245,717.166C691.587,726.02,730.271,734.727,749.613,739.081L768.955,743.434" id="my-svg-L_Commit_Bus_0" class="edge-thickness-normal edge-pattern-solid edge-thickness-normal edge-pattern-solid flowchart-link" style="stroke-dasharray: 0 0 132.3590850830078 4; stroke-dashoffset: 0;;" data-edge="true" data-et="edge" data-id="L_Commit_Bus_0" data-points="W3sieCI6NjUyLjkwMzU5NDk3MDcwMzEsInkiOjY5MC4zMTI1fSx7IngiOjY1Mi45MDM1OTQ5NzA3MDMxLCJ5Ijo3MTcuMzEyNX0seyJ4Ijo3NzIuODU3MDkyNDQyNDEwMiwieSI6NzQ0LjMxMjV9XQ==" data-look="neo" marker-end="url(#my-svg_flowchart-v2-pointEnd-margin)"/><path d="M1806.068,690.313L1806.068,694.813C1806.068,699.313,1806.068,708.313,1786.726,717.166C1767.384,726.02,1728.7,734.727,1709.358,739.081L1690.017,743.434" id="my-svg-L_Guard_Bus_0" class="edge-thickness-normal edge-pattern-solid edge-thickness-normal edge-pattern-solid flowchart-link" style="stroke-dasharray: 0 0 132.35888671875 4; stroke-dashoffset: 0;;" data-edge="true" data-et="edge" data-id="L_Guard_Bus_0" data-points="W3sieCI6MTgwNi4wNjc2NTc0NzA3MDMxLCJ5Ijo2OTAuMzEyNX0seyJ4IjoxODA2LjA2NzY1NzQ3MDcwMzEsInkiOjcxNy4zMTI1fSx7IngiOjE2ODYuMTE0MTU5OTk4OTk2LCJ5Ijo3NDQuMzEyNX1d" data-look="neo" marker-end="url(#my-svg_flowchart-v2-pointEnd-margin)"/><path d="M1229.486,949.875L1229.486,954.375C1229.486,958.875,1229.486,967.875,1229.486,976.208C1229.486,984.542,1229.486,992.208,1229.486,996.042L1229.486,999.875" id="my-svg-L_Bus_Peers_0" class="edge-thickness-normal edge-pattern-solid edge-thickness-normal edge-pattern-solid flowchart-link" style="stroke-dasharray: 0 0 46 4; stroke-dashoffset: 0;;" data-edge="true" data-et="edge" data-id="L_Bus_Peers_0" data-points="W3sieCI6MTIyOS40ODU2MjYyMjA3MDMxLCJ5Ijo5NDkuODc1fSx7IngiOjEyMjkuNDg1NjI2MjIwNzAzMSwieSI6OTc2Ljg3NX0seyJ4IjoxMjI5LjQ4NTYyNjIyMDcwMzEsInkiOjEwMDMuODc1fV0=" data-look="neo" marker-end="url(#my-svg_flowchart-v2-pointEnd-margin)"/></g><g class="edgeLabels"><g class="edgeLabel"><g class="label" data-id="L_Session_Observe_0" transform="translate(0, 0)"><foreignObject width="0" height="0"><div xmlns="http://www.w3.org/1999/xhtml" class="labelBkg" style="display: table-cell; white-space: nowrap; line-height: 1.5; max-width: 200px; text-align: center;"><span class="edgeLabel"></span></div></foreignObject></g></g><g class="edgeLabel"><g class="label" data-id="L_Observe_Commit_0" transform="translate(0, 0)"><foreignObject width="0" height="0"><div xmlns="http://www.w3.org/1999/xhtml" class="labelBkg" style="display: table-cell; white-space: nowrap; line-height: 1.5; max-width: 200px; text-align: center;"><span class="edgeLabel"></span></div></foreignObject></g></g><g class="edgeLabel"><g class="label" data-id="L_Observe_Guard_0" transform="translate(0, 0)"><foreignObject width="0" height="0"><div xmlns="http://www.w3.org/1999/xhtml" class="labelBkg" style="display: table-cell; white-space: nowrap; line-height: 1.5; max-width: 200px; text-align: center;"><span class="edgeLabel"></span></div></foreignObject></g></g><g class="edgeLabel"><g class="label" data-id="L_Commit_Bus_0" transform="translate(0, 0)"><foreignObject width="0" height="0"><div xmlns="http://www.w3.org/1999/xhtml" class="labelBkg" style="display: table-cell; white-space: nowrap; line-height: 1.5; max-width: 200px; text-align: center;"><span class="edgeLabel"></span></div></foreignObject></g></g><g class="edgeLabel"><g class="label" data-id="L_Guard_Bus_0" transform="translate(0, 0)"><foreignObject width="0" height="0"><div xmlns="http://www.w3.org/1999/xhtml" class="labelBkg" style="display: table-cell; white-space: nowrap; line-height: 1.5; max-width: 200px; text-align: center;"><span class="edgeLabel"></span></div></foreignObject></g></g><g class="edgeLabel"><g class="label" data-id="L_Bus_Peers_0" transform="translate(0, 0)"><foreignObject width="0" height="0"><div xmlns="http://www.w3.org/1999/xhtml" class="labelBkg" style="display: table-cell; white-space: nowrap; line-height: 1.5; max-width: 200px; text-align: center;"><span class="edgeLabel"></span></div></foreignObject></g></g></g><g class="nodes"><g class="root" transform="translate(711.8450012207031, 752.3125)"><g class="clusters"><g class="cluster" id="my-svg-Bus" data-look="neo"><rect style="" x="8" y="-8" width="1019.28125" height="205.5625"/><g class="cluster-label" transform="translate(47.640625, 6)"><foreignObject width="940" height="54"><div xmlns="http://www.w3.org/1999/xhtml" style="display: table-cell; white-space: nowrap; line-height: 1.5;"><span class="nodeLabel"><p></p><div style="text-align:center;min-width:940px;line-height:2"><div><span style="font-family:ui-monospace,monospace;color:&amp;8b949e;font-size:11px;letter-spacing:3px">OUTPUT · ENCHANTED-MCP BUS</span>  ·  <b style="letter-spacing:2px">AUTO-ORCHESTRATION EVENTS</b></div><div style="color:&amp;6e7681;font-size:11px;font-family:ui-monospace,monospace;letter-spacing:1.2px">weaver publishes · peers subscribe · silent by default, loud when risky</div></div><p></p></span></div></foreignObject></g></g></g><g class="edgePaths"><path d="M222.641,110.781L229.224,110.781C235.807,110.781,248.974,110.781,261.474,110.781C273.974,110.781,285.807,110.781,291.724,110.781L297.641,110.781" id="my-svg-L_evt1_evt2_0" class="edge-thickness-normal edge-pattern-solid edge-thickness-normal edge-pattern-solid flowchart-link" style="stroke-dasharray: 0 0 70.99998474121094 4; stroke-dashoffset: 0;;" data-edge="true" data-et="edge" data-id="L_evt1_evt2_0" data-points="W3sieCI6MjIyLjY0MDYyNSwieSI6MTEwLjc4MTI1fSx7IngiOjI2Mi4xNDA2MjUsInkiOjExMC43ODEyNX0seyJ4IjozMDEuNjQwNjI1LCJ5IjoxMTAuNzgxMjV9XQ==" data-look="neo" marker-end="url(#my-svg_flowchart-v2-pointEnd-margin)"/><path d="M465.281,110.781L471.865,110.781C478.448,110.781,491.615,110.781,504.115,110.781C516.615,110.781,528.448,110.781,534.365,110.781L540.281,110.781" id="my-svg-L_evt2_evt3_0" class="edge-thickness-normal edge-pattern-solid edge-thickness-normal edge-pattern-solid flowchart-link" style="stroke-dasharray: 0 0 71 4; stroke-dashoffset: 0;;" data-edge="true" data-et="edge" data-id="L_evt2_evt3_0" data-points="W3sieCI6NDY1LjI4MTI1LCJ5IjoxMTAuNzgxMjV9LHsieCI6NTA0Ljc4MTI1LCJ5IjoxMTAuNzgxMjV9LHsieCI6NTQ0LjI4MTI1LCJ5IjoxMTAuNzgxMjV9XQ==" data-look="neo" marker-end="url(#my-svg_flowchart-v2-pointEnd-margin)"/><path d="M726.531,110.781L733.115,110.781C739.698,110.781,752.865,110.781,765.365,110.781C777.865,110.781,789.698,110.781,795.615,110.781L801.531,110.781" id="my-svg-L_evt3_evt4_0" class="edge-thickness-normal edge-pattern-solid edge-thickness-normal edge-pattern-solid flowchart-link" style="stroke-dasharray: 0 0 71 4; stroke-dashoffset: 0;;" data-edge="true" data-et="edge" data-id="L_evt3_evt4_0" data-points="W3sieCI6NzI2LjUzMTI1LCJ5IjoxMTAuNzgxMjV9LHsieCI6NzY2LjAzMTI1LCJ5IjoxMTAuNzgxMjV9LHsieCI6ODA1LjUzMTI1LCJ5IjoxMTAuNzgxMjV9XQ==" data-look="neo" marker-end="url(#my-svg_flowchart-v2-pointEnd-margin)"/></g><g class="edgeLabels"><g class="edgeLabel"><g class="label" data-id="L_evt1_evt2_0" transform="translate(0, 0)"><foreignObject width="0" height="0"><div xmlns="http://www.w3.org/1999/xhtml" class="labelBkg" style="display: table-cell; white-space: nowrap; line-height: 1.5; max-width: 200px; text-align: center;"><span class="edgeLabel"></span></div></foreignObject></g></g><g class="edgeLabel"><g class="label" data-id="L_evt2_evt3_0" transform="translate(0, 0)"><foreignObject width="0" height="0"><div xmlns="http://www.w3.org/1999/xhtml" class="labelBkg" style="display: table-cell; white-space: nowrap; line-height: 1.5; max-width: 200px; text-align: center;"><span class="edgeLabel"></span></div></foreignObject></g></g><g class="edgeLabel"><g class="label" data-id="L_evt3_evt4_0" transform="translate(0, 0)"><foreignObject width="0" height="0"><div xmlns="http://www.w3.org/1999/xhtml" class="labelBkg" style="display: table-cell; white-space: nowrap; line-height: 1.5; max-width: 200px; text-align: center;"><span class="edgeLabel"></span></div></foreignObject></g></g></g><g class="nodes"><g class="node default" id="my-svg-flowchart-evt1-12" data-look="neo" transform="translate(135.0703125, 110.78125)"><rect class="basic label-container" style="" x="-87.5703125" y="-54.78125" width="175.140625" height="109.5625"/><g class="label" style="" transform="translate(-71.5703125, -42.78125)"><rect/><foreignObject width="143.140625" height="85.5625"><div xmlns="http://www.w3.org/1999/xhtml" style="display: table-cell; white-space: nowrap; line-height: 1.5; max-width: 200px; text-align: center;"><span class="nodeLabel"><p></p><div style="text-align:center;line-height:1.7;padding:2px 4px">weaver.task.<br />boundary.detected<br /><small style="color:&amp;6e7681;letter-spacing:1px">on W2 cluster close</small></div><p></p></span></div></foreignObject></g></g><g class="node default" id="my-svg-flowchart-evt2-13" data-look="neo" transform="translate(383.4609375, 110.78125)"><rect class="basic label-container" style="" x="-81.8203125" y="-54.78125" width="163.640625" height="109.5625"/><g class="label" style="" transform="translate(-65.8203125, -42.78125)"><rect/><foreignObject width="131.640625" height="85.5625"><div xmlns="http://www.w3.org/1999/xhtml" style="display: table-cell; white-space: nowrap; line-height: 1.5; max-width: 200px; text-align: center;"><span class="nodeLabel"><p></p><div style="text-align:center;line-height:1.7;padding:2px 4px">weaver.commit.<br />committed<br /><small style="color:&amp;6e7681;letter-spacing:1px">after W1 signs off</small></div><p></p></span></div></foreignObject></g></g><g class="node default" id="my-svg-flowchart-evt3-14" data-look="neo" transform="translate(635.40625, 110.78125)"><rect class="basic label-container" style="" x="-91.125" y="-54.78125" width="182.25" height="109.5625"/><g class="label" style="" transform="translate(-75.125, -42.78125)"><rect/><foreignObject width="150.25" height="85.5625"><div xmlns="http://www.w3.org/1999/xhtml" style="display: table-cell; white-space: nowrap; line-height: 1.5; max-width: 200px; text-align: center;"><span class="nodeLabel"><p></p><div style="text-align:center;line-height:1.7;padding:2px 4px">weaver.pr.<br />ready<br /><small style="color:&amp;6e7681;letter-spacing:1px">CI green + reviewers</small></div><p></p></span></div></foreignObject></g></g><g class="node default" id="my-svg-flowchart-evt4-15" data-look="neo" transform="translate(896.65625, 110.78125)"><rect class="basic label-container" style="" x="-91.125" y="-54.78125" width="182.25" height="109.5625"/><g class="label" style="" transform="translate(-75.125, -42.78125)"><rect/><foreignObject width="150.25" height="85.5625"><div xmlns="http://www.w3.org/1999/xhtml" style="display: table-cell; white-space: nowrap; line-height: 1.5; max-width: 200px; text-align: center;"><span class="nodeLabel"><p></p><div style="text-align:center;line-height:1.7;padding:2px 4px">weaver.destructive.<br />detected<br /><small style="color:&amp;6e7681;letter-spacing:1px">gate intercepts</small></div><p></p></span></div></foreignObject></g></g></g></g><g class="root" transform="translate(1308.7004699707031, 492.75)"><g class="clusters"><g class="cluster" id="my-svg-Guard" data-look="neo"><rect style="" x="-114.8125" y="-8" width="1224.359375" height="205.5625"/><g class="cluster-label" transform="translate(-110.8125, 6)"><foreignObject width="1216.359375" height="54"><div xmlns="http://www.w3.org/1999/xhtml" style="display: table-cell; white-space: nowrap; line-height: 1.5;"><span class="nodeLabel"><p></p><div style="text-align:center;min-width:940px;line-height:2"><div><span style="font-family:ui-monospace,monospace;color:&amp;8b949e;font-size:11px;letter-spacing:3px">SUB-PLUGINS 05 · 06 · 07 · 08</span>  ·  <b style="letter-spacing:2px">WEAVER-GATE  ·  CAPABILITY-MEMORY  ·  CI-READER  ·  WEAVER-LEARNING</b>  ·  <span style="color:&amp;bc8cff;letter-spacing:1px">gate + registry + CI + W5</span></div><div style="color:&amp;6e7681;font-size:11px;font-family:ui-monospace,monospace;letter-spacing:1.2px">destructive-op decision-gate  ·  10-host capability registry  ·  8-CI read-only status  ·  Gauss Learning (W5)</div></div><p></p></span></div></foreignObject></g></g></g><g class="edgePaths"><path d="M259.953,110.781L266.536,110.781C273.12,110.781,286.286,110.781,298.786,110.781C311.286,110.781,323.12,110.781,329.036,110.781L334.953,110.781" id="my-svg-L_gate_reg_0" class="edge-thickness-normal edge-pattern-solid edge-thickness-normal edge-pattern-solid flowchart-link" style="stroke-dasharray: 0 0 71 4; stroke-dashoffset: 0;;" data-edge="true" data-et="edge" data-id="L_gate_reg_0" data-points="W3sieCI6MjU5Ljk1MzEyNSwieSI6MTEwLjc4MTI1fSx7IngiOjI5OS40NTMxMjUsInkiOjExMC43ODEyNX0seyJ4IjozMzguOTUzMTI1LCJ5IjoxMTAuNzgxMjV9XQ==" data-look="neo" marker-end="url(#my-svg_flowchart-v2-pointEnd-margin)"/><path d="M514.422,110.781L521.005,110.781C527.589,110.781,540.755,110.781,553.255,110.781C565.755,110.781,577.589,110.781,583.505,110.781L589.422,110.781" id="my-svg-L_reg_ci_0" class="edge-thickness-normal edge-pattern-solid edge-thickness-normal edge-pattern-solid flowchart-link" style="stroke-dasharray: 0 0 71 4; stroke-dashoffset: 0;;" data-edge="true" data-et="edge" data-id="L_reg_ci_0" data-points="W3sieCI6NTE0LjQyMTg3NSwieSI6MTEwLjc4MTI1fSx7IngiOjU1My45MjE4NzUsInkiOjExMC43ODEyNX0seyJ4Ijo1OTMuNDIxODc1LCJ5IjoxMTAuNzgxMjV9XQ==" data-look="neo" marker-end="url(#my-svg_flowchart-v2-pointEnd-margin)"/><path d="M718.516,110.781L725.099,110.781C731.682,110.781,744.849,110.781,757.349,110.781C769.849,110.781,781.682,110.781,787.599,110.781L793.516,110.781" id="my-svg-L_ci_learn_0" class="edge-thickness-normal edge-pattern-solid edge-thickness-normal edge-pattern-solid flowchart-link" style="stroke-dasharray: 0 0 71 4; stroke-dashoffset: 0;;" data-edge="true" data-et="edge" data-id="L_ci_learn_0" data-points="W3sieCI6NzE4LjUxNTYyNSwieSI6MTEwLjc4MTI1fSx7IngiOjc1OC4wMTU2MjUsInkiOjExMC43ODEyNX0seyJ4Ijo3OTcuNTE1NjI1LCJ5IjoxMTAuNzgxMjV9XQ==" data-look="neo" marker-end="url(#my-svg_flowchart-v2-pointEnd-margin)"/></g><g class="edgeLabels"><g class="edgeLabel"><g class="label" data-id="L_gate_reg_0" transform="translate(0, 0)"><foreignObject width="0" height="0"><div xmlns="http://www.w3.org/1999/xhtml" class="labelBkg" style="display: table-cell; white-space: nowrap; line-height: 1.5; max-width: 200px; text-align: center;"><span class="edgeLabel"></span></div></foreignObject></g></g><g class="edgeLabel"><g class="label" data-id="L_reg_ci_0" transform="translate(0, 0)"><foreignObject width="0" height="0"><div xmlns="http://www.w3.org/1999/xhtml" class="labelBkg" style="display: table-cell; white-space: nowrap; line-height: 1.5; max-width: 200px; text-align: center;"><span class="edgeLabel"></span></div></foreignObject></g></g><g class="edgeLabel"><g class="label" data-id="L_ci_learn_0" transform="translate(0, 0)"><foreignObject width="0" height="0"><div xmlns="http://www.w3.org/1999/xhtml" class="labelBkg" style="display: table-cell; white-space: nowrap; line-height: 1.5; max-width: 200px; text-align: center;"><span class="edgeLabel"></span></div></foreignObject></g></g></g><g class="nodes"><g class="node default" id="my-svg-flowchart-gate-8" data-look="neo" transform="translate(153.7265625, 110.78125)"><rect class="basic label-container" style="" x="-106.2265625" y="-54.78125" width="212.453125" height="109.5625"/><g class="label" style="" transform="translate(-90.2265625, -42.78125)"><rect/><foreignObject width="180.453125" height="85.5625"><div xmlns="http://www.w3.org/1999/xhtml" style="display: table-cell; white-space: nowrap; line-height: 1.5; max-width: 200px; text-align: center;"><span class="nodeLabel"><p></p><div style="text-align:center;line-height:1.7;padding:2px 4px">WEAVER<br />GATE<br /><small style="color:&amp;6e7681;letter-spacing:1px">force-push · reset --hard</small></div><p></p></span></div></foreignObject></g></g><g class="node default" id="my-svg-flowchart-reg-9" data-look="neo" transform="translate(426.6875, 110.78125)"><rect class="basic label-container" style="" x="-87.734375" y="-54.78125" width="175.46875" height="109.5625"/><g class="label" style="" transform="translate(-71.734375, -42.78125)"><rect/><foreignObject width="143.46875" height="85.5625"><div xmlns="http://www.w3.org/1999/xhtml" style="display: table-cell; white-space: nowrap; line-height: 1.5; max-width: 200px; text-align: center;"><span class="nodeLabel"><p></p><div style="text-align:center;line-height:1.7;padding:2px 4px">CAPABILITY<br />MEMORY<br /><small style="color:&amp;6e7681;letter-spacing:1px">GitHub · GitLab · …</small></div><p></p></span></div></foreignObject></g></g><g class="node default" id="my-svg-flowchart-ci-10" data-look="neo" transform="translate(655.96875, 110.78125)"><rect class="basic label-container" style="" x="-62.546875" y="-54.78125" width="125.09375" height="109.5625"/><g class="label" style="" transform="translate(-46.546875, -42.78125)"><rect/><foreignObject width="93.09375" height="85.5625"><div xmlns="http://www.w3.org/1999/xhtml" style="display: table-cell; white-space: nowrap; line-height: 1.5; max-width: 200px; text-align: center;"><span class="nodeLabel"><p></p><div style="text-align:center;line-height:1.7;padding:2px 4px">CI<br />READER<br /><small style="color:&amp;6e7681;letter-spacing:1px">8 CI systems</small></div><p></p></span></div></foreignObject></g></g><g class="node default" id="my-svg-flowchart-learn-11" data-look="neo" transform="translate(872.375, 110.78125)"><rect class="basic label-container" style="" x="-74.859375" y="-54.78125" width="149.71875" height="109.5625"/><g class="label" style="" transform="translate(-58.859375, -42.78125)"><rect/><foreignObject width="117.71875" height="85.5625"><div xmlns="http://www.w3.org/1999/xhtml" style="display: table-cell; white-space: nowrap; line-height: 1.5; max-width: 200px; text-align: center;"><span class="nodeLabel"><p></p><div style="text-align:center;line-height:1.7;padding:2px 4px">WEAVER<br />LEARNING (W5)<br /><small style="color:&amp;6e7681;letter-spacing:1px">preference EMA</small></div><p></p></span></div></foreignObject></g></g></g></g><g class="root" transform="translate(192.50515747070312, 492.75)"><g class="clusters"><g class="cluster" id="my-svg-Commit" data-look="neo"><rect style="" x="-36.5859375" y="-8" width="993.96875" height="205.5625"/><g class="cluster-label" transform="translate(-32.5859375, 6)"><foreignObject width="985.96875" height="54"><div xmlns="http://www.w3.org/1999/xhtml" style="display: table-cell; white-space: nowrap; line-height: 1.5;"><span class="nodeLabel"><p></p><div style="text-align:center;min-width:940px;line-height:2"><div><span style="font-family:ui-monospace,monospace;color:&amp;8b949e;font-size:11px;letter-spacing:3px">SUB-PLUGINS 02 · 03 · 04</span>  ·  <b style="letter-spacing:2px">COMMIT-INTELLIGENCE  ·  BRANCH-WORKFLOW  ·  PR-LIFECYCLE</b>  ·  <span style="color:&amp;3fb950;letter-spacing:1px">W1 + W3 + W4</span></div><div style="color:&amp;6e7681;font-size:11px;font-family:ui-monospace,monospace;letter-spacing:1.2px">Myers-Diff classifier (W1)  ·  Workflow-Pattern classifier (W3)  ·  Path-History reviewer routing (W4)</div></div><p></p></span></div></foreignObject></g></g></g><g class="edgePaths"><path d="M294.75,110.781L301.333,110.781C307.917,110.781,321.083,110.781,333.583,110.781C346.083,110.781,357.917,110.781,363.833,110.781L369.75,110.781" id="my-svg-L_branch_draft_0" class="edge-thickness-normal edge-pattern-solid edge-thickness-normal edge-pattern-solid flowchart-link" style="stroke-dasharray: 0 0 71 4; stroke-dashoffset: 0;;" data-edge="true" data-et="edge" data-id="L_branch_draft_0" data-points="W3sieCI6Mjk0Ljc1LCJ5IjoxMTAuNzgxMjV9LHsieCI6MzM0LjI1LCJ5IjoxMTAuNzgxMjV9LHsieCI6MzczLjc1LCJ5IjoxMTAuNzgxMjV9XQ==" data-look="neo" marker-end="url(#my-svg_flowchart-v2-pointEnd-margin)"/><path d="M567.469,110.781L574.052,110.781C580.635,110.781,593.802,110.781,606.302,110.781C618.802,110.781,630.635,110.781,636.552,110.781L642.469,110.781" id="my-svg-L_draft_pr_0" class="edge-thickness-normal edge-pattern-solid edge-thickness-normal edge-pattern-solid flowchart-link" style="stroke-dasharray: 0 0 71 4; stroke-dashoffset: 0;;" data-edge="true" data-et="edge" data-id="L_draft_pr_0" data-points="W3sieCI6NTY3LjQ2ODc1LCJ5IjoxMTAuNzgxMjV9LHsieCI6NjA2Ljk2ODc1LCJ5IjoxMTAuNzgxMjV9LHsieCI6NjQ2LjQ2ODc1LCJ5IjoxMTAuNzgxMjV9XQ==" data-look="neo" marker-end="url(#my-svg_flowchart-v2-pointEnd-margin)"/></g><g class="edgeLabels"><g class="edgeLabel"><g class="label" data-id="L_branch_draft_0" transform="translate(0, 0)"><foreignObject width="0" height="0"><div xmlns="http://www.w3.org/1999/xhtml" class="labelBkg" style="display: table-cell; white-space: nowrap; line-height: 1.5; max-width: 200px; text-align: center;"><span class="edgeLabel"></span></div></foreignObject></g></g><g class="edgeLabel"><g class="label" data-id="L_draft_pr_0" transform="translate(0, 0)"><foreignObject width="0" height="0"><div xmlns="http://www.w3.org/1999/xhtml" class="labelBkg" style="display: table-cell; white-space: nowrap; line-height: 1.5; max-width: 200px; text-align: center;"><span class="edgeLabel"></span></div></foreignObject></g></g></g><g class="nodes"><g class="node default" id="my-svg-flowchart-branch-5" data-look="neo" transform="translate(171.125, 110.78125)"><rect class="basic label-container" style="" x="-123.625" y="-54.78125" width="247.25" height="109.5625"/><g class="label" style="" transform="translate(-107.625, -42.78125)"><rect/><foreignObject width="215.25" height="85.5625"><div xmlns="http://www.w3.org/1999/xhtml" style="display: table; white-space: break-spaces; line-height: 1.5; max-width: 200px; text-align: center; width: 200px;"><span class="nodeLabel"><p></p><div style="text-align:center;line-height:1.7;padding:2px 4px">PICK<br />BRANCH (W3)<br /><small style="color:&amp;6e7681;letter-spacing:1px">GitHub Flow · GitFlow · Trunk</small></div><p></p></span></div></foreignObject></g></g><g class="node default" id="my-svg-flowchart-draft-6" data-look="neo" transform="translate(470.609375, 110.78125)"><rect class="basic label-container" style="" x="-96.859375" y="-54.78125" width="193.71875" height="109.5625"/><g class="label" style="" transform="translate(-80.859375, -42.78125)"><rect/><foreignObject width="161.71875" height="85.5625"><div xmlns="http://www.w3.org/1999/xhtml" style="display: table-cell; white-space: nowrap; line-height: 1.5; max-width: 200px; text-align: center;"><span class="nodeLabel"><p></p><div style="text-align:center;line-height:1.7;padding:2px 4px">DRAFT<br />COMMIT (W1)<br /><small style="color:&amp;6e7681;letter-spacing:1px">Conventional Commits</small></div><p></p></span></div></foreignObject></g></g><g class="node default" id="my-svg-flowchart-pr-7" data-look="neo" transform="translate(759.8828125, 110.78125)"><rect class="basic label-container" style="" x="-113.4140625" y="-54.78125" width="226.828125" height="109.5625"/><g class="label" style="" transform="translate(-97.4140625, -42.78125)"><rect/><foreignObject width="194.828125" height="85.5625"><div xmlns="http://www.w3.org/1999/xhtml" style="display: table-cell; white-space: nowrap; line-height: 1.5; max-width: 200px; text-align: center;"><span class="nodeLabel"><p></p><div style="text-align:center;line-height:1.7;padding:2px 4px">OPEN<br />PR (W4)<br /><small style="color:&amp;6e7681;letter-spacing:1px">blame-graph reviewer rank</small></div><p></p></span></div></foreignObject></g></g></g></g><g class="root" transform="translate(780.5403137207031, 233.1875)"><g class="clusters"><g class="cluster" id="my-svg-Observe" data-look="neo"><rect style="" x="-25.0546875" y="-8" width="948" height="205.5625"/><g class="cluster-label" transform="translate(-21.0546875, 6)"><foreignObject width="940" height="54"><div xmlns="http://www.w3.org/1999/xhtml" style="display: table-cell; white-space: nowrap; line-height: 1.5;"><span class="nodeLabel"><p></p><div style="text-align:center;min-width:940px;line-height:2"><div><span style="font-family:ui-monospace,monospace;color:&amp;8b949e;font-size:11px;letter-spacing:3px">SUB-PLUGIN 01</span>  ·  <b style="letter-spacing:2px">BOUNDARY-SEGMENTER</b>  ·  <span style="color:&amp;58a6ff;letter-spacing:1px">W2 (defining)</span></div><div style="color:&amp;6e7681;font-size:11px;font-family:ui-monospace,monospace;letter-spacing:1.2px">ROLE · Jaccard-Cosine boundary clustering  ·  confidence ≥ 0.7 → autonomous  ·  &lt; 0.7 → Opus judge</div></div><p></p></span></div></foreignObject></g></g></g><g class="edgePaths"><path d="M263.266,110.781L269.849,110.781C276.432,110.781,289.599,110.781,302.099,110.781C314.599,110.781,326.432,110.781,332.349,110.781L338.266,110.781" id="my-svg-L_cluster_detect_0" class="edge-thickness-normal edge-pattern-solid edge-thickness-normal edge-pattern-solid flowchart-link" style="stroke-dasharray: 0 0 71 4; stroke-dashoffset: 0;;" data-edge="true" data-et="edge" data-id="L_cluster_detect_0" data-points="W3sieCI6MjYzLjI2NTYyNSwieSI6MTEwLjc4MTI1fSx7IngiOjMwMi43NjU2MjUsInkiOjExMC43ODEyNX0seyJ4IjozNDIuMjY1NjI1LCJ5IjoxMTAuNzgxMjV9XQ==" data-look="neo" marker-end="url(#my-svg_flowchart-v2-pointEnd-margin)"/><path d="M543.359,110.781L549.943,110.781C556.526,110.781,569.693,110.781,582.193,110.781C594.693,110.781,606.526,110.781,612.443,110.781L618.359,110.781" id="my-svg-L_detect_emit_0" class="edge-thickness-normal edge-pattern-solid edge-thickness-normal edge-pattern-solid flowchart-link" style="stroke-dasharray: 0 0 71 4; stroke-dashoffset: 0;;" data-edge="true" data-et="edge" data-id="L_detect_emit_0" data-points="W3sieCI6NTQzLjM1OTM3NSwieSI6MTEwLjc4MTI1fSx7IngiOjU4Mi44NTkzNzUsInkiOjExMC43ODEyNX0seyJ4Ijo2MjIuMzU5Mzc1LCJ5IjoxMTAuNzgxMjV9XQ==" data-look="neo" marker-end="url(#my-svg_flowchart-v2-pointEnd-margin)"/></g><g class="edgeLabels"><g class="edgeLabel"><g class="label" data-id="L_cluster_detect_0" transform="translate(0, 0)"><foreignObject width="0" height="0"><div xmlns="http://www.w3.org/1999/xhtml" class="labelBkg" style="display: table-cell; white-space: nowrap; line-height: 1.5; max-width: 200px; text-align: center;"><span class="edgeLabel"></span></div></foreignObject></g></g><g class="edgeLabel"><g class="label" data-id="L_detect_emit_0" transform="translate(0, 0)"><foreignObject width="0" height="0"><div xmlns="http://www.w3.org/1999/xhtml" class="labelBkg" style="display: table-cell; white-space: nowrap; line-height: 1.5; max-width: 200px; text-align: center;"><span class="edgeLabel"></span></div></foreignObject></g></g></g><g class="nodes"><g class="node default" id="my-svg-flowchart-cluster-2" data-look="neo" transform="translate(155.3828125, 110.78125)"><rect class="basic label-container" style="" x="-107.8828125" y="-54.78125" width="215.765625" height="109.5625"/><g class="label" style="" transform="translate(-91.8828125, -42.78125)"><rect/><foreignObject width="183.765625" height="85.5625"><div xmlns="http://www.w3.org/1999/xhtml" style="display: table-cell; white-space: nowrap; line-height: 1.5; max-width: 200px; text-align: center;"><span class="nodeLabel"><p></p><div style="text-align:center;line-height:1.7;padding:2px 4px">CLUSTER<br />EDITS<br /><small style="color:&amp;6e7681;letter-spacing:1px">file-set · semantic · time</small></div><p></p></span></div></foreignObject></g></g><g class="node default" id="my-svg-flowchart-detect-3" data-look="neo" transform="translate(442.8125, 110.78125)"><rect class="basic label-container" style="" x="-100.546875" y="-54.78125" width="201.09375" height="109.5625"/><g class="label" style="" transform="translate(-84.546875, -42.78125)"><rect/><foreignObject width="169.09375" height="85.5625"><div xmlns="http://www.w3.org/1999/xhtml" style="display: table-cell; white-space: nowrap; line-height: 1.5; max-width: 200px; text-align: center;"><span class="nodeLabel"><p></p><div style="text-align:center;line-height:1.7;padding:2px 4px">DETECT<br />BOUNDARY<br /><small style="color:&amp;6e7681;letter-spacing:1px">edit distance threshold</small></div><p></p></span></div></foreignObject></g></g><g class="node default" id="my-svg-flowchart-emit-4" data-look="neo" transform="translate(736.375, 110.78125)"><rect class="basic label-container" style="" x="-114.015625" y="-54.78125" width="228.03125" height="109.5625"/><g class="label" style="" transform="translate(-98.015625, -42.78125)"><rect/><foreignObject width="196.03125" height="85.5625"><div xmlns="http://www.w3.org/1999/xhtml" style="display: table-cell; white-space: nowrap; line-height: 1.5; max-width: 200px; text-align: center;"><span class="nodeLabel"><p></p><div style="text-align:center;line-height:1.7;padding:2px 4px">EMIT<br />EVENT<br /><small style="color:#6e7681letter-spacing:1px">weaver.task.boundary.detected</small></div><p></p></span></div></foreignObject></g></g></g></g><g class="node default titleBlock" id="my-svg-flowchart-TitleBlock-0" data-look="neo" transform="translate(504, 97.59375)"><rect class="basic label-container" style="fill:#0d1117 !important;stroke:#1e3a5f !important;stroke-width:1px !important" x="-496" y="-51.3984375" width="992" height="102.796875"/><g class="label" style="color:#e6edf3 !important" transform="translate(-480, -39.3984375)"><rect/><foreignObject width="960" height="78.796875"><div style="color: rgb(230, 237, 243) !important; display: table; white-space: break-spaces; line-height: 1.5; max-width: 200px; text-align: center; width: 200px;" xmlns="http://www.w3.org/1999/xhtml"><span style="color:#e6edf3 !important" class="nodeLabel"><p></p><div style="font-family:ui-monospace,SFMono-Regular,Consolas,monospace;text-align:center;min-width:940px;padding:6px 10px;line-height:1.8"><div style="color:&amp;58a6ff;font-size:15px;letter-spacing:6px;border-bottom:1px solid &amp;1e3a5f;padding-bottom:10px;margin-bottom:10px">WEAVER  ·  GIT WORKFLOW LAYER  ·  ARCHITECTURE</div><div style="display:flex;gap:40px;justify-content:center;font-size:11px;color:&amp;8b949e;letter-spacing:2px"><span>DWG  <b style="color:#e6edf3">WVR-001</b></span><span>REV  <b style="color:#e6edf3">A.1</b></span><span>SCALE  <b style="color:#e6edf3">1:1</b></span><span>ENGINES  <b style="color:#e6edf3">W1 · W2 · W3 · W4 · W5</b></span><span>SHEET  <b style="color:#e6edf3">01 / 01</b></span></div></div><p></p></span></div></foreignObject></g></g><g class="node default session" id="my-svg-flowchart-Session-1" data-look="neo" transform="translate(1229.4856262207031, 97.59375)"><g class="basic label-container outer-path"><path d="M-111.9296875 -73.59375 C-35.10896059940198 -73.59375, 41.711766301196036 -73.59375, 111.9296875 -73.59375 C111.9296875 -73.59375, 111.9296875 -73.59375, 111.9296875 -73.59375 C113.81065810520948 -73.5334309337781, 115.69162871041897 -73.47311186755623, 116.64485525170558 -73.44254374772007 C117.74192147253073 -73.33671108881224, 118.8389876933559 -73.2308784299044, 121.3406473677191 -72.98954632980453 C122.66402289230076 -72.77559323792063, 123.98739841688244 -72.56164014603674, 125.9977678309916 -72.23661920981122 C127.04805870739145 -71.99689717106145, 128.0983495837913 -71.75717513231167, 130.5970795345903 -71.18685632677857 C132.3523967942196 -70.66588737796891, 134.1077140538489 -70.14491842915925, 135.11968292017582 -69.8445713815664 C136.8243624777764 -69.2172335464843, 138.529042035377 -68.58989571140219, 139.54699364034144 -68.21528011093379 C140.9251002377863 -67.60523320032469, 142.30320683523118 -66.99518628971559, 143.8608189256828 -66.30567762219366 C145.39089172774908 -65.50743962141408, 146.9209645298154 -64.70920162063449, 148.04343234278977 -64.1236108815807 C148.97566817254517 -63.558484043157144, 149.90790400230057 -62.993357204733584, 152.07764663596382 -61.6780464693839 C152.87099900455212 -61.12463820072721, 153.66435137314045 -60.57122993207052, 155.94688435333794 -58.97903373434493 C156.9033682686424 -58.21626326499556, 157.85985218394686 -57.4534927956462, 159.63524596718253 -56.03766349872849 C160.6134471894934 -55.14928703041182, 161.5916484118043 -54.26091056209514, 163.12757520847532 -52.86602248375464 C164.4314065021507 -51.519709626494794, 165.73523779582612 -50.17339676923495, 166.4095213472615 -49.4771436426688 C167.06531627864487 -48.70680960047717, 167.72111121002825 -47.936475558285544, 169.46759816288156 -45.88495260554117 C170.04712997788747 -45.10843276986772, 170.6266617928934 -44.33191293419426, 172.2892393617447 -42.10421045586594 C173.21186984359807 -40.68680227476498, 174.13450032545146 -39.269394093664026, 174.8628502149247 -38.150453074102714 C175.56751080886067 -36.89925683494679, 176.2721714027967 -35.64806059579087, 177.177855203388 -34.03992729741147 C177.7779803404808 -32.79375460961732, 178.37810547757363 -31.54758192182316, 179.22474147506995 -29.78952415791369 C179.93171479997235 -28.04328637700532, 180.63868812487476 -26.29704859609695, 180.99509793522452 -25.416709473818145 C181.45966257804483 -24.017514787967347, 181.92422722086513 -22.618320102116552, 182.48164980941675 -20.939452078627564 C182.90773173700376 -19.31461702366274, 183.33381366459076 -17.68978196869792, 183.6782885371311 -16.37614998334752 C183.96758449997813 -14.890676356851387, 184.25688046282517 -13.405202730355253, 184.58009687315717 -11.74555477511278 C184.7686947965846 -10.282826523881976, 184.95729272001205 -8.820098272651173, 185.18336909360505 -7.066694562893468 C185.26281380421676 -5.829279068500027, 185.34225851482844 -4.591863574106586, 185.48562622351938 -2.3587957869139973 C185.48562622351938 -0.6254128415684825, 185.48562622351938 1.1079701037770322, 185.48562622351938 2.3587957869139795 C185.3880210692405 3.879074850270116, 185.29041591496159 5.399353913626252, 185.18336909360505 7.066694562893418 C185.03933640598459 8.183783645606546, 184.89530371836412 9.300872728319675, 184.58009687315717 11.745554775112728 C184.37199889140675 12.814093929877128, 184.16390090965635 13.882633084641526, 183.6782885371311 16.376149983347503 C183.36085249174232 17.586671202067286, 183.04341644635352 18.79719242078707, 182.48164980941675 20.939452078627514 C182.07556215614446 22.162523389002708, 181.6694745028722 23.385594699377904, 180.99509793522458 25.416709473818095 C180.54003169997364 26.54073187299501, 180.08496546472273 27.664754272171923, 179.22474147506995 29.789524157913668 C178.74775240134716 30.780002175430248, 178.2707633276244 31.770480192946827, 177.177855203388 34.03992729741145 C176.27403625861265 35.64474935545246, 175.37021731383734 37.24957141349346, 174.8628502149247 38.15045307410269 C174.15912367959072 39.231566009409704, 173.45539714425672 40.312678944716716, 172.28923936174473 42.104210455865896 C171.23246670612278 43.52018954042987, 170.1756940505008 44.93616862499385, 169.4675981628816 45.88495260554116 C168.38153798954073 47.160700683721856, 167.29547781619988 48.436448761902554, 166.40952134726152 49.47714364266876 C165.1505603430712 50.77712424211599, 163.8915993388809 52.07710484156322, 163.12757520847535 52.86602248375463 C162.2960589729136 53.6211835281778, 161.46454273735188 54.37634457260098, 159.6352459671826 56.03766349872845 C158.592692200038 56.869072384505394, 157.55013843289333 57.70048127028234, 155.94688435333794 58.979033734344924 C154.72022968391153 59.834694930711976, 153.49357501448515 60.69035612707903, 152.07764663596384 61.67804646938388 C150.86537089861335 62.41293514548875, 149.65309516126285 63.147823821593626, 148.0434323427898 64.12361088158069 C146.86940821549504 64.73609851679203, 145.69538408820029 65.34858615200335, 143.8608189256828 66.30567762219366 C142.82036218218897 66.76625695848567, 141.77990543869515 67.2268362947777, 139.54699364034147 68.21528011093378 C138.62040600443112 68.55627292623099, 137.6938183685208 68.89726574152822, 135.11968292017588 69.84457138156638 C134.20383623477716 70.11638987041538, 133.28798954937844 70.38820835926435, 130.59707953459036 71.18685632677855 C129.2036270543942 71.5049027622561, 127.81017457419802 71.82294919773365, 125.99776783099163 72.23661920981121 C124.18929647831145 72.52899883320774, 122.38082512563125 72.82137845660428, 121.34064736771916 72.98954632980451 C119.69603755401143 73.14819986060022, 118.0514277403037 73.30685339139592, 116.6448552517056 73.44254374772007 C115.28858578746143 73.48603666962, 113.93231632321725 73.52952959151996, 111.92968750000001 73.59375 C111.92968750000001 73.59375, 111.9296875 73.59375, 111.9296875 73.59375 C48.441280102543324 73.59375, -15.047127294913352 73.59375, -111.92968749999999 73.59375 C-113.45304612825822 73.54489885382945, -114.97640475651644 73.4960477076589, -116.64485525170556 73.44254374772007 C-118.29856323054501 73.28301252787625, -119.95227120938446 73.12348130803244, -121.34064736771913 72.98954632980451 C-123.18649178111608 72.69112451978371, -125.03233619451304 72.39270270976291, -125.99776783099162 72.23661920981121 C-127.50705358523449 71.89213458541526, -129.01633933947735 71.5476499610193, -130.59707953459028 71.18685632677857 C-132.3150120423551 70.67698297608572, -134.03294455011994 70.16710962539287, -135.1196829201758 69.84457138156641 C-136.36239785630238 69.38724079754088, -137.605112792429 68.92991021351536, -139.54699364034144 68.21528011093379 C-140.990839118282 67.57613254800386, -142.43468459622255 66.93698498507392, -143.8608189256828 66.30567762219367 C-145.51591925736363 65.44221283929814, -147.17101958904448 64.57874805640259, -148.04343234278977 64.1236108815807 C-148.85664231470764 63.63063821765183, -149.66985228662554 63.13766555372296, -152.07764663596376 61.67804646938393 C-153.1527674301673 60.92808874457661, -154.22788822437082 60.178131019769296, -155.9468843533379 58.97903373434494 C-156.89564625449054 58.22242136579025, -157.84440815564315 57.465808997235555, -159.63524596718253 56.037663498728506 C-160.34789387353842 55.390455525806416, -161.06054177989435 54.74324755288432, -163.1275752084753 52.866022483754676 C-163.82140872505997 52.149582413089895, -164.51524224164464 51.433142342425114, -166.40952134726152 49.477143642668786 C-167.5184998301 48.17447441406339, -168.6274783129385 46.87180518545799, -169.46759816288156 45.88495260554119 C-170.46943487582308 44.54258267940169, -171.4712715887646 43.200212753262186, -172.2892393617447 42.104210455865946 C-173.3081907304459 40.53882752678709, -174.32714209914704 38.97344459770823, -174.86285021492466 38.15045307410274 C-175.5232517295374 36.97784331200303, -176.18365324415012 35.80523354990331, -177.17785520338796 34.03992729741148 C-177.78180874162683 32.78580485272292, -178.3857622798657 31.53168240803436, -179.22474147506995 29.789524157913696 C-179.90655485579072 28.105431925568432, -180.58836823651149 26.42133969322317, -180.99509793522452 25.416709473818152 C-181.437178989282 24.08523177504766, -181.87926004333946 22.753754076277172, -182.48164980941675 20.939452078627543 C-182.8360696479478 19.587895627778945, -183.19048948647884 18.236339176930347, -183.67828853713107 16.37614998334753 C-183.87095049111437 15.386871568761649, -184.06361244509768 14.397593154175768, -184.58009687315717 11.745554775112788 C-184.73965164337758 10.508079484936465, -184.899206413598 9.27060419476014, -185.18336909360505 7.06669456289351 C-185.2735993346015 5.661285726834038, -185.36382957559798 4.255876890774566, -185.48562622351938 2.3587957869140066 C-185.48562622351938 0.9672648482781856, -185.48562622351938 -0.4242660903576354, -185.48562622351938 -2.3587957869139706 C-185.41057811082058 -3.5277307199438734, -185.33552999812179 -4.696665652973776, -185.18336909360505 -7.066694562893408 C-184.96277078928367 -8.777611449147575, -184.7421724849623 -10.488528335401742, -184.58009687315717 -11.745554775112753 C-184.27821289961628 -13.295665176044928, -183.97632892607538 -14.845775576977104, -183.6782885371311 -16.376149983347496 C-183.35946521246655 -17.59196149919635, -183.04064188780202 -18.807773015045203, -182.48164980941675 -20.939452078627507 C-182.0408674049874 -22.26701845162984, -181.60008500055807 -23.59458482463218, -180.99509793522458 -25.416709473818056 C-180.51315825170397 -26.607109809783875, -180.03121856818333 -27.797510145749698, -179.22474147506995 -29.789524157913657 C-178.70685889180868 -30.864918422967826, -178.18897630854744 -31.940312688021997, -177.177855203388 -34.039927297411445 C-176.2632688705245 -35.66386794331927, -175.348682537661 -37.28780858922709, -174.8628502149247 -38.15045307410272 C-173.85348242604547 -39.70111305102352, -172.84411463716626 -41.251773027944324, -172.2892393617447 -42.104210455865925 C-171.33818330743566 -43.3785389256511, -170.3871272531266 -44.652867395436274, -169.4675981628816 -45.88495260554116 C-168.66605326630372 -46.82649285025818, -167.86450836972588 -47.768033094975195, -166.40952134726155 -49.47714364266876 C-165.38396668365385 -50.536113032447474, -164.35841202004616 -51.59508242222619, -163.12757520847538 -52.8660224837546 C-161.75653279435795 -54.11116692846162, -160.38549038024053 -55.356311373168644, -159.6352459671826 -56.037663498728435 C-158.81833801283452 -56.68912585348742, -158.0014300584864 -57.340588208246395, -155.94688435333796 -58.97903373434492 C-154.91997682885886 -59.69535996931127, -153.89306930437976 -60.41168620427762, -152.07764663596384 -61.67804646938387 C-151.1928949484516 -62.21438814173183, -150.30814326093937 -62.75072981407979, -148.0434323427898 -64.12361088158067 C-147.09195488619733 -64.61999606123457, -146.14047742960483 -65.11638124088849, -143.86081892568282 -66.30567762219366 C-142.4910496458466 -66.91203384961516, -141.12128036601035 -67.51839007703664, -139.54699364034147 -68.21528011093378 C-138.36274174244497 -68.65109575646423, -137.17848984454844 -69.0869114019947, -135.11968292017588 -69.84457138156638 C-133.57420111821727 -70.30326226798817, -132.02871931625864 -70.76195315440998, -130.5970795345904 -71.18685632677855 C-129.0130494012958 -71.5484008679404, -127.4290192680012 -71.90994540910225, -125.99776783099165 -72.23661920981121 C-124.19684179106748 -72.52777896555612, -122.3959157511433 -72.81893872130104, -121.34064736771916 -72.98954632980451 C-120.0270282683634 -73.11626958446125, -118.71340916900762 -73.242992839118, -116.6448552517056 -73.44254374772007 C-114.95255882350504 -73.49681240031728, -113.2602623953045 -73.55108105291451, -111.92968750000003 -73.59375 C-111.92968750000003 -73.59375, -111.92968750000001 -73.59375, -111.9296875 -73.59375" stroke="none" stroke-width="0" fill="#161b22" style="fill:#161b22 !important;stroke:#30363d !important;stroke-width:1px !important"/><path d="M-111.9296875 -73.59375 C-28.57207851028508 -73.59375, 54.78553047942984 -73.59375, 111.9296875 -73.59375 M-111.9296875 -73.59375 C-45.597298185809635 -73.59375, 20.73509112838073 -73.59375, 111.9296875 -73.59375 M111.9296875 -73.59375 C111.9296875 -73.59375, 111.9296875 -73.59375, 111.9296875 -73.59375 M111.9296875 -73.59375 C111.9296875 -73.59375, 111.9296875 -73.59375, 111.9296875 -73.59375 M111.9296875 -73.59375 C113.70899628650098 -73.53669103043137, 115.48830507300197 -73.47963206086273, 116.64485525170558 -73.44254374772007 M111.9296875 -73.59375 C113.03129646455277 -73.55842354465857, 114.13290542910552 -73.52309708931713, 116.64485525170558 -73.44254374772007 M116.64485525170558 -73.44254374772007 C118.417795887831 -73.27151029682612, 120.19073652395643 -73.10047684593218, 121.3406473677191 -72.98954632980453 M116.64485525170558 -73.44254374772007 C118.47462614843776 -73.26602794993377, 120.30439704516996 -73.08951215214749, 121.3406473677191 -72.98954632980453 M121.3406473677191 -72.98954632980453 C122.677259578255 -72.77345323318758, 124.01387178879092 -72.55736013657064, 125.9977678309916 -72.23661920981122 M121.3406473677191 -72.98954632980453 C123.16050244903735 -72.69532627344392, 124.9803575303556 -72.40110621708334, 125.9977678309916 -72.23661920981122 M125.9977678309916 -72.23661920981122 C127.68328130495219 -71.85191175838304, 129.36879477891276 -71.46720430695487, 130.5970795345903 -71.18685632677857 M125.9977678309916 -72.23661920981122 C126.9382324070351 -72.02196430743419, 127.8786969830786 -71.80730940505717, 130.5970795345903 -71.18685632677857 M130.5970795345903 -71.18685632677857 C132.2847456921647 -70.68596586995092, 133.9724118497391 -70.18507541312327, 135.11968292017582 -69.8445713815664 M130.5970795345903 -71.18685632677857 C132.29119511306817 -70.68405171568047, 133.98531069154603 -70.18124710458238, 135.11968292017582 -69.8445713815664 M135.11968292017582 -69.8445713815664 C136.05457136216128 -69.50052379290173, 136.98945980414675 -69.15647620423705, 139.54699364034144 -68.21528011093379 M135.11968292017582 -69.8445713815664 C136.16497635984103 -69.45989373318297, 137.21026979950622 -69.07521608479955, 139.54699364034144 -68.21528011093379 M139.54699364034144 -68.21528011093379 C141.07759975551403 -67.53772618756409, 142.60820587068662 -66.8601722641944, 143.8608189256828 -66.30567762219366 M139.54699364034144 -68.21528011093379 C140.88778534167994 -67.62175139792392, 142.22857704301845 -67.02822268491403, 143.8608189256828 -66.30567762219366 M143.8608189256828 -66.30567762219366 C145.44398549974431 -65.47974063457235, 147.02715207380584 -64.65380364695105, 148.04343234278977 -64.1236108815807 M143.8608189256828 -66.30567762219366 C145.06272299169223 -65.67864504081284, 146.26462705770163 -65.05161245943202, 148.04343234278977 -64.1236108815807 M148.04343234278977 -64.1236108815807 C149.42101006385323 -63.28851517152676, 150.79858778491666 -62.45341946147281, 152.07764663596382 -61.6780464693839 M148.04343234278977 -64.1236108815807 C149.24398420513734 -63.39582928739974, 150.44453606748493 -62.668047693218774, 152.07764663596382 -61.6780464693839 M152.07764663596382 -61.6780464693839 C152.97442239723512 -61.05249451911807, 153.8711981585064 -60.42694256885225, 155.94688435333794 -58.97903373434493 M152.07764663596382 -61.6780464693839 C153.3242788488105 -60.80844980354077, 154.5709110616572 -59.938853137697635, 155.94688435333794 -58.97903373434493 M155.94688435333794 -58.97903373434493 C157.13982126614218 -58.027698291768004, 158.33275817894645 -57.07636284919107, 159.63524596718253 -56.03766349872849 M155.94688435333794 -58.97903373434493 C157.17709425332728 -57.99797407636374, 158.40730415331663 -57.01691441838254, 159.63524596718253 -56.03766349872849 M159.63524596718253 -56.03766349872849 C160.9372154339688 -54.855249277217595, 162.23918490075505 -53.672835055706706, 163.12757520847532 -52.86602248375464 M159.63524596718253 -56.03766349872849 C161.02896643986637 -54.77192344126, 162.42268691255023 -53.50618338379151, 163.12757520847532 -52.86602248375464 M163.12757520847532 -52.86602248375464 C164.10526393179197 -51.85647860719321, 165.0829526551086 -50.84693473063178, 166.4095213472615 -49.4771436426688 M163.12757520847532 -52.86602248375464 C164.37897522452806 -51.573849225328125, 165.6303752405808 -50.28167596690162, 166.4095213472615 -49.4771436426688 M166.4095213472615 -49.4771436426688 C167.07327848028896 -48.69745674536393, 167.7370356133164 -47.91776984805906, 169.46759816288156 -45.88495260554117 M166.4095213472615 -49.4771436426688 C167.11814187997746 -48.644757643290056, 167.8267624126934 -47.81237164391131, 169.46759816288156 -45.88495260554117 M169.46759816288156 -45.88495260554117 C170.29935741731347 -44.77047097942931, 171.1311166717454 -43.65598935331746, 172.2892393617447 -42.10421045586594 M169.46759816288156 -45.88495260554117 C170.39245600277752 -44.64572735636311, 171.31731384267349 -43.40650210718505, 172.2892393617447 -42.10421045586594 M172.2892393617447 -42.10421045586594 C172.80408884438822 -41.31326339408171, 173.3189383270317 -40.52231633229748, 174.8628502149247 -38.150453074102714 M172.2892393617447 -42.10421045586594 C173.22360155145952 -40.66877922108515, 174.15796374117434 -39.23334798630436, 174.8628502149247 -38.150453074102714 M174.8628502149247 -38.150453074102714 C175.5648643767456 -36.90395584314744, 176.26687853856652 -35.65745861219218, 177.177855203388 -34.03992729741147 M174.8628502149247 -38.150453074102714 C175.4572678521888 -37.09500436782761, 176.0516854894529 -36.03955566155251, 177.177855203388 -34.03992729741147 M177.177855203388 -34.03992729741147 C177.82551960954225 -32.69503830023383, 178.47318401569652 -31.350149303056195, 179.22474147506995 -29.78952415791369 M177.177855203388 -34.03992729741147 C177.97032645169614 -32.394343794131196, 178.76279770000428 -30.748760290850925, 179.22474147506995 -29.78952415791369 M179.22474147506995 -29.78952415791369 C179.71148526682666 -28.587257581723552, 180.1982290585834 -27.38499100553342, 180.99509793522452 -25.416709473818145 M179.22474147506995 -29.78952415791369 C179.8038433609077 -28.359131303721135, 180.38294524674544 -26.928738449528584, 180.99509793522452 -25.416709473818145 M180.99509793522452 -25.416709473818145 C181.4142172826063 -24.154388777103684, 181.83333662998808 -22.892068080389222, 182.48164980941675 -20.939452078627564 M180.99509793522452 -25.416709473818145 C181.5812587523876 -23.651286484566295, 182.1674195695507 -21.885863495314446, 182.48164980941675 -20.939452078627564 M182.48164980941675 -20.939452078627564 C182.91376678104737 -19.291602785119796, 183.34588375267802 -17.643753491612028, 183.6782885371311 -16.37614998334752 M182.48164980941675 -20.939452078627564 C182.7714005013526 -19.834507111531984, 183.06115119328842 -18.729562144436407, 183.6782885371311 -16.37614998334752 M183.6782885371311 -16.37614998334752 C183.88724443922243 -15.303205588954066, 184.09620034131376 -14.230261194560613, 184.58009687315717 -11.74555477511278 M183.6782885371311 -16.37614998334752 C183.9656610718005 -14.900552754026881, 184.25303360646987 -13.424955524706242, 184.58009687315717 -11.74555477511278 M184.58009687315717 -11.74555477511278 C184.8062349582147 -9.99167244342254, 185.0323730432722 -8.2377901117323, 185.18336909360505 -7.066694562893468 M184.58009687315717 -11.74555477511278 C184.8208274099652 -9.878496269251132, 185.0615579467732 -8.011437763389484, 185.18336909360505 -7.066694562893468 M185.18336909360505 -7.066694562893468 C185.2653219218138 -5.790213112409608, 185.3472747500226 -4.513731661925749, 185.48562622351938 -2.3587957869139973 M185.18336909360505 -7.066694562893468 C185.25495351595754 -5.95170940284791, 185.32653793831 -4.836724242802352, 185.48562622351938 -2.3587957869139973 M185.48562622351938 -2.3587957869139973 C185.48562622351938 -0.8493536140623117, 185.48562622351938 0.6600885587893739, 185.48562622351938 2.3587957869139795 M185.48562622351938 -2.3587957869139973 C185.48562622351938 -0.8103879186647791, 185.48562622351938 0.7380199495844391, 185.48562622351938 2.3587957869139795 M185.48562622351938 2.3587957869139795 C185.38593261237034 3.9116042517947682, 185.2862390012213 5.464412716675557, 185.18336909360505 7.066694562893418 M185.48562622351938 2.3587957869139795 C185.3826253208224 3.963117987251665, 185.27962441812542 5.567440187589351, 185.18336909360505 7.066694562893418 M185.18336909360505 7.066694562893418 C184.98095662263282 8.636565716890683, 184.77854415166058 10.206436870887948, 184.58009687315717 11.745554775112728 M185.18336909360505 7.066694562893418 C185.00326020120482 8.463583565825944, 184.8231513088046 9.860472568758471, 184.58009687315717 11.745554775112728 M184.58009687315717 11.745554775112728 C184.38976718025174 12.722857521987354, 184.1994374873463 13.700160268861982, 183.6782885371311 16.376149983347503 M184.58009687315717 11.745554775112728 C184.30895610769133 13.137805300158776, 184.0378153422255 14.530055825204824, 183.6782885371311 16.376149983347503 M183.6782885371311 16.376149983347503 C183.34706722576112 17.63924039582564, 183.01584591439112 18.90233080830378, 182.48164980941675 20.939452078627514 M183.6782885371311 16.376149983347503 C183.42410670996915 17.345455453416704, 183.1699248828072 18.31476092348591, 182.48164980941675 20.939452078627514 M182.48164980941675 20.939452078627514 C182.04963929537675 22.24059891538808, 181.61762878133678 23.54174575214865, 180.99509793522458 25.416709473818095 M182.48164980941675 20.939452078627514 C182.07624468551782 22.160467719276415, 181.67083956161892 23.381483359925312, 180.99509793522458 25.416709473818095 M180.99509793522458 25.416709473818095 C180.5399047859545 26.541045353076044, 180.0847116366844 27.66538123233399, 179.22474147506995 29.789524157913668 M180.99509793522458 25.416709473818095 C180.639706452456 26.29453330728334, 180.28431496968744 27.172357140748588, 179.22474147506995 29.789524157913668 M179.22474147506995 29.789524157913668 C178.5470298614613 31.19680682427757, 177.86931824785268 32.60408949064147, 177.177855203388 34.03992729741145 M179.22474147506995 29.789524157913668 C178.5687149687165 31.151777235075212, 177.91268846236304 32.514030312236756, 177.177855203388 34.03992729741145 M177.177855203388 34.03992729741145 C176.59273752728097 35.07886298092897, 176.00761985117396 36.117798664446475, 174.8628502149247 38.15045307410269 M177.177855203388 34.03992729741145 C176.31371273277452 35.574299757899404, 175.44957026216105 37.10867221838735, 174.8628502149247 38.15045307410269 M174.8628502149247 38.15045307410269 C173.92379811348832 39.59308927270544, 172.98474601205194 41.03572547130819, 172.28923936174473 42.104210455865896 M174.8628502149247 38.15045307410269 C174.0181403327283 39.448154289519806, 173.1734304505319 40.74585550493693, 172.28923936174473 42.104210455865896 M172.28923936174473 42.104210455865896 C171.33690664387422 43.380249538516985, 170.38457392600372 44.656288621168066, 169.4675981628816 45.88495260554116 M172.28923936174473 42.104210455865896 C171.1896800677133 43.57751973795559, 170.0901207736819 45.050829020045285, 169.4675981628816 45.88495260554116 M169.4675981628816 45.88495260554116 C168.54485307391082 46.96886149272919, 167.62210798494007 48.05277037991723, 166.40952134726152 49.47714364266876 M169.4675981628816 45.88495260554116 C168.49289103306154 47.029899062634655, 167.5181839032415 48.17484551972815, 166.40952134726152 49.47714364266876 M166.40952134726152 49.47714364266876 C165.4858964212827 50.4308622097586, 164.56227149530383 51.384580776848445, 163.12757520847535 52.86602248375463 M166.40952134726152 49.47714364266876 C165.7220487791439 50.187015511797725, 165.0345762110263 50.896887380926685, 163.12757520847535 52.86602248375463 M163.12757520847535 52.86602248375463 C162.13098724386717 53.77109730493917, 161.13439927925901 54.67617212612371, 159.6352459671826 56.03766349872845 M163.12757520847535 52.86602248375463 C162.09321279059643 53.8054030639424, 161.0588503727175 54.74478364413017, 159.6352459671826 56.03766349872845 M159.6352459671826 56.03766349872845 C158.52367109802927 56.924114876628686, 157.4120962288759 57.810566254528915, 155.94688435333794 58.979033734344924 M159.6352459671826 56.03766349872845 C158.41238240513107 57.01286464769851, 157.1895188430795 57.988065796668565, 155.94688435333794 58.979033734344924 M155.94688435333794 58.979033734344924 C155.0295159942296 59.618950189422684, 154.11214763512126 60.25886664450045, 152.07764663596384 61.67804646938388 M155.94688435333794 58.979033734344924 C154.8691213695447 59.73083453623148, 153.79135838575144 60.48263533811804, 152.07764663596384 61.67804646938388 M152.07764663596384 61.67804646938388 C150.7326162190394 62.49341181239958, 149.38758580211493 63.30877715541528, 148.0434323427898 64.12361088158069 M152.07764663596384 61.67804646938388 C150.6656565534344 62.53400315518801, 149.2536664709049 63.38995984099214, 148.0434323427898 64.12361088158069 M148.0434323427898 64.12361088158069 C146.69131161805385 64.82901139760077, 145.3391908933179 65.53441191362086, 143.8608189256828 66.30567762219366 M148.0434323427898 64.12361088158069 C146.69036278735885 64.8295064019666, 145.33729323192793 65.5354019223525, 143.8608189256828 66.30567762219366 M143.8608189256828 66.30567762219366 C142.4127155354417 66.94671003659256, 140.9646121452006 67.58774245099148, 139.54699364034147 68.21528011093378 M143.8608189256828 66.30567762219366 C142.7966615132026 66.77674854159058, 141.7325041007224 67.2478194609875, 139.54699364034147 68.21528011093378 M139.54699364034147 68.21528011093378 C137.98533878526925 68.78998353337958, 136.42368393019703 69.36468695582539, 135.11968292017588 69.84457138156638 M139.54699364034147 68.21528011093378 C138.45862597308314 68.61580947324526, 137.37025830582485 69.01633883555675, 135.11968292017588 69.84457138156638 M135.11968292017588 69.84457138156638 C133.51044728068683 70.32218407231649, 131.9012116411978 70.7997967630666, 130.59707953459036 71.18685632677855 M135.11968292017588 69.84457138156638 C133.6260360851696 70.28787792188402, 132.1323892501633 70.73118446220165, 130.59707953459036 71.18685632677855 M130.59707953459036 71.18685632677855 C129.0089484784144 71.54933687682706, 127.42081742223843 71.91181742687556, 125.99776783099163 72.23661920981121 M130.59707953459036 71.18685632677855 C129.1619493601215 71.51441542400147, 127.72681918565263 71.84197452122439, 125.99776783099163 72.23661920981121 M125.99776783099163 72.23661920981121 C124.8673733801692 72.41937261828029, 123.73697892934675 72.60212602674937, 121.34064736771916 72.98954632980451 M125.99776783099163 72.23661920981121 C124.29852600902672 72.51133944976935, 122.59928418706181 72.78605968972751, 121.34064736771916 72.98954632980451 M121.34064736771916 72.98954632980451 C120.21336559943093 73.0982938462366, 119.08608383114272 73.20704136266869, 116.6448552517056 73.44254374772007 M121.34064736771916 72.98954632980451 C120.38843236660739 73.08140536575567, 119.43621736549561 73.17326440170685, 116.6448552517056 73.44254374772007 M116.6448552517056 73.44254374772007 C114.85139858123597 73.50005641239039, 113.05794191076636 73.5575690770607, 111.92968750000001 73.59375 M116.6448552517056 73.44254374772007 C115.50246768930704 73.4791778933237, 114.3600801269085 73.51581203892731, 111.92968750000001 73.59375 M111.92968750000001 73.59375 C111.92968750000001 73.59375, 111.92968750000001 73.59375, 111.9296875 73.59375 M111.92968750000001 73.59375 C111.92968750000001 73.59375, 111.9296875 73.59375, 111.9296875 73.59375 M111.9296875 73.59375 C23.599507361922207 73.59375, -64.73067277615559 73.59375, -111.92968749999999 73.59375 M111.9296875 73.59375 C34.17750710997282 73.59375, -43.574673280054355 73.59375, -111.92968749999999 73.59375 M-111.92968749999999 73.59375 C-113.0624119245228 73.55742573241989, -114.19513634904564 73.52110146483979, -116.64485525170556 73.44254374772007 M-111.92968749999999 73.59375 C-113.68245422341792 73.53754218273345, -115.43522094683584 73.48133436546689, -116.64485525170556 73.44254374772007 M-116.64485525170556 73.44254374772007 C-117.594248168758 73.35095695482406, -118.54364108581042 73.25937016192803, -121.34064736771913 72.98954632980451 M-116.64485525170556 73.44254374772007 C-118.0479806492247 73.30718592812657, -119.45110604674382 73.17182810853308, -121.34064736771913 72.98954632980451 M-121.34064736771913 72.98954632980451 C-123.12981935927631 72.70028687744556, -124.91899135083351 72.41102742508663, -125.99776783099162 72.23661920981121 M-121.34064736771913 72.98954632980451 C-123.0919142407356 72.70641508305265, -124.8431811137521 72.42328383630078, -125.99776783099162 72.23661920981121 M-125.99776783099162 72.23661920981121 C-127.25159391565008 71.95044158796776, -128.50542000030853 71.66426396612432, -130.59707953459028 71.18685632677857 M-125.99776783099162 72.23661920981121 C-127.1897018987063 71.96456803695203, -128.381635966421 71.69251686409284, -130.59707953459028 71.18685632677857 M-130.59707953459028 71.18685632677857 C-131.94055717556807 70.78811921499441, -133.28403481654587 70.38938210321024, -135.1196829201758 69.84457138156641 M-130.59707953459028 71.18685632677857 C-131.79998597486738 70.82984000948909, -133.00289241514446 70.4728236921996, -135.1196829201758 69.84457138156641 M-135.1196829201758 69.84457138156641 C-136.30132165934214 69.40971740260443, -137.48296039850845 68.97486342364246, -139.54699364034144 68.21528011093379 M-135.1196829201758 69.84457138156641 C-136.66408922952817 69.2762155833893, -138.20849553888058 68.70785978521221, -139.54699364034144 68.21528011093379 M-139.54699364034144 68.21528011093379 C-140.87465632757153 67.62756322301134, -142.20231901480165 67.0398463350889, -143.8608189256828 66.30567762219367 M-139.54699364034144 68.21528011093379 C-140.9075542350863 67.6130002952363, -142.2681148298312 67.0107204795388, -143.8608189256828 66.30567762219367 M-143.8608189256828 66.30567762219367 C-145.37951543219827 65.51337462751609, -146.89821193871376 64.72107163283849, -148.04343234278977 64.1236108815807 M-143.8608189256828 66.30567762219367 C-144.95912494398476 65.73269207594412, -146.05743096228673 65.15970652969456, -148.04343234278977 64.1236108815807 M-148.04343234278977 64.1236108815807 C-148.99969626517296 63.543918072201436, -149.95596018755614 62.96422526282217, -152.07764663596376 61.67804646938393 M-148.04343234278977 64.1236108815807 C-148.89349386926264 63.60829858871683, -149.74355539573548 63.09298629585296, -152.07764663596376 61.67804646938393 M-152.07764663596376 61.67804646938393 C-153.05555083754868 60.99590283114889, -154.0334550391336 60.31375919291384, -155.9468843533379 58.97903373434494 M-152.07764663596376 61.67804646938393 C-153.57200317761865 60.63564803557755, -155.06635971927355 59.59324960177117, -155.9468843533379 58.97903373434494 M-155.9468843533379 58.97903373434494 C-156.75480273484806 58.33474032470164, -157.56272111635823 57.69044691505835, -159.63524596718253 56.037663498728506 M-155.9468843533379 58.97903373434494 C-156.73610822863319 58.34964869592632, -157.52533210392846 57.720263657507694, -159.63524596718253 56.037663498728506 M-159.63524596718253 56.037663498728506 C-160.85640028398447 54.92864345818167, -162.07755460078644 53.81962341763483, -163.1275752084753 52.866022483754676 M-159.63524596718253 56.037663498728506 C-160.84509219321887 54.9389131670193, -162.05493841925522 53.840162835310096, -163.1275752084753 52.866022483754676 M-163.1275752084753 52.866022483754676 C-163.855607460676 52.11426941079792, -164.58363971287673 51.362516337841164, -166.40952134726152 49.477143642668786 M-163.1275752084753 52.866022483754676 C-164.30946371756195 51.64562556327151, -165.49135222664862 50.42522864278834, -166.40952134726152 49.477143642668786 M-166.40952134726152 49.477143642668786 C-167.12347188923394 48.638496711131275, -167.83742243120636 47.79984977959377, -169.46759816288156 45.88495260554119 M-166.40952134726152 49.477143642668786 C-167.60862092416738 48.068613048936335, -168.80772050107325 46.660082455203884, -169.46759816288156 45.88495260554119 M-169.46759816288156 45.88495260554119 C-170.2563943510196 44.828037574247276, -171.04519053915763 43.771122542953364, -172.2892393617447 42.104210455865946 M-169.46759816288156 45.88495260554119 C-170.59334507127798 44.376554305943145, -171.7190919796744 42.868156006345096, -172.2892393617447 42.104210455865946 M-172.2892393617447 42.104210455865946 C-173.14624080516396 40.78762610166417, -174.0032422485832 39.4710417474624, -174.86285021492466 38.15045307410274 M-172.2892393617447 42.104210455865946 C-172.92348234627846 41.12984291353396, -173.55772533081222 40.15547537120199, -174.86285021492466 38.15045307410274 M-174.86285021492466 38.15045307410274 C-175.7036821800335 36.65747077658289, -176.54451414514233 35.164488479063046, -177.17785520338796 34.03992729741148 M-174.86285021492466 38.15045307410274 C-175.6417753522352 36.76739261808486, -176.42070048954574 35.38433216206698, -177.17785520338796 34.03992729741148 M-177.17785520338796 34.03992729741148 C-177.7702265752966 32.809855468926294, -178.36259794720524 31.5797836404411, -179.22474147506995 29.789524157913696 M-177.17785520338796 34.03992729741148 C-177.8296270330264 32.68650914748414, -178.4813988626649 31.333090997556788, -179.22474147506995 29.789524157913696 M-179.22474147506995 29.789524157913696 C-179.7570961813918 28.4745977409206, -180.28945088771368 27.159671323927505, -180.99509793522452 25.416709473818152 M-179.22474147506995 29.789524157913696 C-179.84226230426566 28.264235770847254, -180.45978313346134 26.73894738378081, -180.99509793522452 25.416709473818152 M-180.99509793522452 25.416709473818152 C-181.3928184016713 24.218838797031285, -181.79053886811806 23.02096812024442, -182.48164980941675 20.939452078627543 M-180.99509793522452 25.416709473818152 C-181.36237520945573 24.310528841520576, -181.72965248368692 23.204348209223, -182.48164980941675 20.939452078627543 M-182.48164980941675 20.939452078627543 C-182.7403641849384 19.952862037243897, -182.99907856046002 18.96627199586025, -183.67828853713107 16.37614998334753 M-182.48164980941675 20.939452078627543 C-182.8629683242788 19.48531931696879, -183.24428683914084 18.031186555310036, -183.67828853713107 16.37614998334753 M-183.67828853713107 16.37614998334753 C-183.98240371758345 14.814582806490723, -184.28651889803584 13.253015629633913, -184.58009687315717 11.745554775112788 M-183.67828853713107 16.37614998334753 C-183.89038649687186 15.287071786998258, -184.10248445661264 14.197993590648984, -184.58009687315717 11.745554775112788 M-184.58009687315717 11.745554775112788 C-184.7952105089549 10.077175894857561, -185.01032414475267 8.408797014602332, -185.18336909360505 7.06669456289351 M-184.58009687315717 11.745554775112788 C-184.81870920355829 9.894924659855922, -185.05732153395942 8.044294544599055, -185.18336909360505 7.06669456289351 M-185.18336909360505 7.06669456289351 C-185.28678823745454 5.455857919007251, -185.39020738130404 3.8450212751209913, -185.48562622351938 2.3587957869140066 M-185.18336909360505 7.06669456289351 C-185.2977855171784 5.28456641046398, -185.41220194075171 3.502438258034451, -185.48562622351938 2.3587957869140066 M-185.48562622351938 2.3587957869140066 C-185.48562622351938 1.2747296401200259, -185.48562622351938 0.19066349332604515, -185.48562622351938 -2.3587957869139706 M-185.48562622351938 2.3587957869140066 C-185.48562622351938 0.8569944091975552, -185.48562622351938 -0.6448069685188962, -185.48562622351938 -2.3587957869139706 M-185.48562622351938 -2.3587957869139706 C-185.39948545811004 -3.7005077397385735, -185.31334469270072 -5.042219692563176, -185.18336909360505 -7.066694562893408 M-185.48562622351938 -2.3587957869139706 C-185.36983739063479 -4.162300322155254, -185.25404855775017 -5.965804857396537, -185.18336909360505 -7.066694562893408 M-185.18336909360505 -7.066694562893408 C-184.96270770034593 -8.778100754490536, -184.74204630708678 -10.489506946087664, -184.58009687315717 -11.745554775112753 M-185.18336909360505 -7.066694562893408 C-185.01536401745525 -8.369708757156541, -184.84735894130543 -9.672722951419674, -184.58009687315717 -11.745554775112753 M-184.58009687315717 -11.745554775112753 C-184.3490824101316 -12.93176521782519, -184.11806794710597 -14.117975660537628, -183.6782885371311 -16.376149983347496 M-184.58009687315717 -11.745554775112753 C-184.3399935734835 -12.978434473086805, -184.0998902738098 -14.211314171060856, -183.6782885371311 -16.376149983347496 M-183.6782885371311 -16.376149983347496 C-183.35905503142666 -17.593525697275048, -183.03982152572223 -18.810901411202597, -182.48164980941675 -20.939452078627507 M-183.6782885371311 -16.376149983347496 C-183.3243527381434 -17.725860581633196, -182.9704169391557 -19.075571179918892, -182.48164980941675 -20.939452078627507 M-182.48164980941675 -20.939452078627507 C-181.92481139693095 -22.616560656882157, -181.36797298444515 -24.293669235136807, -180.99509793522458 -25.416709473818056 M-182.48164980941675 -20.939452078627507 C-182.0639497483919 -22.197498110967498, -181.64624968736706 -23.45554414330749, -180.99509793522458 -25.416709473818056 M-180.99509793522458 -25.416709473818056 C-180.32076406792137 -27.082327163415375, -179.64643020061817 -28.74794485301269, -179.22474147506995 -29.789524157913657 M-180.99509793522458 -25.416709473818056 C-180.4126251724704 -26.855428459165655, -179.83015240971622 -28.29414744451325, -179.22474147506995 -29.789524157913657 M-179.22474147506995 -29.789524157913657 C-178.72117411696314 -30.83519255163786, -178.21760675885633 -31.880860945362063, -177.177855203388 -34.039927297411445 M-179.22474147506995 -29.789524157913657 C-178.5427366924976 -31.205721681489777, -177.86073190992528 -32.6219192050659, -177.177855203388 -34.039927297411445 M-177.177855203388 -34.039927297411445 C-176.44080231848432 -35.34863932925564, -175.70374943358064 -36.65735136109983, -174.8628502149247 -38.15045307410272 M-177.177855203388 -34.039927297411445 C-176.65660818712306 -34.965454156773724, -176.13536117085812 -35.890981016136, -174.8628502149247 -38.15045307410272 M-174.8628502149247 -38.15045307410272 C-174.14758019120882 -39.24929990742497, -173.43231016749294 -40.34814674074721, -172.2892393617447 -42.104210455865925 M-174.8628502149247 -38.15045307410272 C-173.87867364874555 -39.66241256816575, -172.89449708256643 -41.17437206222877, -172.2892393617447 -42.104210455865925 M-172.2892393617447 -42.104210455865925 C-171.5765621925292 -43.05913293638895, -170.86388502331366 -44.01405541691198, -169.4675981628816 -45.88495260554116 M-172.2892393617447 -42.104210455865925 C-171.6257750477535 -42.99319219377171, -170.9623107337623 -43.8821739316775, -169.4675981628816 -45.88495260554116 M-169.4675981628816 -45.88495260554116 C-168.80886064175866 -46.65874318107897, -168.1501231206357 -47.432533756616785, -166.40952134726155 -49.47714364266876 M-169.4675981628816 -45.88495260554116 C-168.26474689043806 -47.29789015432967, -167.06189561799454 -48.71082770311818, -166.40952134726155 -49.47714364266876 M-166.40952134726155 -49.47714364266876 C-165.48601636089845 -50.43073836225811, -164.56251137453535 -51.384333081847466, -163.12757520847538 -52.8660224837546 M-166.40952134726155 -49.47714364266876 C-165.41548499455274 -50.503567788742934, -164.4214486418439 -51.52999193481712, -163.12757520847538 -52.8660224837546 M-163.12757520847538 -52.8660224837546 C-161.91879106366534 -53.96380826139521, -160.7100069188553 -55.06159403903581, -159.6352459671826 -56.037663498728435 M-163.12757520847538 -52.8660224837546 C-162.37128904901263 -53.55286156354342, -161.61500288954986 -54.23970064333225, -159.6352459671826 -56.037663498728435 M-159.6352459671826 -56.037663498728435 C-158.56391709432194 -56.892019765576215, -157.49258822146126 -57.746376032423996, -155.94688435333796 -58.97903373434492 M-159.6352459671826 -56.037663498728435 C-158.65785002710768 -56.8171107513399, -157.68045408703276 -57.596558003951365, -155.94688435333796 -58.97903373434492 M-155.94688435333796 -58.97903373434492 C-154.96634171874578 -59.66301782922989, -153.98579908415363 -60.34700192411486, -152.07764663596384 -61.67804646938387 M-155.94688435333796 -58.97903373434492 C-154.58821700560526 -59.9267812603617, -153.22954965787258 -60.874528786378484, -152.07764663596384 -61.67804646938387 M-152.07764663596384 -61.67804646938387 C-150.90205725442974 -62.39069566099989, -149.72646787289563 -63.10334485261591, -148.0434323427898 -64.12361088158067 M-152.07764663596384 -61.67804646938387 C-151.1598326545496 -62.23443069859083, -150.24201867313536 -62.79081492779778, -148.0434323427898 -64.12361088158067 M-148.0434323427898 -64.12361088158067 C-146.58224687168845 -64.8859104059203, -145.12106140058708 -65.64820993025992, -143.86081892568282 -66.30567762219366 M-148.0434323427898 -64.12361088158067 C-146.43819323618342 -64.96106309529252, -144.83295412957705 -65.79851530900434, -143.86081892568282 -66.30567762219366 M-143.86081892568282 -66.30567762219366 C-142.87168561275698 -66.74353759822871, -141.8825522998311 -67.18139757426376, -139.54699364034147 -68.21528011093378 M-143.86081892568282 -66.30567762219366 C-142.25340501293232 -67.01723207912872, -140.64599110018185 -67.7287865360638, -139.54699364034147 -68.21528011093378 M-139.54699364034147 -68.21528011093378 C-138.57913854391856 -68.57145973317184, -137.61128344749568 -68.92763935540991, -135.11968292017588 -69.84457138156638 M-139.54699364034147 -68.21528011093378 C-137.94519959147866 -68.80475512773717, -136.34340554261584 -69.39423014454056, -135.11968292017588 -69.84457138156638 M-135.11968292017588 -69.84457138156638 C-133.99173328050728 -70.17934091389155, -132.86378364083865 -70.51411044621672, -130.5970795345904 -71.18685632677855 M-135.11968292017588 -69.84457138156638 C-134.08300484568815 -70.15225199244009, -133.04632677120043 -70.45993260331379, -130.5970795345904 -71.18685632677855 M-130.5970795345904 -71.18685632677855 C-129.22437917154184 -71.50016622693737, -127.85167880849332 -71.8134761270962, -125.99776783099165 -72.23661920981121 M-130.5970795345904 -71.18685632677855 C-129.63417556229277 -71.40663287491984, -128.67127158999511 -71.62640942306113, -125.99776783099165 -72.23661920981121 M-125.99776783099165 -72.23661920981121 C-124.29039268939067 -72.51265438181328, -122.58301754778971 -72.78868955381535, -121.34064736771916 -72.98954632980451 M-125.99776783099165 -72.23661920981121 C-124.46605415818853 -72.48425479781308, -122.9343404853854 -72.73189038581495, -121.34064736771916 -72.98954632980451 M-121.34064736771916 -72.98954632980451 C-119.79136094752612 -73.13900412747101, -118.24207452733307 -73.2884619251375, -116.6448552517056 -73.44254374772007 M-121.34064736771916 -72.98954632980451 C-119.97712878879774 -73.12108332724205, -118.61361020987633 -73.25262032467958, -116.6448552517056 -73.44254374772007 M-116.6448552517056 -73.44254374772007 C-115.18857662370154 -73.48924376884577, -113.7322979956975 -73.53594378997145, -111.92968750000003 -73.59375 M-116.6448552517056 -73.44254374772007 C-115.43857828467772 -73.48122670217697, -114.23230131764983 -73.51990965663387, -111.92968750000003 -73.59375 M-111.92968750000003 -73.59375 C-111.92968750000001 -73.59375, -111.92968750000001 -73.59375, -111.9296875 -73.59375 M-111.92968750000003 -73.59375 C-111.92968750000003 -73.59375, -111.92968750000001 -73.59375, -111.9296875 -73.59375" stroke="#30363d" stroke-width="1" fill="none" stroke-dasharray="0 0" style="fill:#161b22 !important;stroke:#30363d !important;stroke-width:1px !important"/></g><g class="label" style="color:#e6edf3 !important" transform="translate(-147.125, -61.59375)"><rect/><foreignObject width="294.25" height="123.1875"><div style="color: rgb(230, 237, 243) !important; display: table; white-space: break-spaces; line-height: 1.5; max-width: 200px; text-align: center; width: 200px;" xmlns="http://www.w3.org/1999/xhtml"><span style="color:#e6edf3 !important" class="nodeLabel"><p></p><div style="text-align:center;line-height:1.8;padding:4px 12px"><b style="letter-spacing:1.5px">INPUT · CLAUDE CODE SESSION</b><br /><em style="color:&amp;8b949e;font-size:13pxfont-weight:400">SessionStart · PostToolUse(Edit|Write) · PreToolUse(Bash) · PreCompact</em></div><p></p></span></div></foreignObject></g></g><g class="node default peers" id="my-svg-flowchart-Peers-16" data-look="neo" transform="translate(1229.4856262207031, 1050.671875)"><rect class="basic label-container" style="fill:#161b22 !important;stroke:#1e3a5f !important;stroke-width:1px !important" x="-496" y="-46.796875" width="992" height="93.59375"/><g class="label" style="color:#e6edf3 !important" transform="translate(-480, -34.796875)"><rect/><foreignObject width="960" height="69.59375"><div style="color: rgb(230, 237, 243) !important; display: table; white-space: break-spaces; line-height: 1.5; max-width: 200px; text-align: center; width: 200px;" xmlns="http://www.w3.org/1999/xhtml"><span style="color:#e6edf3 !important" class="nodeLabel"><p></p><div style="text-align:center;min-width:940px;line-height:1.8;padding:6px 10px"><b style="letter-spacing:1.5px;color:#79c0ff">PEER PLUGINS REACT</b><br /><em style="color:&amp;8b949e;font-size:13px;font-weight:400">Reaper blocks push on secret detection  ·  Nook attributes PR spend</em></div><p></p></span></div></foreignObject></g></g></g></g></g><defs><filter id="my-svg-drop-shadow" height="130%" width="130%"><feDropShadow dx="4" dy="4" stdDeviation="0" flood-opacity="0.06" flood-color="#FFFFFF"/></filter></defs><defs><filter id="my-svg-drop-shadow-small" height="150%" width="150%"><feDropShadow dx="2" dy="2" stdDeviation="0" flood-opacity="0.06" flood-color="#FFFFFF"/></filter></defs><linearGradient id="my-svg-gradient" gradientUnits="objectBoundingBox" x1="0%" y1="0%" x2="100%" y2="0%"><stop offset="0%" stop-color="#cccccc" stop-opacity="1"/><stop offset="100%" stop-color="hsl(180, 0%, 18.3529411765%)" stop-opacity="1"/></linearGradient><text text-anchor="middle" x="1213.1236572265625" y="-25" class="flowchartTitleText">Weaver nine-subplugin architecture</text></svg>