<svg id="my-svg" width="100%" xmlns="http://www.w3.org/2000/svg" xmlns:xlink="http://www.w3.org/1999/xlink" class="flowchart" style="max-width: 2421.16px; background-color: #0a1628;" viewBox="0 -52 2421.1591796875 1128.671875" role="graphics-document document" aria-roledescription="flowchart-v2"><defs><pattern id="bp-grid" x="0" y="-52" width="40" height="40" patternUnits="userSpaceOnUse"><path d="M 10 0 L 10 40 M 20 0 L 20 40 M 30 0 L 30 40 M 0 10 L 40 10 M 0 20 L 40 20 M 0 30 L 40 30" fill="none" stroke="#16304f" stroke-width="0.35" opacity="0.35"/><path d="M 40 0 L 0 0 L 0 40" fill="none" stroke="#1e3a5f" stroke-width="0.75" opacity="0.55"/></pattern></defs><rect x="0" y="-52" width="2421.1591796875" height="1128.671875" fill="#0a1628"/><rect x="0" y="-52" width="2421.1591796875" height="1128.671875" fill="url(#bp-grid)"/><style>#my-svg{font-family:-apple-system,BlinkMacSystemFont,Segoe UI,Helvetica,Arial,sans-serif;font-size:16px;fill:#ccc;}@keyframes edge-animation-frame{from{stroke-dashoffset:0;}}@keyframes dash{to{stroke-dashoffset:0;}}#my-svg .edge-animation-slow{stroke-dasharray:9,5!important;stroke-dashoffset:900;animation:dash 50s linear infinite;stroke-linecap:round;}#my-svg .edge-animation-fast{stroke-dasharray:9,5!important;stroke-dashoffset:900;animation:dash 20s linear infinite;stroke-linecap:round;}#my-svg .error-icon{fill:#a44141;}#my-svg .error-text{fill:#ddd;stroke:#ddd;}#my-svg .edge-thickness-normal{stroke-width:1px;}#my-svg .edge-thickness-thick{stroke-width:3.5px;}#my-svg .edge-pattern-solid{stroke-dasharray:0;}#my-svg .edge-thickness-invisible{stroke-width:0;fill:none;}#my-svg .edge-pattern-dashed{stroke-dasharray:3;}#my-svg .edge-pattern-dotted{stroke-dasharray:2;}#my-svg .marker{fill:#8b949e;stroke:#8b949e;}#my-svg .marker.cross{stroke:#8b949e;}#my-svg svg{font-family:-apple-system,BlinkMacSystemFont,Segoe UI,Helvetica,Arial,sans-serif;font-size:16px;}#my-svg p{margin:0;}#my-svg .label{font-family:-apple-system,BlinkMacSystemFont,Segoe UI,Helvetica,Arial,sans-serif;color:#ccc;}#my-svg .cluster-label text{fill:#F9FFFE;}#my-svg .cluster-label span{color:#F9FFFE;}#my-svg .cluster-label span p{background-color:transparent;}#my-svg .label text,#my-svg span{fill:#ccc;color:#ccc;}#my-svg .node rect,#my-svg .node circle,#my-svg .node ellipse,#my-svg .node polygon,#my-svg .node path{fill:#1f2020;stroke:#ccc;stroke-width:1px;}#my-svg .rough-node .label text,#my-svg .node .label text,#my-svg .image-shape .label,#my-svg .icon-shape .label{text-anchor:middle;}#my-svg .node .katex path{fill:#000;stroke:#000;stroke-width:1px;}#my-svg .rough-node .label,#my-svg .node .label,#my-svg .image-shape .label,#my-svg .icon-shape .label{text-align:center;}#my-svg .node.clickable{cursor:pointer;}#my-svg .root .anchor path{fill:#8b949e!important;stroke-width:0;stroke:#8b949e;}#my-svg .arrowheadPath{fill:lightgrey;}#my-svg .edgePath .path{stroke:#8b949e;stroke-width:1px;}#my-svg .flowchart-link{stroke:#8b949e;fill:none;}#my-svg .edgeLabel{background-color:hsl(0, 0%, 34.4117647059%);text-align:center;}#my-svg .edgeLabel p{background-color:hsl(0, 0%, 34.4117647059%);}#my-svg .edgeLabel rect{opacity:0.5;background-color:hsl(0, 0%, 34.4117647059%);fill:hsl(0, 0%, 34.4117647059%);}#my-svg .labelBkg{background-color:rgba(87.75, 87.75, 87.75, 0.5);}#my-svg .cluster rect{fill:hsl(180, 1.5873015873%, 28.3529411765%);stroke:rgba(255, 255, 255, 0.25);stroke-width:1px;}#my-svg .cluster text{fill:#F9FFFE;}#my-svg .cluster span{color:#F9FFFE;}#my-svg div.mermaidTooltip{position:absolute;text-align:center;max-width:200px;padding:2px;font-family:-apple-system,BlinkMacSystemFont,Segoe UI,Helvetica,Arial,sans-serif;font-size:12px;background:#0d1117;border:1px solid rgba(255, 255, 255, 0.25);border-radius:2px;pointer-events:none;z-index:100;}#my-svg .flowchartTitleText{text-anchor:middle;font-size:18px;fill:#ccc;}#my-svg rect.text{fill:none;stroke-width:0;}#my-svg .icon-shape,#my-svg .image-shape{background-color:hsl(0, 0%, 34.4117647059%);text-align:center;}#my-svg .icon-shape p,#my-svg .image-shape p{background-color:hsl(0, 0%, 34.4117647059%);padding:2px;}#my-svg .icon-shape .label rect,#my-svg .image-shape .label rect{opacity:0.5;background-color:hsl(0, 0%, 34.4117647059%);fill:hsl(0, 0%, 34.4117647059%);}#my-svg .label-icon{display:inline-block;height:1em;overflow:visible;vertical-align:-0.125em;}#my-svg .node .label-icon path{fill:currentColor;stroke:revert;stroke-width:revert;}#my-svg .node .neo-node{stroke:#ccc;}#my-svg [data-look="neo"].node rect,#my-svg [data-look="neo"].cluster rect,#my-svg [data-look="neo"].node polygon{stroke:url(#my-svg-gradient);filter:drop-shadow( 1px 2px 2px rgba(185,185,185,1));}#my-svg [data-look="neo"].node path{stroke:url(#my-svg-gradient);stroke-width:1px;}#my-svg [data-look="neo"].node .outer-path{filter:drop-shadow( 1px 2px 2px rgba(185,185,185,1));}#my-svg [data-look="neo"].node .neo-line path{stroke:#ccc;filter:none;}#my-svg [data-look="neo"].node circle{stroke:url(#my-svg-gradient);filter:drop-shadow( 1px 2px 2px rgba(185,185,185,1));}#my-svg [data-look="neo"].node circle .state-start{fill:#000000;}#my-svg [data-look="neo"].icon-shape .icon{fill:url(#my-svg-gradient);filter:drop-shadow( 1px 2px 2px rgba(185,185,185,1));}#my-svg [data-look="neo"].icon-shape .icon-neo path{stroke:url(#my-svg-gradient);filter:drop-shadow( 1px 2px 2px rgba(185,185,185,1));}#my-svg :root{--mermaid-font-family:"trebuchet ms",verdana,arial,sans-serif;}#my-svg .titleBlock&gt;*{fill:#0d1117!important;stroke:#1e3a5f!important;stroke-width:1px!important;color:#e6edf3!important;}#my-svg .titleBlock span{fill:#0d1117!important;stroke:#1e3a5f!important;stroke-width:1px!important;color:#e6edf3!important;}#my-svg .titleBlock tspan{fill:#e6edf3!important;}#my-svg .session&gt;*{fill:#161b22!important;stroke:#30363d!important;stroke-width:1px!important;color:#e6edf3!important;}#my-svg .session span{fill:#161b22!important;stroke:#30363d!important;stroke-width:1px!important;color:#e6edf3!important;}#my-svg .session tspan{fill:#e6edf3!important;}#my-svg .peers&gt;*{fill:#161b22!important;stroke:#1e3a5f!important;stroke-width:1px!important;color:#e6edf3!important;}#my-svg .peers span{fill:#161b22!important;stroke:#1e3a5f!important;stroke-width:1px!important;color:#e6edf3!important;}#my-svg .peers tspan{fill:#e6edf3!important;}</style><g><marker id="my-svg_flowchart-v2-pointEnd" class="marker flowchart-v2" viewBox="0 0 10 10" refX="5" refY="5" markerUnits="userSpaceOnUse" markerWidth="8" markerHeight="8" orient="auto"><path d="M 0 0 L 10 5 L 0 10 z" class="arrowMarkerPath" style="stroke-width: 1; stroke-dasharray: 1, 0;"/></marker><marker id="my-svg_flowchart-v2-pointStart" class="marker flowchart-v2" viewBox="0 0 10 10" refX="4.5" refY="5" markerUnits="userSpaceOnUse" markerWidth="8" markerHeight="8" orient="auto"><path d="M 0 5 L 10 10 L 10 0 z" class="arrowMarkerPath" style="stroke-width: 1; stroke-dasharray: 1, 0;"/></marker><marker id="my-svg_flowchart-v2-pointEnd-margin" class="marker flowchart-v2" viewBox="0 0 11.5 14" refX="11.5" refY="7" markerUnits="userSpaceOnUse" markerWidth="10.5" markerHeight="14" orient="auto"><path d="M 0 0 L 11.5 7 L 0 14 z" class="arrowMarkerPath" style="stroke-width: 0; stroke-dasharray: 1, 0;"/></marker><marker id="my-svg_flowchart-v2-pointStart-margin" class="marker flowchart-v2" viewBox="0 0 11.5 14" refX="1" refY="7" markerUnits="userSpaceOnUse" markerWidth="11.5" markerHeight="14" orient="auto"><polygon points="0,7 11.5,14 11.5,0" class="arrowMarkerPath" style="stroke-width: 0; stroke-dasharray: 1, 0;"/></marker><marker id="my-svg_flowchart-v2-circleEnd" class="marker flowchart-v2" viewBox="0 0 10 10" refX="11" refY="5" markerUnits="userSpaceOnUse" markerWidth="11" markerHeight="11" orient="auto"><circle cx="5" cy="5" r="5" class="arrowMarkerPath" style="stroke-width: 1; stroke-dasharray: 1, 0;"/></marker><marker id="my-svg_flowchart-v2-circleStart" class="marker flowchart-v2" viewBox="0 0 10 10" refX="-1" refY="5" markerUnits="userSpaceOnUse" markerWidth="11" markerHeight="11" orient="auto"><circle cx="5" cy="5" r="5" class="arrowMarkerPath" style="stroke-width: 1; stroke-dasharray: 1, 0;"/></marker><marker id="my-svg_flowchart-v2-circleEnd-margin" class="marker flowchart-v2" viewBox="0 0 10 10" refY="5" refX="12.25" markerUnits="userSpaceOnUse" markerWidth="14" markerHeight="14" orient="auto"><circle cx="5" cy="5" r="5" class="arrowMarkerPath" style="stroke-width: 0; stroke-dasharray: 1, 0;"/></marker><marker id="my-svg_flowchart-v2-circleStart-margin" class="marker flowchart-v2" viewBox="0 0 10 10" refX="-2" refY="5" markerUnits="userSpaceOnUse" markerWidth="14" markerHeight="14" orient="auto"><circle cx="5" cy="5" r="5" class="arrowMarkerPath" style="stroke-width: 0; stroke-dasharray: 1, 0;"/></marker><marker id="my-svg_flowchart-v2-crossEnd" class="marker cross flowchart-v2" viewBox="0 0 11 11" refX="12" refY="5.2" markerUnits="userSpaceOnUse" markerWidth="11" markerHeight="11" orient="auto"><path d="M 1,1 l 9,9 M 10,1 l -9,9" class="arrowMarkerPath" style="stroke-width: 2; stroke-dasharray: 1, 0;"/></marker><marker id="my-svg_flowchart-v2-crossStart" class="marker cross flowchart-v2" viewBox="0 0 11 11" refX="-1" refY="5.2" markerUnits="userSpaceOnUse" markerWidth="11" markerHeight="11" orient="auto"><path d="M 1,1 l 9,9 M 10,1 l -9,9" class="arrowMarkerPath" style="stroke-width: 2; stroke-dasharray: 1, 0;"/></marker><marker id="my-svg_flowchart-v2-crossEnd-margin" class="marker cross flowchart-v2" viewBox="0 0 15 15" refX="17.7" refY="7.5" markerUnits="userSpaceOnUse" markerWidth="12" markerHeight="12" orient="auto"><path d="M 1,1 L 14,14 M 1,14 L 14,1" class="arrowMarkerPath" style="stroke-width: 2.5;"/></marker><marker id="my-svg_flowchart-v2-crossStart-margin" class="marker cross flowchart-v2" viewBox="0 0 15 15" refX="-3.5" refY="7.5" markerUnits="userSpaceOnUse" markerWidth="12" markerHeight="12" orient="auto"><path d="M 1,1 L 14,14 M 1,14 L 14,1" class="arrowMarkerPath" style="stroke-width: 2.5; stroke-dasharray: 1, 0;"/></marker><g class="root"><g class="clusters"/><g class="edgePaths"><path d="M1230.698,142.391L1230.698,146.891C1230.698,151.391,1230.698,160.391,1230.698,168.724C1230.698,177.057,1230.698,184.724,1230.698,188.557L1230.698,192.391" id="my-svg-L_Session_Observe_0" class="edge-thickness-normal edge-pattern-solid edge-thickness-normal edge-pattern-solid flowchart-link" style="stroke-dasharray: 0 0 46 4; stroke-dashoffset: 0;;" data-edge="true" data-et="edge" data-id="L_Session_Observe_0" data-points="W3sieCI6MTIzMC42OTgxMDQ4NTgzOTg0LCJ5IjoxNDIuMzkwNjI1fSx7IngiOjEyMzAuNjk4MTA0ODU4Mzk4NCwieSI6MTY5LjM5MDYyNX0seyJ4IjoxMjMwLjY5ODEwNDg1ODM5ODQsInkiOjE5Ni4zOTA2MjV9XQ==" data-look="neo" marker-end="url(#my-svg_flowchart-v2-pointEnd-margin)"/><path d="M773.677,401.953L753.667,406.453C733.658,410.953,693.639,419.953,673.629,428.286C653.62,436.62,653.62,444.286,653.62,448.12L653.62,451.953" id="my-svg-L_Observe_Commit_0" class="edge-thickness-normal edge-pattern-solid edge-thickness-normal edge-pattern-solid flowchart-link" style="stroke-dasharray: 0 0 133.40040588378906 4; stroke-dashoffset: 0;;" data-edge="true" data-et="edge" data-id="L_Observe_Commit_0" data-points="W3sieCI6NzczLjY3NjY4NTg1NDA2NDIsInkiOjQwMS45NTMxMjV9LHsieCI6NjUzLjYxOTk3OTg1ODM5ODQsInkiOjQyOC45NTMxMjV9LHsieCI6NjUzLjYxOTk3OTg1ODM5ODQsInkiOjQ1NS45NTMxMjV9XQ==" data-look="neo" marker-end="url(#my-svg_flowchart-v2-pointEnd-margin)"/><path d="M1687.72,401.953L1707.729,406.453C1727.738,410.953,1767.757,419.953,1787.767,428.286C1807.776,436.62,1807.776,444.286,1807.776,448.12L1807.776,451.953" id="my-svg-L_Observe_Guard_0" class="edge-thickness-normal edge-pattern-solid edge-thickness-normal edge-pattern-solid flowchart-link" style="stroke-dasharray: 0 0 133.3994903564453 4; stroke-dashoffset: 0;;" data-edge="true" data-et="edge" data-id="L_Observe_Guard_0" data-points="W3sieCI6MTY4Ny43MTk1MjM4NjI3MzI4LCJ5Ijo0MDEuOTUzMTI1fSx7IngiOjE4MDcuNzc2MjI5ODU4Mzk4NCwieSI6NDI4Ljk1MzEyNX0seyJ4IjoxODA3Ljc3NjIyOTg1ODM5ODQsInkiOjQ1NS45NTMxMjV9XQ==" data-look="neo" marker-end="url(#my-svg_flowchart-v2-pointEnd-margin)"/><path d="M653.62,661.516L653.62,666.016C653.62,670.516,653.62,679.516,672.979,688.369C692.338,697.223,731.056,705.931,750.415,710.284L769.774,714.638" id="my-svg-L_Commit_Bus_0" class="edge-thickness-normal edge-pattern-solid edge-thickness-normal edge-pattern-solid flowchart-link" style="stroke-dasharray: 0 0 132.45465087890625 4; stroke-dashoffset: 0;;" data-edge="true" data-et="edge" data-id="L_Commit_Bus_0" data-points="W3sieCI6NjUzLjYxOTk3OTg1ODM5ODQsInkiOjY2MS41MTU2MjV9LHsieCI6NjUzLjYxOTk3OTg1ODM5ODQsInkiOjY4OC41MTU2MjV9LHsieCI6NzczLjY3NjY4NTg1NDA2NDIsInkiOjcxNS41MTU2MjV9XQ==" data-look="neo" marker-end="url(#my-svg_flowchart-v2-pointEnd-margin)"/><path d="M1807.776,661.516L1807.776,666.016C1807.776,670.516,1807.776,679.516,1788.417,688.369C1769.058,697.223,1730.34,705.931,1710.981,710.284L1691.622,714.638" id="my-svg-L_Guard_Bus_0" class="edge-thickness-normal edge-pattern-solid edge-thickness-normal edge-pattern-solid flowchart-link" style="stroke-dasharray: 0 0 132.4547882080078 4; stroke-dashoffset: 0;;" data-edge="true" data-et="edge" data-id="L_Guard_Bus_0" data-points="W3sieCI6MTgwNy43NzYyMjk4NTgzOTg0LCJ5Ijo2NjEuNTE1NjI1fSx7IngiOjE4MDcuNzc2MjI5ODU4Mzk4NCwieSI6Njg4LjUxNTYyNX0seyJ4IjoxNjg3LjcxOTUyMzg2MjczMjgsInkiOjcxNS41MTU2MjV9XQ==" data-look="neo" marker-end="url(#my-svg_flowchart-v2-pointEnd-margin)"/><path d="M1230.698,921.078L1230.698,925.578C1230.698,930.078,1230.698,939.078,1230.698,947.411C1230.698,955.745,1230.698,963.411,1230.698,967.245L1230.698,971.078" id="my-svg-L_Bus_Peers_0" class="edge-thickness-normal edge-pattern-solid edge-thickness-normal edge-pattern-solid flowchart-link" style="stroke-dasharray: 0 0 46 4; stroke-dashoffset: 0;;" data-edge="true" data-et="edge" data-id="L_Bus_Peers_0" data-points="W3sieCI6MTIzMC42OTgxMDQ4NTgzOTg0LCJ5Ijo5MjEuMDc4MTI1fSx7IngiOjEyMzAuNjk4MTA0ODU4Mzk4NCwieSI6OTQ4LjA3ODEyNX0seyJ4IjoxMjMwLjY5ODEwNDg1ODM5ODQsInkiOjk3NS4wNzgxMjV9XQ==" data-look="neo" marker-end="url(#my-svg_flowchart-v2-pointEnd-margin)"/></g><g class="edgeLabels"><g class="edgeLabel"><g class="label" data-id="L_Session_Observe_0" transform="translate(0, 0)"><foreignObject width="0" height="0"><div xmlns="http://www.w3.org/1999/xhtml" class="labelBkg" style="display: table-cell; white-space: nowrap; line-height: 1.5; max-width: 200px; text-align: center;"><span class="edgeLabel"></span></div></foreignObject></g></g><g class="edgeLabel"><g class="label" data-id="L_Observe_Commit_0" transform="translate(0, 0)"><foreignObject width="0" height="0"><div xmlns="http://www.w3.org/1999/xhtml" class="labelBkg" style="display: table-cell; white-space: nowrap; line-height: 1.5; max-width: 200px; text-align: center;"><span class="edgeLabel"></span></div></foreignObject></g></g><g class="edgeLabel"><g class="label" data-id="L_Observe_Guard_0" transform="translate(0, 0)"><foreignObject width="0" height="0"><div xmlns="http://www.w3.org/1999/xhtml" class="labelBkg" style="display: table-cell; white-space: nowrap; line-height: 1.5; max-width: 200px; text-align: center;"><span class="edgeLabel"></span></div></foreignObject></g></g><g class="edgeLabel"><g class="label" data-id="L_Commit_Bus_0" transform="translate(0, 0)"><foreignObject width="0" height="0"><div xmlns="http://www.w3.org/1999/xhtml" class="labelBkg" style="display: table-cell; white-space: nowrap; line-height: 1.5; max-width: 200px; text-align: center;"><span class="edgeLabel"></span></div></foreignObject></g></g><g class="edgeLabel"><g class="label" data-id="L_Guard_Bus_0" transform="translate(0, 0)"><foreignObject width="0" height="0"><div xmlns="http://www.w3.org/1999/xhtml" class="labelBkg" style="display: table-cell; white-space: nowrap; line-height: 1.5; max-width: 200px; text-align: center;"><span class="edgeLabel"></span></div></foreignObject></g></g><g class="edgeLabel"><g class="label" data-id="L_Bus_Peers_0" transform="translate(0, 0)"><foreignObject width="0" height="0"><div xmlns="http://www.w3.org/1999/xhtml" class="labelBkg" style="display: table-cell; white-space: nowrap; line-height: 1.5; max-width: 200px; text-align: center;"><span class="edgeLabel"></span></div></foreignObject></g></g></g><g class="nodes"><g class="root" transform="translate(726.0340423583984, 723.515625)"><g class="clusters"><g class="cluster" id="my-svg-Bus" data-look="neo"><rect style="" x="8" y="-8" width="993.328125" height="205.5625"/><g class="cluster-label" transform="translate(34.6640625, 6)"><foreignObject width="940" height="54"><div xmlns="http://www.w3.org/1999/xhtml" style="display: table-cell; white-space: nowrap; line-height: 1.5;"><span class="nodeLabel"><p></p><div style="text-align:center;min-width:940px;line-height:2"><div><span style="font-family:ui-monospace,monospace;color:&amp;8b949e;font-size:11px;letter-spacing:3px">OUTPUT · ENCHANTED-MCP BUS</span>  ·  <b style="letter-spacing:2px">AUTO-ORCHESTRATION EVENTS</b></div><div style="color:&amp;6e7681;font-size:11px;font-family:ui-monospace,monospace;letter-spacing:1.2px">sylph publishes · peers subscribe · silent by default, loud when risky</div></div><p></p></span></div></foreignObject></g></g></g><g class="edgePaths"><path d="M220.984,110.781L227.568,110.781C234.151,110.781,247.318,110.781,259.818,110.781C272.318,110.781,284.151,110.781,290.068,110.781L295.984,110.781" id="my-svg-L_evt1_evt2_0" class="edge-thickness-normal edge-pattern-solid edge-thickness-normal edge-pattern-solid flowchart-link" style="stroke-dasharray: 0 0 71.00001525878906 4; stroke-dashoffset: 0;;" data-edge="true" data-et="edge" data-id="L_evt1_evt2_0" data-points="W3sieCI6MjIwLjk4NDM3NSwieSI6MTEwLjc4MTI1fSx7IngiOjI2MC40ODQzNzUsInkiOjExMC43ODEyNX0seyJ4IjoyOTkuOTg0Mzc1LCJ5IjoxMTAuNzgxMjV9XQ==" data-look="neo" marker-end="url(#my-svg_flowchart-v2-pointEnd-margin)"/><path d="M461.75,110.781L468.333,110.781C474.917,110.781,488.083,110.781,500.583,110.781C513.083,110.781,524.917,110.781,530.833,110.781L536.75,110.781" id="my-svg-L_evt2_evt3_0" class="edge-thickness-normal edge-pattern-solid edge-thickness-normal edge-pattern-solid flowchart-link" style="stroke-dasharray: 0 0 71 4; stroke-dashoffset: 0;;" data-edge="true" data-et="edge" data-id="L_evt2_evt3_0" data-points="W3sieCI6NDYxLjc1LCJ5IjoxMTAuNzgxMjV9LHsieCI6NTAxLjI1LCJ5IjoxMTAuNzgxMjV9LHsieCI6NTQwLjc1LCJ5IjoxMTAuNzgxMjV9XQ==" data-look="neo" marker-end="url(#my-svg_flowchart-v2-pointEnd-margin)"/><path d="M721.688,110.781L728.271,110.781C734.854,110.781,748.021,110.781,760.521,110.781C773.021,110.781,784.854,110.781,790.771,110.781L796.688,110.781" id="my-svg-L_evt3_evt4_0" class="edge-thickness-normal edge-pattern-solid edge-thickness-normal edge-pattern-solid flowchart-link" style="stroke-dasharray: 0 0 71 4; stroke-dashoffset: 0;;" data-edge="true" data-et="edge" data-id="L_evt3_evt4_0" data-points="W3sieCI6NzIxLjY4NzUsInkiOjExMC43ODEyNX0seyJ4Ijo3NjEuMTg3NSwieSI6MTEwLjc4MTI1fSx7IngiOjgwMC42ODc1LCJ5IjoxMTAuNzgxMjV9XQ==" data-look="neo" marker-end="url(#my-svg_flowchart-v2-pointEnd-margin)"/></g><g class="edgeLabels"><g class="edgeLabel"><g class="label" data-id="L_evt1_evt2_0" transform="translate(0, 0)"><foreignObject width="0" height="0"><div xmlns="http://www.w3.org/1999/xhtml" class="labelBkg" style="display: table-cell; white-space: nowrap; line-height: 1.5; max-width: 200px; text-align: center;"><span class="edgeLabel"></span></div></foreignObject></g></g><g class="edgeLabel"><g class="label" data-id="L_evt2_evt3_0" transform="translate(0, 0)"><foreignObject width="0" height="0"><div xmlns="http://www.w3.org/1999/xhtml" class="labelBkg" style="display: table-cell; white-space: nowrap; line-height: 1.5; max-width: 200px; text-align: center;"><span class="edgeLabel"></span></div></foreignObject></g></g><g class="edgeLabel"><g class="label" data-id="L_evt3_evt4_0" transform="translate(0, 0)"><foreignObject width="0" height="0"><div xmlns="http://www.w3.org/1999/xhtml" class="labelBkg" style="display: table-cell; white-space: nowrap; line-height: 1.5; max-width: 200px; text-align: center;"><span class="edgeLabel"></span></div></foreignObject></g></g></g><g class="nodes"><g class="node default" id="my-svg-flowchart-evt1-12" data-look="neo" transform="translate(134.2421875, 110.78125)"><rect class="basic label-container" style="" x="-86.7421875" y="-54.78125" width="173.484375" height="109.5625"/><g class="label" style="" transform="translate(-70.7421875, -42.78125)"><rect/><foreignObject width="141.484375" height="85.5625"><div xmlns="http://www.w3.org/1999/xhtml" style="display: table-cell; white-space: nowrap; line-height: 1.5; max-width: 200px; text-align: center;"><span class="nodeLabel"><p></p><div style="text-align:center;line-height:1.7;padding:2px 4px">sylph.task.<br />boundary.detected<br /><small style="color:&amp;6e7681;letter-spacing:1px">on W2 cluster close</small></div><p></p></span></div></foreignObject></g></g><g class="node default" id="my-svg-flowchart-evt2-13" data-look="neo" transform="translate(380.8671875, 110.78125)"><rect class="basic label-container" style="" x="-80.8828125" y="-54.78125" width="161.765625" height="109.5625"/><g class="label" style="" transform="translate(-64.8828125, -42.78125)"><rect/><foreignObject width="129.765625" height="85.5625"><div xmlns="http://www.w3.org/1999/xhtml" style="display: table-cell; white-space: nowrap; line-height: 1.5; max-width: 200px; text-align: center;"><span class="nodeLabel"><p></p><div style="text-align:center;line-height:1.7;padding:2px 4px">sylph.commit.<br />committed<br /><small style="color:&amp;6e7681;letter-spacing:1px">after W1 signs off</small></div><p></p></span></div></foreignObject></g></g><g class="node default" id="my-svg-flowchart-evt3-14" data-look="neo" transform="translate(631.21875, 110.78125)"><rect class="basic label-container" style="" x="-90.46875" y="-54.78125" width="180.9375" height="109.5625"/><g class="label" style="" transform="translate(-74.46875, -42.78125)"><rect/><foreignObject width="148.9375" height="85.5625"><div xmlns="http://www.w3.org/1999/xhtml" style="display: table-cell; white-space: nowrap; line-height: 1.5; max-width: 200px; text-align: center;"><span class="nodeLabel"><p></p><div style="text-align:center;line-height:1.7;padding:2px 4px">sylph.pr.<br />ready<br /><small style="color:&amp;6e7681;letter-spacing:1px">CI green + reviewers</small></div><p></p></span></div></foreignObject></g></g><g class="node default" id="my-svg-flowchart-evt4-15" data-look="neo" transform="translate(881.2578125, 110.78125)"><rect class="basic label-container" style="" x="-80.5703125" y="-54.78125" width="161.140625" height="109.5625"/><g class="label" style="" transform="translate(-64.5703125, -42.78125)"><rect/><foreignObject width="129.140625" height="85.5625"><div xmlns="http://www.w3.org/1999/xhtml" style="display: table-cell; white-space: nowrap; line-height: 1.5; max-width: 200px; text-align: center;"><span class="nodeLabel"><p></p><div style="text-align:center;line-height:1.7;padding:2px 4px">sylph.destructive.<br />detected<br /><small style="color:&amp;6e7681;letter-spacing:1px">gate intercepts</small></div><p></p></span></div></foreignObject></g></g></g></g><g class="root" transform="translate(1314.5731048583984, 463.953125)"><g class="clusters"><g class="cluster" id="my-svg-Guard" data-look="neo"><rect style="" x="-112.1796875" y="-8" width="1210.765625" height="205.5625"/><g class="cluster-label" transform="translate(-108.1796875, 6)"><foreignObject width="1202.765625" height="54"><div xmlns="http://www.w3.org/1999/xhtml" style="display: table-cell; white-space: nowrap; line-height: 1.5;"><span class="nodeLabel"><p></p><div style="text-align:center;min-width:940px;line-height:2"><div><span style="font-family:ui-monospace,monospace;color:&amp;8b949e;font-size:11px;letter-spacing:3px">SUB-PLUGINS 05 · 06 · 07 · 08</span>  ·  <b style="letter-spacing:2px">SYLPH-GATE  ·  CAPABILITY-MEMORY  ·  CI-READER  ·  SYLPH-LEARNING</b>  ·  <span style="color:&amp;bc8cff;letter-spacing:1px">gate + registry + CI + W5</span></div><div style="color:&amp;6e7681;font-size:11px;font-family:ui-monospace,monospace;letter-spacing:1.2px">destructive-op decision-gate  ·  10-host capability registry  ·  8-CI read-only status  ·  Gauss Learning (W5)</div></div><p></p></span></div></foreignObject></g></g></g><g class="edgePaths"><path d="M256.234,110.781L262.818,110.781C269.401,110.781,282.568,110.781,295.068,110.781C307.568,110.781,319.401,110.781,325.318,110.781L331.234,110.781" id="my-svg-L_gate_reg_0" class="edge-thickness-normal edge-pattern-solid edge-thickness-normal edge-pattern-solid flowchart-link" style="stroke-dasharray: 0 0 71 4; stroke-dashoffset: 0;;" data-edge="true" data-et="edge" data-id="L_gate_reg_0" data-points="W3sieCI6MjU2LjIzNDM3NSwieSI6MTEwLjc4MTI1fSx7IngiOjI5NS43MzQzNzUsInkiOjExMC43ODEyNX0seyJ4IjozMzUuMjM0Mzc1LCJ5IjoxMTAuNzgxMjV9XQ==" data-look="neo" marker-end="url(#my-svg_flowchart-v2-pointEnd-margin)"/><path d="M503.922,110.781L510.505,110.781C517.089,110.781,530.255,110.781,542.755,110.781C555.255,110.781,567.089,110.781,573.005,110.781L578.922,110.781" id="my-svg-L_reg_ci_0" class="edge-thickness-normal edge-pattern-solid edge-thickness-normal edge-pattern-solid flowchart-link" style="stroke-dasharray: 0 0 71 4; stroke-dashoffset: 0;;" data-edge="true" data-et="edge" data-id="L_reg_ci_0" data-points="W3sieCI6NTAzLjkyMTg3NSwieSI6MTEwLjc4MTI1fSx7IngiOjU0My40MjE4NzUsInkiOjExMC43ODEyNX0seyJ4Ijo1ODIuOTIxODc1LCJ5IjoxMTAuNzgxMjV9XQ==" data-look="neo" marker-end="url(#my-svg_flowchart-v2-pointEnd-margin)"/><path d="M707.609,110.781L714.193,110.781C720.776,110.781,733.943,110.781,746.443,110.781C758.943,110.781,770.776,110.781,776.693,110.781L782.609,110.781" id="my-svg-L_ci_learn_0" class="edge-thickness-normal edge-pattern-solid edge-thickness-normal edge-pattern-solid flowchart-link" style="stroke-dasharray: 0 0 71 4; stroke-dashoffset: 0;;" data-edge="true" data-et="edge" data-id="L_ci_learn_0" data-points="W3sieCI6NzA3LjYwOTM3NSwieSI6MTEwLjc4MTI1fSx7IngiOjc0Ny4xMDkzNzUsInkiOjExMC43ODEyNX0seyJ4Ijo3ODYuNjA5Mzc1LCJ5IjoxMTAuNzgxMjV9XQ==" data-look="neo" marker-end="url(#my-svg_flowchart-v2-pointEnd-margin)"/></g><g class="edgeLabels"><g class="edgeLabel"><g class="label" data-id="L_gate_reg_0" transform="translate(0, 0)"><foreignObject width="0" height="0"><div xmlns="http://www.w3.org/1999/xhtml" class="labelBkg" style="display: table-cell; white-space: nowrap; line-height: 1.5; max-width: 200px; text-align: center;"><span class="edgeLabel"></span></div></foreignObject></g></g><g class="edgeLabel"><g class="label" data-id="L_reg_ci_0" transform="translate(0, 0)"><foreignObject width="0" height="0"><div xmlns="http://www.w3.org/1999/xhtml" class="labelBkg" style="display: table-cell; white-space: nowrap; line-height: 1.5; max-width: 200px; text-align: center;"><span class="edgeLabel"></span></div></foreignObject></g></g><g class="edgeLabel"><g class="label" data-id="L_ci_learn_0" transform="translate(0, 0)"><foreignObject width="0" height="0"><div xmlns="http://www.w3.org/1999/xhtml" class="labelBkg" style="display: table-cell; white-space: nowrap; line-height: 1.5; max-width: 200px; text-align: center;"><span class="edgeLabel"></span></div></foreignObject></g></g></g><g class="nodes"><g class="node default" id="my-svg-flowchart-gate-8" data-look="neo" transform="translate(151.8671875, 110.78125)"><rect class="basic label-container" style="" x="-104.3671875" y="-54.78125" width="208.734375" height="109.5625"/><g class="label" style="" transform="translate(-88.3671875, -42.78125)"><rect/><foreignObject width="176.734375" height="85.5625"><div xmlns="http://www.w3.org/1999/xhtml" style="display: table-cell; white-space: nowrap; line-height: 1.5; max-width: 200px; text-align: center;"><span class="nodeLabel"><p></p><div style="text-align:center;line-height:1.7;padding:2px 4px">SYLPH<br />GATE<br /><small style="color:&amp;6e7681;letter-spacing:1px">force-push · reset --hard</small></div><p></p></span></div></foreignObject></g></g><g class="node default" id="my-svg-flowchart-reg-9" data-look="neo" transform="translate(419.578125, 110.78125)"><rect class="basic label-container" style="" x="-84.34375" y="-54.78125" width="168.6875" height="109.5625"/><g class="label" style="" transform="translate(-68.34375, -42.78125)"><rect/><foreignObject width="136.6875" height="85.5625"><div xmlns="http://www.w3.org/1999/xhtml" style="display: table-cell; white-space: nowrap; line-height: 1.5; max-width: 200px; text-align: center;"><span class="nodeLabel"><p></p><div style="text-align:center;line-height:1.7;padding:2px 4px">CAPABILITY<br />MEMORY<br /><small style="color:&amp;6e7681;letter-spacing:1px">GitHub · GitLab · …</small></div><p></p></span></div></foreignObject></g></g><g class="node default" id="my-svg-flowchart-ci-10" data-look="neo" transform="translate(645.265625, 110.78125)"><rect class="basic label-container" style="" x="-62.34375" y="-54.78125" width="124.6875" height="109.5625"/><g class="label" style="" transform="translate(-46.34375, -42.78125)"><rect/><foreignObject width="92.6875" height="85.5625"><div xmlns="http://www.w3.org/1999/xhtml" style="display: table-cell; white-space: nowrap; line-height: 1.5; max-width: 200px; text-align: center;"><span class="nodeLabel"><p></p><div style="text-align:center;line-height:1.7;padding:2px 4px">CI<br />READER<br /><small style="color:&amp;6e7681;letter-spacing:1px">8 CI systems</small></div><p></p></span></div></foreignObject></g></g><g class="node default" id="my-svg-flowchart-learn-11" data-look="neo" transform="translate(862.7578125, 110.78125)"><rect class="basic label-container" style="" x="-76.1484375" y="-54.78125" width="152.296875" height="109.5625"/><g class="label" style="" transform="translate(-60.1484375, -42.78125)"><rect/><foreignObject width="120.296875" height="85.5625"><div xmlns="http://www.w3.org/1999/xhtml" style="display: table-cell; white-space: nowrap; line-height: 1.5; max-width: 200px; text-align: center;"><span class="nodeLabel"><p></p><div style="text-align:center;line-height:1.7;padding:2px 4px">SYLPH<br />LEARNING (W5)<br /><small style="color:&amp;6e7681;letter-spacing:1px">preference EMA</small></div><p></p></span></div></foreignObject></g></g></g></g><g class="root" transform="translate(199.36997985839844, 463.953125)"><g class="clusters"><g class="cluster" id="my-svg-Commit" data-look="neo"><rect style="" x="-50.5234375" y="-8" width="1009.546875" height="205.5625"/><g class="cluster-label" transform="translate(-46.5234375, 6)"><foreignObject width="1001.546875" height="54"><div xmlns="http://www.w3.org/1999/xhtml" style="display: table-cell; white-space: nowrap; line-height: 1.5;"><span class="nodeLabel"><p></p><div style="text-align:center;min-width:940px;line-height:2"><div><span style="font-family:ui-monospace,monospace;color:&amp;8b949e;font-size:11px;letter-spacing:3px">SUB-PLUGINS 02 · 03 · 04</span>  ·  <b style="letter-spacing:2px">COMMIT-INTELLIGENCE  ·  BRANCH-WORKFLOW  ·  PR-LIFECYCLE</b>  ·  <span style="color:&amp;3fb950;letter-spacing:1px">W1 + W3 + W4</span></div><div style="color:&amp;6e7681;font-size:11px;font-family:ui-monospace,monospace;letter-spacing:1.2px">Myers-Diff classifier (W1)  ·  Workflow-Pattern classifier (W3)  ·  Path-History reviewer routing (W4)</div></div><p></p></span></div></foreignObject></g></g></g><g class="edgePaths"><path d="M285.703,110.781L292.286,110.781C298.87,110.781,312.036,110.781,324.536,110.781C337.036,110.781,348.87,110.781,354.786,110.781L360.703,110.781" id="my-svg-L_branch_draft_0" class="edge-thickness-normal edge-pattern-solid edge-thickness-normal edge-pattern-solid flowchart-link" style="stroke-dasharray: 0 0 71 4; stroke-dashoffset: 0;;" data-edge="true" data-et="edge" data-id="L_branch_draft_0" data-points="W3sieCI6Mjg1LjcwMzEyNSwieSI6MTEwLjc4MTI1fSx7IngiOjMyNS4yMDMxMjUsInkiOjExMC43ODEyNX0seyJ4IjozNjQuNzAzMTI1LCJ5IjoxMTAuNzgxMjV9XQ==" data-look="neo" marker-end="url(#my-svg_flowchart-v2-pointEnd-margin)"/><path d="M558.406,110.781L564.99,110.781C571.573,110.781,584.74,110.781,597.24,110.781C609.74,110.781,621.573,110.781,627.49,110.781L633.406,110.781" id="my-svg-L_draft_pr_0" class="edge-thickness-normal edge-pattern-solid edge-thickness-normal edge-pattern-solid flowchart-link" style="stroke-dasharray: 0 0 71 4; stroke-dashoffset: 0;;" data-edge="true" data-et="edge" data-id="L_draft_pr_0" data-points="W3sieCI6NTU4LjQwNjI1LCJ5IjoxMTAuNzgxMjV9LHsieCI6NTk3LjkwNjI1LCJ5IjoxMTAuNzgxMjV9LHsieCI6NjM3LjQwNjI1LCJ5IjoxMTAuNzgxMjV9XQ==" data-look="neo" marker-end="url(#my-svg_flowchart-v2-pointEnd-margin)"/></g><g class="edgeLabels"><g class="edgeLabel"><g class="label" data-id="L_branch_draft_0" transform="translate(0, 0)"><foreignObject width="0" height="0"><div xmlns="http://www.w3.org/1999/xhtml" class="labelBkg" style="display: table-cell; white-space: nowrap; line-height: 1.5; max-width: 200px; text-align: center;"><span class="edgeLabel"></span></div></foreignObject></g></g><g class="edgeLabel"><g class="label" data-id="L_draft_pr_0" transform="translate(0, 0)"><foreignObject width="0" height="0"><div xmlns="http://www.w3.org/1999/xhtml" class="labelBkg" style="display: table-cell; white-space: nowrap; line-height: 1.5; max-width: 200px; text-align: center;"><span class="edgeLabel"></span></div></foreignObject></g></g></g><g class="nodes"><g class="node default" id="my-svg-flowchart-branch-5" data-look="neo" transform="translate(166.6015625, 110.78125)"><rect class="basic label-container" style="" x="-119.1015625" y="-54.78125" width="238.203125" height="109.5625"/><g class="label" style="" transform="translate(-103.1015625, -42.78125)"><rect/><foreignObject width="206.203125" height="85.5625"><div xmlns="http://www.w3.org/1999/xhtml" style="display: table; white-space: break-spaces; line-height: 1.5; max-width: 200px; text-align: center; width: 200px;"><span class="nodeLabel"><p></p><div style="text-align:center;line-height:1.7;padding:2px 4px">PICK<br />BRANCH (W3)<br /><small style="color:&amp;6e7681;letter-spacing:1px">GitHub Flow · GitFlow · Trunk</small></div><p></p></span></div></foreignObject></g></g><g class="node default" id="my-svg-flowchart-draft-6" data-look="neo" transform="translate(461.5546875, 110.78125)"><rect class="basic label-container" style="" x="-96.8515625" y="-54.78125" width="193.703125" height="109.5625"/><g class="label" style="" transform="translate(-80.8515625, -42.78125)"><rect/><foreignObject width="161.703125" height="85.5625"><div xmlns="http://www.w3.org/1999/xhtml" style="display: table-cell; white-space: nowrap; line-height: 1.5; max-width: 200px; text-align: center;"><span class="nodeLabel"><p></p><div style="text-align:center;line-height:1.7;padding:2px 4px">DRAFT<br />COMMIT (W1)<br /><small style="color:&amp;6e7681;letter-spacing:1px">Conventional Commits</small></div><p></p></span></div></foreignObject></g></g><g class="node default" id="my-svg-flowchart-pr-7" data-look="neo" transform="translate(749.203125, 110.78125)"><rect class="basic label-container" style="" x="-111.796875" y="-54.78125" width="223.59375" height="109.5625"/><g class="label" style="" transform="translate(-95.796875, -42.78125)"><rect/><foreignObject width="191.59375" height="85.5625"><div xmlns="http://www.w3.org/1999/xhtml" style="display: table-cell; white-space: nowrap; line-height: 1.5; max-width: 200px; text-align: center;"><span class="nodeLabel"><p></p><div style="text-align:center;line-height:1.7;padding:2px 4px">OPEN<br />PR (W4)<br /><small style="color:&amp;6e7681;letter-spacing:1px">blame-graph reviewer rank</small></div><p></p></span></div></foreignObject></g></g></g></g><g class="root" transform="translate(797.4090423583984, 204.390625)"><g class="clusters"><g class="cluster" id="my-svg-Observe" data-look="neo"><rect style="" x="-40.7109375" y="-8" width="948" height="205.5625"/><g class="cluster-label" transform="translate(-36.7109375, 6)"><foreignObject width="940" height="54"><div xmlns="http://www.w3.org/1999/xhtml" style="display: table-cell; white-space: nowrap; line-height: 1.5;"><span class="nodeLabel"><p></p><div style="text-align:center;min-width:940px;line-height:2"><div><span style="font-family:ui-monospace,monospace;color:&amp;8b949e;font-size:11px;letter-spacing:3px">SUB-PLUGIN 01</span>  ·  <b style="letter-spacing:2px">BOUNDARY-SEGMENTER</b>  ·  <span style="color:&amp;58a6ff;letter-spacing:1px">W2 (defining)</span></div><div style="color:&amp;6e7681;font-size:11px;font-family:ui-monospace,monospace;letter-spacing:1.2px">ROLE · Jaccard-Cosine boundary clustering  ·  confidence ≥ 0.7 → autonomous  ·  &lt; 0.7 → Opus judge</div></div><p></p></span></div></foreignObject></g></g></g><g class="edgePaths"><path d="M252.5,110.781L259.083,110.781C265.667,110.781,278.833,110.781,291.333,110.781C303.833,110.781,315.667,110.781,321.583,110.781L327.5,110.781" id="my-svg-L_cluster_detect_0" class="edge-thickness-normal edge-pattern-solid edge-thickness-normal edge-pattern-solid flowchart-link" style="stroke-dasharray: 0 0 71 4; stroke-dashoffset: 0;;" data-edge="true" data-et="edge" data-id="L_cluster_detect_0" data-points="W3sieCI6MjUyLjUsInkiOjExMC43ODEyNX0seyJ4IjoyOTIsInkiOjExMC43ODEyNX0seyJ4IjozMzEuNSwieSI6MTEwLjc4MTI1fV0=" data-look="neo" marker-end="url(#my-svg_flowchart-v2-pointEnd-margin)"/><path d="M528.844,110.781L535.427,110.781C542.01,110.781,555.177,110.781,567.677,110.781C580.177,110.781,592.01,110.781,597.927,110.781L603.844,110.781" id="my-svg-L_detect_emit_0" class="edge-thickness-normal edge-pattern-solid edge-thickness-normal edge-pattern-solid flowchart-link" style="stroke-dasharray: 0 0 71 4; stroke-dashoffset: 0;;" data-edge="true" data-et="edge" data-id="L_detect_emit_0" data-points="W3sieCI6NTI4Ljg0Mzc1LCJ5IjoxMTAuNzgxMjV9LHsieCI6NTY4LjM0Mzc1LCJ5IjoxMTAuNzgxMjV9LHsieCI6NjA3Ljg0Mzc1LCJ5IjoxMTAuNzgxMjV9XQ==" data-look="neo" marker-end="url(#my-svg_flowchart-v2-pointEnd-margin)"/></g><g class="edgeLabels"><g class="edgeLabel"><g class="label" data-id="L_cluster_detect_0" transform="translate(0, 0)"><foreignObject width="0" height="0"><div xmlns="http://www.w3.org/1999/xhtml" class="labelBkg" style="display: table-cell; white-space: nowrap; line-height: 1.5; max-width: 200px; text-align: center;"><span class="edgeLabel"></span></div></foreignObject></g></g><g class="edgeLabel"><g class="label" data-id="L_detect_emit_0" transform="translate(0, 0)"><foreignObject width="0" height="0"><div xmlns="http://www.w3.org/1999/xhtml" class="labelBkg" style="display: table-cell; white-space: nowrap; line-height: 1.5; max-width: 200px; text-align: center;"><span class="edgeLabel"></span></div></foreignObject></g></g></g><g class="nodes"><g class="node default" id="my-svg-flowchart-cluster-2" data-look="neo" transform="translate(150, 110.78125)"><rect class="basic label-container" style="" x="-102.5" y="-54.78125" width="205" height="109.5625"/><g class="label" style="" transform="translate(-86.5, -42.78125)"><rect/><foreignObject width="173" height="85.5625"><div xmlns="http://www.w3.org/1999/xhtml" style="display: table-cell; white-space: nowrap; line-height: 1.5; max-width: 200px; text-align: center;"><span class="nodeLabel"><p></p><div style="text-align:center;line-height:1.7;padding:2px 4px">CLUSTER<br />EDITS<br /><small style="color:&amp;6e7681;letter-spacing:1px">file-set · semantic · time</small></div><p></p></span></div></foreignObject></g></g><g class="node default" id="my-svg-flowchart-detect-3" data-look="neo" transform="translate(430.171875, 110.78125)"><rect class="basic label-container" style="" x="-98.671875" y="-54.78125" width="197.34375" height="109.5625"/><g class="label" style="" transform="translate(-82.671875, -42.78125)"><rect/><foreignObject width="165.34375" height="85.5625"><div xmlns="http://www.w3.org/1999/xhtml" style="display: table-cell; white-space: nowrap; line-height: 1.5; max-width: 200px; text-align: center;"><span class="nodeLabel"><p></p><div style="text-align:center;line-height:1.7;padding:2px 4px">DETECT<br />BOUNDARY<br /><small style="color:&amp;6e7681;letter-spacing:1px">edit distance threshold</small></div><p></p></span></div></foreignObject></g></g><g class="node default" id="my-svg-flowchart-emit-4" data-look="neo" transform="translate(713.4609375, 110.78125)"><rect class="basic label-container" style="" x="-105.6171875" y="-54.78125" width="211.234375" height="109.5625"/><g class="label" style="" transform="translate(-89.6171875, -42.78125)"><rect/><foreignObject width="179.234375" height="85.5625"><div xmlns="http://www.w3.org/1999/xhtml" style="display: table-cell; white-space: nowrap; line-height: 1.5; max-width: 200px; text-align: center;"><span class="nodeLabel"><p></p><div style="text-align:center;line-height:1.7;padding:2px 4px">EMIT<br />EVENT<br /><small style="color:#6e7681letter-spacing:1px">sylph.task.boundary.detected</small></div><p></p></span></div></foreignObject></g></g></g></g><g class="node default titleBlock" id="my-svg-flowchart-TitleBlock-0" data-look="neo" transform="translate(504, 83.1953125)"><rect class="basic label-container" style="fill:#0d1117 !important;stroke:#1e3a5f !important;stroke-width:1px !important" x="-496" y="-51.3984375" width="992" height="102.796875"/><g class="label" style="color:#e6edf3 !important" transform="translate(-480, -39.3984375)"><rect/><foreignObject width="960" height="78.796875"><div style="color: rgb(230, 237, 243) !important; display: table; white-space: break-spaces; line-height: 1.5; max-width: 200px; text-align: center; width: 200px;" xmlns="http://www.w3.org/1999/xhtml"><span style="color:#e6edf3 !important" class="nodeLabel"><p></p><div style="font-family:ui-monospace,SFMono-Regular,Consolas,monospace;text-align:center;min-width:940px;padding:6px 10px;line-height:1.8"><div style="color:&amp;58a6ff;font-size:15px;letter-spacing:6px;border-bottom:1px solid &amp;1e3a5f;padding-bottom:10px;margin-bottom:10px">SYLPH  ·  GIT WORKFLOW LAYER  ·  ARCHITECTURE</div><div style="display:flex;gap:40px;justify-content:center;font-size:11px;color:&amp;8b949e;letter-spacing:2px"><span>DWG  <b style="color:#e6edf3">SLP-001</b></span><span>REV  <b style="color:#e6edf3">A.1</b></span><span>SCALE  <b style="color:#e6edf3">1:1</b></span><span>ENGINES  <b style="color:#e6edf3">W1 · W2 · W3 · W4 · W5</b></span><span>SHEET  <b style="color:#e6edf3">01 / 01</b></span></div></div><p></p></span></div></foreignObject></g></g><g class="node default session" id="my-svg-flowchart-Session-1" data-look="neo" transform="translate(1230.6981048583984, 83.1953125)"><g class="basic label-container outer-path"><path d="M-127.533203125 -59.1953125 C-72.18778560814187 -59.1953125, -16.842368091283745 -59.1953125, 127.533203125 -59.1953125 C127.533203125 -59.1953125, 127.533203125 -59.1953125, 127.533203125 -59.1953125 C128.85991760064644 -59.15276734905909, 130.18663207629288 -59.11022219811818, 131.32585981870204 -59.0736893817914 C132.22947081313995 -58.98651911590919, 133.13308180757787 -58.89934885002698, 135.10293167252735 -58.70931980264638 C136.1004911467817 -58.54804212303819, 137.0980506210361 -58.38676444343001, 138.84889788804918 -58.10370103532268 C139.78490491747993 -57.8900635388718, 140.72091194691066 -57.67642604242092, 142.54836548658074 -57.25932169724005 C143.8731407967814 -56.86613533906, 145.19791610698206 -56.47294898087995, 146.18613256222636 -56.17965152421747 C147.02421232138488 -55.871230425722764, 147.86229208054343 -55.56280932722805, 149.74725074977357 -54.86912711258443 C150.51042183990145 -54.53129390965085, 151.27359293002934 -54.193460706717275, 153.2170866507323 -53.33313368825492 C154.0003483387787 -52.92450656730418, 154.78361002682507 -52.51587944635344, 156.58138196510808 -51.57798297767908 C157.81095096699045 -50.83261102298849, 159.04051996887281 -50.0872390682979, 159.82631208181505 -49.61088727160529 C160.70917846142368 -48.995037903859924, 161.59204484103228 -48.37918853611455, 162.93854288696832 -47.43992978823053 C164.00834077589184 -46.586794440331445, 165.07813866481536 -45.73365909243237, 165.90528555661805 -45.074031457522906 C166.6394315602985 -44.40729948141916, 167.37357756397896 -43.740567505315404, 168.71434910877045 -42.52291426320689 C169.74825520515338 -41.45532133342234, 170.78216130153635 -40.38772840363779, 171.35419049874739 -39.797061293046866 C172.1909629464688 -38.814140762252165, 173.02773539419024 -37.831220231457465, 173.8139620520333 -36.90767366159081 C174.27761523157838 -36.28642064067401, 174.74126841112349 -35.6651676197572, 176.08355603969636 -33.86662448238813 C176.85897787980787 -32.675368306057855, 177.63439971991937 -31.484112129727585, 178.1536462132149 -30.686410078819133 C178.73035428636814 -29.662406496910677, 179.30706235952138 -28.63840291500222, 180.01572612803298 -27.380098634021945 C180.3716876067305 -26.64093700715104, 180.727649085428 -25.90177538028014, 181.6621440983657 -23.961276490924842 C181.98997942055973 -23.15151690684083, 182.31781474275377 -22.341757322756816, 183.08613463961746 -20.44399232304884 C183.4390860353116 -19.38095895438612, 183.79203743100572 -18.317925585723405, 184.2818462692092 -16.842699405494805 C184.62837698828537 -15.52122758629369, 184.97490770736155 -14.199755767092578, 185.2443655515756 -13.172196223335899 C185.4911319395776 -11.905102975040315, 185.73789832757956 -10.638009726744729, 185.9697372885257 -9.447565661468103 C186.06811825347603 -8.684542324832215, 186.16649921842637 -7.921518988196329, 186.4549807720006 -5.684113025800829 C186.53756842322034 -4.397743694501014, 186.62015607444008 -3.1113743632011994, 186.69810203244228 -1.8973031504721187 C186.69810203244228 -0.9133792546554235, 186.69810203244228 0.07054464116127179, 186.69810203244228 1.8973031504721043 C186.6420389976151 2.770530171172828, 186.5859759627879 3.6437571918735516, 186.4549807720006 5.684113025800788 C186.32470608500753 6.6944977724723405, 186.19443139801444 7.704882519143894, 185.9697372885257 9.447565661468062 C185.7028187186416 10.818136104563195, 185.4359001487575 12.18870654765833, 185.2443655515756 13.172196223335884 C185.03859439745085 13.956890815795928, 184.8328232433261 14.741585408255972, 184.2818462692092 16.842699405494766 C183.92748172584166 17.909988949795288, 183.5731171824741 18.97727849409581, 183.08613463961746 20.4439923230488 C182.62008474717152 21.595144567852, 182.15403485472555 22.746296812655196, 181.66214409836573 23.961276490924824 C181.03910886001935 25.255022494169587, 180.41607362167298 26.548768497414347, 180.01572612803298 27.38009863402193 C179.4062981621965 28.462199698637875, 178.79687019636003 29.544300763253823, 178.1536462132149 30.686410078819122 C177.72885433946536 31.33900446948817, 177.30406246571584 31.991598860157218, 176.08355603969636 33.866624482388104 C175.30419386413126 34.910898796290496, 174.5248316885662 35.95517311019289, 173.8139620520333 36.907673661590806 C173.2896441967848 37.52356724889683, 172.7653263415363 38.13946083620286, 171.3541904987474 39.79706129304683 C170.73491790301938 40.43651109136169, 170.11564530729135 41.075960889676544, 168.71434910877045 42.52291426320688 C168.00032184402446 43.17137493292302, 167.28629457927846 43.819835602639166, 165.9052855566181 45.07403145752287 C164.84744655310382 45.917629912547405, 163.7896075495895 46.761228367571945, 162.93854288696832 47.43992978823052 C162.181390362558 47.968086612654645, 161.42423783814766 48.496243437078775, 159.82631208181508 49.61088727160527 C158.61361790519143 50.346029608056554, 157.40092372856776 51.08117194450784, 156.5813819651081 51.57798297767908 C155.74683039691814 52.01336799624799, 154.91227882872815 52.44875301481691, 153.21708665073234 53.33313368825491 C152.24943499941588 53.76148436992634, 151.28178334809942 54.189835051597775, 149.7472507497736 54.86912711258442 C148.9814799997999 55.15093782728196, 148.2157092498262 55.43274854197949, 146.1861325622264 56.179651524217455 C145.3547889059277 56.426389957595006, 144.523445249629 56.673128390972565, 142.54836548658082 57.25932169724003 C141.51726490879776 57.49466367555893, 140.4861643310147 57.730005653877825, 138.8488978880492 58.10370103532267 C137.53055207957888 58.31684096171171, 136.21220627110856 58.52998088810076, 135.1029316725274 58.70931980264637 C133.91369823165212 58.824043722425145, 132.7244647907768 58.93876764220391, 131.32585981870204 59.0736893817914 C130.3083564749339 59.106318733575925, 129.2908531311658 59.13894808536046, 127.53320312500001 59.1953125 C127.53320312500001 59.1953125, 127.53320312500001 59.1953125, 127.533203125 59.1953125 C45.86565895908055 59.1953125, -35.801885206838904 59.1953125, -127.53320312499999 59.1953125 C-128.79811190015116 59.154749337576476, -130.06302067530234 59.114186175152945, -131.325859818702 59.0736893817914 C-132.53008080078757 58.957519631937224, -133.7343017828731 58.84134988208306, -135.10293167252738 58.70931980264637 C-136.12697583643572 58.54376028380677, -137.15102000034406 58.37820076496717, -138.8488978880492 58.10370103532267 C-139.90975993941638 57.861566194869965, -140.97062199078354 57.61943135441726, -142.54836548658074 57.25932169724005 C-143.84127509721546 56.8755929114247, -145.13418470785018 56.491864125609354, -146.18613256222633 56.17965152421748 C-147.33708095829783 55.756091875212825, -148.48802935436933 55.332532226208166, -149.74725074977357 54.86912711258443 C-150.84702972202314 54.38228758535364, -151.9468086942727 53.89544805812284, -153.2170866507323 53.333133688254925 C-153.95409201832953 52.94863846005392, -154.69109738592678 52.56414323185292, -156.58138196510808 51.577982977679085 C-157.84056590547974 50.814658273239594, -159.0997498458514 50.051333568800096, -159.82631208181502 49.61088727160531 C-160.6417774973064 49.042053898687406, -161.4572429127978 48.4732205257695, -162.9385428869683 47.43992978823053 C-163.70155490299405 46.83144801005247, -164.46456691901983 46.22296623187441, -165.90528555661805 45.07403145752291 C-166.85408877966418 44.21235347431006, -167.80289200271028 43.35067549109721, -168.71434910877042 42.522914263206914 C-169.57146397924444 41.63787278900292, -170.42857884971843 40.752831314798925, -171.35419049874739 39.79706129304685 C-171.9053843124178 39.149597675693094, -172.4565781260882 38.50213405833934, -173.81396205203328 36.90767366159082 C-174.61061813833996 35.84022708280237, -175.40727422464667 34.772780504013916, -176.08355603969636 33.86662448238814 C-176.5258156253961 33.18719499542615, -176.96807521109582 32.50776550846416, -178.15364621321487 30.68641007881916 C-178.73737424110496 29.649941856427937, -179.32110226899505 28.613473634036712, -180.01572612803298 27.38009863402195 C-180.47360848471305 26.429296123262834, -180.9314908413931 25.47849361250372, -181.6621440983657 23.96127649092485 C-182.17824295366304 22.686502340247888, -182.69434180896036 21.411728189570923, -183.08613463961746 20.443992323048846 C-183.46440174795188 19.304712061424656, -183.84266885628628 18.165431799800466, -184.2818462692092 16.842699405494788 C-184.62907808513668 15.518554000142286, -184.97630990106416 14.194408594789785, -185.24436555157558 13.172196223335906 C-185.51475018389186 11.783828282204091, -185.78513481620817 10.395460341072274, -185.9697372885257 9.44756566146811 C-186.0703107032368 8.667538117435782, -186.17088411794794 7.887510573403455, -186.45498077200057 5.684113025800863 C-186.52952089436275 4.523090452306036, -186.60406101672493 3.3620678788112093, -186.69810203244228 1.897303150472126 C-186.69810203244228 0.41807886597082633, -186.69810203244228 -1.0611454185304734, -186.69810203244228 -1.8973031504720974 C-186.60297367559735 -3.379004094559257, -186.50784531875246 -4.860705038646417, -186.4549807720006 -5.684113025800781 C-186.27052086742 -7.114747619999676, -186.0860609628394 -8.545382214198572, -185.9697372885257 -9.447565661468081 C-185.69003452492785 -10.883780237342918, -185.41033176133004 -12.319994813217757, -185.2443655515756 -13.17219622333588 C-184.96045845485204 -14.254857029256954, -184.67655135812845 -15.337517835178026, -184.2818462692092 -16.84269940549476 C-184.00600605565677 -17.67348617954506, -183.73016584210436 -18.504272953595354, -183.08613463961746 -20.44399232304877 C-182.75915655436003 -21.25163451532581, -182.43217846910264 -22.059276707602848, -181.66214409836573 -23.96127649092482 C-181.32214981622394 -24.66728189250451, -180.98215553408212 -25.373287294084196, -180.01572612803298 -27.380098634021923 C-179.63874149993677 -28.049473015039794, -179.26175687184053 -28.71884739605766, -178.1536462132149 -30.68641007881914 C-177.56856070171577 -31.585258541940146, -176.98347519021667 -32.48410700506115, -176.08355603969636 -33.86662448238812 C-175.36282966039644 -34.83233217112611, -174.64210328109652 -35.7980398598641, -173.8139620520333 -36.907673661590806 C-173.2032996814995 -37.62499242969306, -172.5926373109657 -38.34231119779531, -171.3541904987474 -39.79706129304683 C-170.3015945633566 -40.88395301607133, -169.2489986279658 -41.970844739095824, -168.71434910877048 -42.52291426320686 C-167.96264253053934 -43.20559428849019, -167.21093595230823 -43.88827431377353, -165.9052855566181 -45.074031457522864 C-164.97991885649427 -45.81198677582957, -164.0545521563704 -46.54994209413626, -162.93854288696832 -47.439929788230515 C-161.92141679807858 -48.149432917161256, -160.90429070918887 -48.858936046092, -159.8263120818151 -49.610887271605264 C-158.97836274827674 -50.12491914069962, -158.13041341473837 -50.63895100979397, -156.5813819651081 -51.57798297767907 C-155.8274461915004 -51.971310787851294, -155.07351041789272 -52.36463859802352, -153.21708665073234 -53.33313368825491 C-151.85329168660692 -53.936845263333005, -150.48949672248153 -54.5405568384111, -149.7472507497736 -54.869127112584415 C-148.64531698954826 -55.27464892251137, -147.5433832293229 -55.68017073243831, -146.18613256222642 -56.179651524217455 C-144.86787925835375 -56.57090218515407, -143.54962595448106 -56.96215284609068, -142.54836548658082 -57.259321697240026 C-141.41024291259043 -57.51909074780945, -140.27212033860008 -57.778859798378875, -138.84889788804924 -58.103701035322665 C-137.53391389232664 -58.3162974498979, -136.218929896604 -58.52889386447315, -135.1029316725274 -58.70931980264637 C-134.1407061577358 -58.802144540812826, -133.17848064294415 -58.89496927897928, -131.32585981870204 -59.0736893817914 C-129.82865148665644 -59.121701938860866, -128.33144315461084 -59.16971449593034, -127.53320312500001 -59.1953125 C-127.53320312500001 -59.1953125, -127.533203125 -59.1953125, -127.533203125 -59.1953125" stroke="none" stroke-width="0" fill="#161b22" style="fill:#161b22 !important;stroke:#30363d !important;stroke-width:1px !important"/><path d="M-127.533203125 -59.1953125 C-45.814389034053946 -59.1953125, 35.90442505689211 -59.1953125, 127.533203125 -59.1953125 M-127.533203125 -59.1953125 C-34.92293512242608 -59.1953125, 57.687332880147835 -59.1953125, 127.533203125 -59.1953125 M127.533203125 -59.1953125 C127.533203125 -59.1953125, 127.533203125 -59.1953125, 127.533203125 -59.1953125 M127.533203125 -59.1953125 C127.533203125 -59.1953125, 127.533203125 -59.1953125, 127.533203125 -59.1953125 M127.533203125 -59.1953125 C128.96601388370925 -59.14936504776515, 130.3988246424185 -59.1034175955303, 131.32585981870204 -59.0736893817914 M127.533203125 -59.1953125 C128.65586901597757 -59.159310790012945, 129.77853490695512 -59.123309080025884, 131.32585981870204 -59.0736893817914 M131.32585981870204 -59.0736893817914 C132.51964126938148 -58.9585267209766, 133.71342272006092 -58.843364060161804, 135.10293167252735 -58.70931980264638 M131.32585981870204 -59.0736893817914 C132.81224907564982 -58.93029919781827, 134.29863833259756 -58.78690901384514, 135.10293167252735 -58.70931980264638 M135.10293167252735 -58.70931980264638 C136.07667590396045 -58.55189238680757, 137.05042013539352 -58.39446497096876, 138.84889788804918 -58.10370103532268 M135.10293167252735 -58.70931980264638 C135.9390316572931 -58.57414564116167, 136.77513164205885 -58.438971479676965, 138.84889788804918 -58.10370103532268 M138.84889788804918 -58.10370103532268 C139.80076517026535 -57.886443539671355, 140.7526324524815 -57.66918604402002, 142.54836548658074 -57.25932169724005 M138.84889788804918 -58.10370103532268 C140.21645945778255 -57.79156403120429, 141.58402102751592 -57.47942702708589, 142.54836548658074 -57.25932169724005 M142.54836548658074 -57.25932169724005 C143.75729981379018 -56.900516334750066, 144.96623414099963 -56.54171097226008, 146.18613256222636 -56.17965152421747 M142.54836548658074 -57.25932169724005 C143.68123220166382 -56.92309280274212, 144.81409891674693 -56.58686390824419, 146.18613256222636 -56.17965152421747 M146.18613256222636 -56.17965152421747 C146.91519336545304 -55.91135040926587, 147.64425416867968 -55.643049294314274, 149.74725074977357 -54.86912711258443 M146.18613256222636 -56.17965152421747 C147.33810468498933 -55.755715134327126, 148.49007680775233 -55.331778744436775, 149.74725074977357 -54.86912711258443 M149.74725074977357 -54.86912711258443 C150.55233307816877 -54.51274104772261, 151.357415406564 -54.1563549828608, 153.2170866507323 -53.33313368825492 M149.74725074977357 -54.86912711258443 C150.8812172447831 -54.367153783164625, 152.01518373979263 -53.86518045374483, 153.2170866507323 -53.33313368825492 M153.2170866507323 -53.33313368825492 C154.4062922557641 -52.712725885832384, 155.5954978607959 -52.09231808340984, 156.58138196510808 -51.57798297767908 M153.2170866507323 -53.33313368825492 C154.4861629778918 -52.671057381257995, 155.75523930505128 -52.00898107426107, 156.58138196510808 -51.57798297767908 M156.58138196510808 -51.57798297767908 C157.46943906114245 -51.03963754726027, 158.35749615717683 -50.50129211684146, 159.82631208181505 -49.61088727160529 M156.58138196510808 -51.57798297767908 C157.45916417214085 -51.045866245354986, 158.33694637917364 -50.513749513030895, 159.82631208181505 -49.61088727160529 M159.82631208181505 -49.61088727160529 C161.03700374139768 -48.766361179877684, 162.24769540098035 -47.92183508815008, 162.93854288696832 -47.43992978823053 M159.82631208181505 -49.61088727160529 C160.7413625511498 -48.97258767609376, 161.65641302048456 -48.33428808058222, 162.93854288696832 -47.43992978823053 M162.93854288696832 -47.43992978823053 C163.99379852571613 -46.59839149786103, 165.04905416446397 -45.75685320749153, 165.90528555661805 -45.074031457522906 M162.93854288696832 -47.43992978823053 C163.57152419791421 -46.93514403709127, 164.2045055088601 -46.43035828595201, 165.90528555661805 -45.074031457522906 M165.90528555661805 -45.074031457522906 C166.54440322183552 -44.49360170409919, 167.18352088705296 -43.913171950675476, 168.71434910877045 -42.52291426320689 M165.90528555661805 -45.074031457522906 C166.73810762508936 -44.3176844902017, 167.5709296935607 -43.56133752288049, 168.71434910877045 -42.52291426320689 M168.71434910877045 -42.52291426320689 C169.48428703095388 -41.72789014547349, 170.2542249531373 -40.93286602774008, 171.35419049874739 -39.797061293046866 M168.71434910877045 -42.52291426320689 C169.44451421089357 -41.768958847595, 170.1746793130167 -41.01500343198311, 171.35419049874739 -39.797061293046866 M171.35419049874739 -39.797061293046866 C172.07638321808292 -38.94873263098547, 172.79857593741846 -38.10040396892406, 173.8139620520333 -36.90767366159081 M171.35419049874739 -39.797061293046866 C172.13401353145304 -38.88103678564322, 172.91383656415866 -37.96501227823958, 173.8139620520333 -36.90767366159081 M173.8139620520333 -36.90767366159081 C174.4420080298434 -36.06614926749091, 175.0700540076535 -35.224624873391, 176.08355603969636 -33.86662448238813 M173.8139620520333 -36.90767366159081 C174.30610905240667 -36.24824151660461, 174.79825605278 -35.5888093716184, 176.08355603969636 -33.86662448238813 M176.08355603969636 -33.86662448238813 C176.52433214934828 -33.18947401300469, 176.96510825900017 -32.51232354362126, 178.1536462132149 -30.686410078819133 M176.08355603969636 -33.86662448238813 C176.50482434475762 -33.219443239434945, 176.92609264981888 -32.57226199648175, 178.1536462132149 -30.686410078819133 M178.1536462132149 -30.686410078819133 C178.72772225168296 -29.667079941016606, 179.30179829015105 -28.64774980321408, 180.01572612803298 -27.380098634021945 M178.1536462132149 -30.686410078819133 C178.78013153631608 -29.57402194913499, 179.40661685941726 -28.46163381945085, 180.01572612803298 -27.380098634021945 M180.01572612803298 -27.380098634021945 C180.67088760833536 -26.01964180196402, 181.32604908863777 -24.659184969906097, 181.6621440983657 -23.961276490924842 M180.01572612803298 -27.380098634021945 C180.39748560029383 -26.587366921528098, 180.77924507255472 -25.79463520903425, 181.6621440983657 -23.961276490924842 M181.6621440983657 -23.961276490924842 C181.95893484736533 -23.228197602836996, 182.25572559636495 -22.495118714749154, 183.08613463961746 -20.44399232304884 M181.6621440983657 -23.961276490924842 C182.13705042546582 -22.788248681298363, 182.61195675256593 -21.61522087167188, 183.08613463961746 -20.44399232304884 M183.08613463961746 -20.44399232304884 C183.50243553327192 -19.19016035990138, 183.91873642692642 -17.93632839675392, 184.2818462692092 -16.842699405494805 M183.08613463961746 -20.44399232304884 C183.51313678956092 -19.15792988097258, 183.94013893950438 -17.871867438896324, 184.2818462692092 -16.842699405494805 M184.2818462692092 -16.842699405494805 C184.6345264245981 -15.497777120450692, 184.987206579987 -14.152854835406579, 185.2443655515756 -13.172196223335899 M184.2818462692092 -16.842699405494805 C184.5691827670904 -15.746960806647804, 184.85651926497164 -14.651222207800803, 185.2443655515756 -13.172196223335899 M185.2443655515756 -13.172196223335899 C185.48181909759293 -11.952922450361608, 185.71927264361028 -10.73364867738732, 185.9697372885257 -9.447565661468103 M185.2443655515756 -13.172196223335899 C185.5177973545956 -11.768181704660334, 185.79122915761556 -10.364167185984769, 185.9697372885257 -9.447565661468103 M185.9697372885257 -9.447565661468103 C186.07153072701425 -8.658075853938934, 186.1733241655028 -7.8685860464097654, 186.4549807720006 -5.684113025800829 M185.9697372885257 -9.447565661468103 C186.16313650855668 -7.947599501903591, 186.35653572858763 -6.44763334233908, 186.4549807720006 -5.684113025800829 M186.4549807720006 -5.684113025800829 C186.51927456847727 -4.6826852486581565, 186.58356836495395 -3.681257471515485, 186.69810203244228 -1.8973031504721187 M186.4549807720006 -5.684113025800829 C186.51047009626416 -4.819822010219262, 186.56595942052775 -3.955530994637695, 186.69810203244228 -1.8973031504721187 M186.69810203244228 -1.8973031504721187 C186.69810203244228 -0.6990530996134179, 186.69810203244228 0.49919695124528296, 186.69810203244228 1.8973031504721043 M186.69810203244228 -1.8973031504721187 C186.69810203244228 -0.9036452246444302, 186.69810203244228 0.09001270118325833, 186.69810203244228 1.8973031504721043 M186.69810203244228 1.8973031504721043 C186.6060582812551 3.3309588715915837, 186.51401453006787 4.764614592711062, 186.4549807720006 5.684113025800788 M186.69810203244228 1.8973031504721043 C186.61882005164637 3.132183996631727, 186.53953807085043 4.36706484279135, 186.4549807720006 5.684113025800788 M186.4549807720006 5.684113025800788 C186.29510859824728 6.924050035099953, 186.13523642449397 8.16398704439912, 185.9697372885257 9.447565661468062 M186.4549807720006 5.684113025800788 C186.35489203253877 6.460381524309566, 186.25480329307695 7.2366500228183455, 185.9697372885257 9.447565661468062 M185.9697372885257 9.447565661468062 C185.7824243461468 10.409378031979298, 185.5951114037679 11.371190402490534, 185.2443655515756 13.172196223335884 M185.9697372885257 9.447565661468062 C185.80498255727153 10.293546385533453, 185.64022782601737 11.139527109598847, 185.2443655515756 13.172196223335884 M185.2443655515756 13.172196223335884 C184.93985910001194 14.333411297079131, 184.63535264844825 15.49462637082238, 184.2818462692092 16.842699405494766 M185.2443655515756 13.172196223335884 C184.90134896916533 14.480267116393552, 184.55833238675504 15.788338009451218, 184.2818462692092 16.842699405494766 M184.2818462692092 16.842699405494766 C183.85617125501332 18.124764726149696, 183.43049624081743 19.40683004680463, 183.08613463961746 20.4439923230488 M184.2818462692092 16.842699405494766 C183.91895160380153 17.935680318289826, 183.55605693839382 19.028661231084882, 183.08613463961746 20.4439923230488 M183.08613463961746 20.4439923230488 C182.75656896403117 21.25802591346579, 182.4270032884449 22.07205950388278, 181.66214409836573 23.961276490924824 M183.08613463961746 20.4439923230488 C182.70106007589607 21.39513394035089, 182.31598551217465 22.346275557652977, 181.66214409836573 23.961276490924824 M181.66214409836573 23.961276490924824 C181.0249208815303 25.284484135076205, 180.38769766469488 26.607691779227586, 180.01572612803298 27.38009863402193 M181.66214409836573 23.961276490924824 C181.1040926357495 25.120082293435885, 180.5460411731333 26.278888095946947, 180.01572612803298 27.38009863402193 M180.01572612803298 27.38009863402193 C179.32238246028652 28.611200524765295, 178.62903879254006 29.842302415508662, 178.1536462132149 30.686410078819122 M180.01572612803298 27.38009863402193 C179.3462480196072 28.568824807541468, 178.67676991118145 29.757550981061, 178.1536462132149 30.686410078819122 M178.1536462132149 30.686410078819122 C177.71065838210905 31.366958346286168, 177.2676705510032 32.047506613753214, 176.08355603969636 33.866624482388104 M178.1536462132149 30.686410078819122 C177.46643527124579 31.742150627659903, 176.77922432927667 32.797891176500684, 176.08355603969636 33.866624482388104 M176.08355603969636 33.866624482388104 C175.50009608302128 34.648407670037194, 174.91663612634616 35.430190857686284, 173.8139620520333 36.907673661590806 M176.08355603969636 33.866624482388104 C175.31782589076334 34.89263312250671, 174.5520957418303 35.91864176262532, 173.8139620520333 36.907673661590806 M173.8139620520333 36.907673661590806 C173.2240317761053 37.600639331679474, 172.6341015001773 38.29360500176814, 171.3541904987474 39.79706129304683 M173.8139620520333 36.907673661590806 C173.2533095929482 37.56624794206084, 172.6926571338631 38.22482222253088, 171.3541904987474 39.79706129304683 M171.3541904987474 39.79706129304683 C170.37297468378426 40.810247181312896, 169.39175886882109 41.82343306957897, 168.71434910877045 42.52291426320688 M171.3541904987474 39.79706129304683 C170.35338204600916 40.83047818840117, 169.35257359327088 41.863895083755516, 168.71434910877045 42.52291426320688 M168.71434910877045 42.52291426320688 C167.84437399534102 43.31300264294335, 166.97439888191158 44.103091022679834, 165.9052855566181 45.07403145752287 M168.71434910877045 42.52291426320688 C167.85273612438013 43.30540837859985, 166.99112313998978 44.08790249399283, 165.9052855566181 45.07403145752287 M165.9052855566181 45.07403145752287 C164.7536355335174 45.99244170425149, 163.60198551041668 46.91085195098012, 162.93854288696832 47.43992978823052 M165.9052855566181 45.07403145752287 C164.7405755990054 46.00285665448535, 163.5758656413927 46.93168185144783, 162.93854288696832 47.43992978823052 M162.93854288696832 47.43992978823052 C161.7599905007314 48.262036914158884, 160.58143811449443 49.08414404008725, 159.82631208181508 49.61088727160527 M162.93854288696832 47.43992978823052 C162.19263212087907 47.960244848697755, 161.4467213547898 48.48055990916498, 159.82631208181508 49.61088727160527 M159.82631208181508 49.61088727160527 C158.59361934660933 50.35815285179359, 157.36092661140358 51.10541843198191, 156.5813819651081 51.57798297767908 M159.82631208181508 49.61088727160527 C158.84371363361214 50.206544225295325, 157.8611151854092 50.80220117898538, 156.5813819651081 51.57798297767908 M156.5813819651081 51.57798297767908 C155.66182876605282 52.057713292624285, 154.74227556699753 52.537443607569486, 153.21708665073234 53.33313368825491 M156.5813819651081 51.57798297767908 C155.63108258634617 52.07375355488338, 154.68078320758423 52.56952413208768, 153.21708665073234 53.33313368825491 M153.21708665073234 53.33313368825491 C152.34389006025523 53.71967191640258, 151.47069346977813 54.10621014455026, 149.7472507497736 54.86912711258442 M153.21708665073234 53.33313368825491 C152.1068210163392 53.82461534974088, 150.9965553819461 54.31609701122685, 149.7472507497736 54.86912711258442 M149.7472507497736 54.86912711258442 C148.83692258452626 55.20413629237675, 147.92659441927893 55.53914547216908, 146.1861325622264 56.179651524217455 M149.7472507497736 54.86912711258442 C148.43604719547923 55.35166214119754, 147.12484364118484 55.83419716981065, 146.1861325622264 56.179651524217455 M146.1861325622264 56.179651524217455 C145.14332716358692 56.489150692736416, 144.10052176494744 56.79864986125538, 142.54836548658082 57.25932169724003 M146.1861325622264 56.179651524217455 C145.21832483594193 56.46689177725227, 144.25051710965744 56.75413203028708, 142.54836548658082 57.25932169724003 M142.54836548658082 57.25932169724003 C141.33676600527292 57.53586137242305, 140.12516652396502 57.812401047606066, 138.8488978880492 58.10370103532267 M142.54836548658082 57.25932169724003 C141.29488923925055 57.54541947099622, 140.04141299192028 57.83151724475241, 138.8488978880492 58.10370103532267 M138.8488978880492 58.10370103532267 C137.48030247848158 58.32496492752565, 136.11170706891394 58.54622881972863, 135.1029316725274 58.70931980264637 M138.8488978880492 58.10370103532267 C137.49026443004914 58.3233543564523, 136.13163097204907 58.543007677581926, 135.1029316725274 58.70931980264637 M135.1029316725274 58.70931980264637 C133.81308263826497 58.83374998771124, 132.5232336040025 58.958180172776125, 131.32585981870204 59.0736893817914 M135.1029316725274 58.70931980264637 C133.7239796722082 58.842345643684745, 132.34502767188903 58.97537148472312, 131.32585981870204 59.0736893817914 M131.32585981870204 59.0736893817914 C129.8762155897766 59.120176650651715, 128.42657136085114 59.16666391951204, 127.53320312500001 59.1953125 M131.32585981870204 59.0736893817914 C130.3328959683496 59.10553179978531, 129.3399321179971 59.13737421777923, 127.53320312500001 59.1953125 M127.53320312500001 59.1953125 C127.53320312500001 59.1953125, 127.533203125 59.1953125, 127.533203125 59.1953125 M127.53320312500001 59.1953125 C127.53320312500001 59.1953125, 127.533203125 59.1953125, 127.533203125 59.1953125 M127.533203125 59.1953125 C58.04009883994702 59.1953125, -11.453005445105958 59.1953125, -127.53320312499999 59.1953125 M127.533203125 59.1953125 C71.5719047588943 59.1953125, 15.610606392788611 59.1953125, -127.53320312499999 59.1953125 M-127.53320312499999 59.1953125 C-128.76214202496521 59.15590282146257, -129.99108092493046 59.116493142925144, -131.325859818702 59.0736893817914 M-127.53320312499999 59.1953125 C-129.02693223777888 59.147411514720524, -130.52066135055776 59.09951052944104, -131.325859818702 59.0736893817914 M-131.325859818702 59.0736893817914 C-132.62621396536173 58.9482457811678, -133.92656811202144 58.82280218054421, -135.10293167252738 58.70931980264637 M-131.325859818702 59.0736893817914 C-132.12366196628057 58.99672636811196, -132.92146411385912 58.91976335443251, -135.10293167252738 58.70931980264637 M-135.10293167252738 58.70931980264637 C-136.5868367730412 58.46941353385122, -138.07074187355502 58.22950726505607, -138.8488978880492 58.10370103532267 M-135.10293167252738 58.70931980264637 C-135.92817200221916 58.57590134597614, -136.75341233191097 58.44248288930591, -138.8488978880492 58.10370103532267 M-138.8488978880492 58.10370103532267 C-140.24701168642625 57.784590684388284, -141.6451254848033 57.465480333453904, -142.54836548658074 57.25932169724005 M-138.8488978880492 58.10370103532267 C-139.76595497412177 57.89438873978336, -140.68301206019436 57.68507644424405, -142.54836548658074 57.25932169724005 M-142.54836548658074 57.25932169724005 C-143.45535867107137 56.990130880987614, -144.36235185556197 56.720940064735174, -146.18613256222633 56.17965152421748 M-142.54836548658074 57.25932169724005 C-143.5167358712771 56.97191445014205, -144.48510625597345 56.68450720304405, -146.18613256222633 56.17965152421748 M-146.18613256222633 56.17965152421748 C-146.9575872053572 55.895749084296774, -147.7290418484881 55.611846644376065, -149.74725074977357 54.86912711258443 M-146.18613256222633 56.17965152421748 C-147.07045667216556 55.854212077157385, -147.9547807821048 55.528772630097286, -149.74725074977357 54.86912711258443 M-149.74725074977357 54.86912711258443 C-150.66437175232804 54.4631448501815, -151.58149275488248 54.05716258777858, -153.2170866507323 53.333133688254925 M-149.74725074977357 54.86912711258443 C-150.65409478642414 54.46769415813179, -151.5609388230747 54.06626120367916, -153.2170866507323 53.333133688254925 M-153.2170866507323 53.333133688254925 C-154.3146947139411 52.760512264730416, -155.4123027771499 52.187890841205906, -156.58138196510808 51.577982977679085 M-153.2170866507323 53.333133688254925 C-154.43572478486098 52.69737095425498, -155.65436291898965 52.06160822025503, -156.58138196510808 51.577982977679085 M-156.58138196510808 51.577982977679085 C-157.4447160157853 51.05462480264451, -158.30805006646256 50.53126662760994, -159.82631208181502 49.61088727160531 M-156.58138196510808 51.577982977679085 C-157.4763656313323 51.03543861970614, -158.37134929755652 50.4928942617332, -159.82631208181502 49.61088727160531 M-159.82631208181502 49.61088727160531 C-161.04853429889775 48.758317962115434, -162.27075651598045 47.90574865262556, -162.9385428869683 47.43992978823053 M-159.82631208181502 49.61088727160531 C-160.61513486765506 49.06063864379133, -161.4039576534951 48.51039001597734, -162.9385428869683 47.43992978823053 M-162.9385428869683 47.43992978823053 C-164.1010300024149 46.512877248743216, -165.26351711786145 45.5858247092559, -165.90528555661805 45.07403145752291 M-162.9385428869683 47.43992978823053 C-163.9557731699512 46.62871570718636, -164.97300345293408 45.81750162614219, -165.90528555661805 45.07403145752291 M-165.90528555661805 45.07403145752291 C-166.9951182024532 44.084274283967105, -168.08495084828837 43.094517110411296, -168.71434910877042 42.522914263206914 M-165.90528555661805 45.07403145752291 C-167.01758911568487 44.0638667951179, -168.12989267475166 43.0537021327129, -168.71434910877042 42.522914263206914 M-168.71434910877042 42.522914263206914 C-169.44793858663712 41.765422898493306, -170.18152806450382 41.0079315337797, -171.35419049874739 39.79706129304685 M-168.71434910877042 42.522914263206914 C-169.433565662357 41.78026412285155, -170.1527822159436 41.03761398249619, -171.35419049874739 39.79706129304685 M-171.35419049874739 39.79706129304685 C-171.8983778308832 39.15782788758374, -172.44256516301897 38.51859448212063, -173.81396205203328 36.90767366159082 M-171.35419049874739 39.79706129304685 C-172.11203924206526 38.906849036330556, -172.86988798538314 38.01663677961426, -173.81396205203328 36.90767366159082 M-173.81396205203328 36.90767366159082 C-174.34770963472997 36.19250052618237, -174.88145721742666 35.47732739077392, -176.08355603969636 33.86662448238814 M-173.81396205203328 36.90767366159082 C-174.56048101922974 35.907406254824565, -175.3069999864262 34.9071388480583, -176.08355603969636 33.86662448238814 M-176.08355603969636 33.86662448238814 C-176.7293704885563 32.87448006347788, -177.37518493741624 31.882335644567632, -178.15364621321487 30.68641007881916 M-176.08355603969636 33.86662448238814 C-176.8836033160905 32.63753702307218, -177.68365059248467 31.40844956375622, -178.15364621321487 30.68641007881916 M-178.15364621321487 30.68641007881916 C-178.659700547317 29.787859365062854, -179.16575488141913 28.889308651306546, -180.01572612803298 27.38009863402195 M-178.15364621321487 30.68641007881916 C-178.76862210254646 29.59445811424948, -179.38359799187805 28.502506149679803, -180.01572612803298 27.38009863402195 M-180.01572612803298 27.38009863402195 C-180.52104001731755 26.330803530937388, -181.02635390660208 25.281508427852824, -181.6621440983657 23.96127649092485 M-180.01572612803298 27.38009863402195 C-180.3831740817643 26.617085095972115, -180.75062203549564 25.854071557922282, -181.6621440983657 23.96127649092485 M-181.6621440983657 23.96127649092485 C-182.0326383641426 23.046148491436583, -182.4031326299195 22.13102049194832, -183.08613463961746 20.443992323048846 M-181.6621440983657 23.96127649092485 C-182.1055534344134 22.866046858150767, -182.54896277046106 21.770817225376685, -183.08613463961746 20.443992323048846 M-183.08613463961746 20.443992323048846 C-183.51117848318216 19.16382798777167, -183.93622232674687 17.88366365249449, -184.2818462692092 16.842699405494788 M-183.08613463961746 20.443992323048846 C-183.4780905784697 19.263483484923906, -183.87004651732195 18.082974646798966, -184.2818462692092 16.842699405494788 M-184.2818462692092 16.842699405494788 C-184.6428851121651 15.465901822079637, -185.00392395512097 14.089104238664486, -185.24436555157558 13.172196223335906 M-184.2818462692092 16.842699405494788 C-184.59448647233538 15.650466811853533, -184.90712667546154 14.45823421821228, -185.24436555157558 13.172196223335906 M-185.24436555157558 13.172196223335906 C-185.46761289918734 12.025868276693178, -185.6908602467991 10.87954033005045, -185.9697372885257 9.44756566146811 M-185.24436555157558 13.172196223335906 C-185.48356145738833 11.943975801060029, -185.7227573632011 10.715755378784152, -185.9697372885257 9.44756566146811 M-185.9697372885257 9.44756566146811 C-186.11708496566274 8.304766174683046, -186.2644326427998 7.161966687897983, -186.45498077200057 5.684113025800863 M-185.9697372885257 9.44756566146811 C-186.07014749809613 8.66880390427825, -186.1705577076666 7.890042147088391, -186.45498077200057 5.684113025800863 M-186.45498077200057 5.684113025800863 C-186.5404646209027 4.352633077829257, -186.62594846980485 3.0211531298576504, -186.69810203244228 1.897303150472126 M-186.45498077200057 5.684113025800863 C-186.51912462827897 4.685020688276056, -186.58326848455735 3.6859283507512504, -186.69810203244228 1.897303150472126 M-186.69810203244228 1.897303150472126 C-186.69810203244228 0.44980208101536734, -186.69810203244228 -0.9976989884413914, -186.69810203244228 -1.8973031504720974 M-186.69810203244228 1.897303150472126 C-186.69810203244228 1.0717572040959527, -186.69810203244228 0.24621125771977925, -186.69810203244228 -1.8973031504720974 M-186.69810203244228 -1.8973031504720974 C-186.6210906815582 -3.096817102935441, -186.5440793306741 -4.2963310553987855, -186.4549807720006 -5.684113025800781 M-186.69810203244228 -1.8973031504720974 C-186.6101430367888 -3.267335506998423, -186.52218404113532 -4.637367863524748, -186.4549807720006 -5.684113025800781 M-186.4549807720006 -5.684113025800781 C-186.26769889964388 -7.1366342448107005, -186.08041702728715 -8.58915546382062, -185.9697372885257 -9.447565661468081 M-186.4549807720006 -5.684113025800781 C-186.33695080185026 -6.599530166632956, -186.2189208316999 -7.514947307465132, -185.9697372885257 -9.447565661468081 M-185.9697372885257 -9.447565661468081 C-185.79195836953102 -10.360422836917966, -185.6141794505363 -11.27328001236785, -185.2443655515756 -13.17219622333588 M-185.9697372885257 -9.447565661468081 C-185.81100823993654 -10.262605778577143, -185.65227919134736 -11.077645895686207, -185.2443655515756 -13.17219622333588 M-185.2443655515756 -13.17219622333588 C-184.9044739729275 -14.468350122663157, -184.5645823942794 -15.764504021990433, -184.2818462692092 -16.84269940549476 M-185.2443655515756 -13.17219622333588 C-184.92071363100496 -14.406421268101465, -184.5970617104343 -15.64064631286705, -184.2818462692092 -16.84269940549476 M-184.2818462692092 -16.84269940549476 C-183.97761355632042 -17.758999863815696, -183.67338084343166 -18.675300322136636, -183.08613463961746 -20.44399232304877 M-184.2818462692092 -16.84269940549476 C-183.86640045365488 -18.093956009642753, -183.45095463810057 -19.345212613790746, -183.08613463961746 -20.44399232304877 M-183.08613463961746 -20.44399232304877 C-182.62708108137872 -21.577863487095247, -182.16802752313998 -22.71173465114172, -181.66214409836573 -23.96127649092482 M-183.08613463961746 -20.44399232304877 C-182.54461587928228 -21.78155413062966, -182.00309711894712 -23.119115938210548, -181.66214409836573 -23.96127649092482 M-181.66214409836573 -23.96127649092482 C-181.12910212085052 -25.068149562506363, -180.5960601433353 -26.17502263408791, -180.01572612803298 -27.380098634021923 M-181.66214409836573 -23.96127649092482 C-181.2669457396315 -24.781914338726722, -180.87174738089726 -25.602552186528623, -180.01572612803298 -27.380098634021923 M-180.01572612803298 -27.380098634021923 C-179.60924094334158 -28.101854240529832, -179.20275575865017 -28.82360984703774, -178.1536462132149 -30.68641007881914 M-180.01572612803298 -27.380098634021923 C-179.2720969859512 -28.700487476404067, -178.52846784386944 -30.020876318786215, -178.1536462132149 -30.68641007881914 M-178.1536462132149 -30.68641007881914 C-177.64288968394328 -31.47106926511231, -177.13213315467164 -32.25572845140548, -176.08355603969636 -33.86662448238812 M-178.1536462132149 -30.68641007881914 C-177.67586691924478 -31.420407376061583, -177.1980876252747 -32.15440467330403, -176.08355603969636 -33.86662448238812 M-176.08355603969636 -33.86662448238812 C-175.2123400466819 -35.03397454361776, -174.34112405366744 -36.2013246048474, -173.8139620520333 -36.907673661590806 M-176.08355603969636 -33.86662448238812 C-175.4137492699472 -34.764104533199955, -174.74394250019805 -35.6615845840118, -173.8139620520333 -36.907673661590806 M-173.8139620520333 -36.907673661590806 C-173.2255926171875 -37.59880587892997, -172.63722318234167 -38.28993809626914, -171.3541904987474 -39.79706129304683 M-173.8139620520333 -36.907673661590806 C-173.08870368449726 -37.759603408468834, -172.36344531696122 -38.61153315534687, -171.3541904987474 -39.79706129304683 M-171.3541904987474 -39.79706129304683 C-170.6059483143849 -40.56968278022692, -169.85770613002242 -41.34230426740701, -168.71434910877048 -42.52291426320686 M-171.3541904987474 -39.79706129304683 C-170.32903830384865 -40.85561510084029, -169.30388610894988 -41.914168908633755, -168.71434910877048 -42.52291426320686 M-168.71434910877048 -42.52291426320686 C-167.64678816317297 -43.49244486788372, -166.5792272175755 -44.46197547256059, -165.9052855566181 -45.074031457522864 M-168.71434910877048 -42.52291426320686 C-167.6263387108495 -43.51101651942105, -166.5383283129285 -44.499118775635246, -165.9052855566181 -45.074031457522864 M-165.9052855566181 -45.074031457522864 C-165.22996957992186 -45.61257797802525, -164.5546536032256 -46.15112449852764, -162.93854288696832 -47.439929788230515 M-165.9052855566181 -45.074031457522864 C-165.2004521463115 -45.63611734583761, -164.4956187360049 -46.19820323415236, -162.93854288696832 -47.439929788230515 M-162.93854288696832 -47.439929788230515 C-161.99761072375884 -48.09628333298859, -161.0566785605494 -48.75263687774666, -159.8263120818151 -49.610887271605264 M-162.93854288696832 -47.439929788230515 C-162.3045989322977 -47.88214164801725, -161.67065497762707 -48.324353507804, -159.8263120818151 -49.610887271605264 M-159.8263120818151 -49.610887271605264 C-158.68484279049758 -50.30285266402007, -157.5433734991801 -50.99481805643488, -156.5813819651081 -51.57798297767907 M-159.8263120818151 -49.610887271605264 C-159.07985090019432 -50.06339642659661, -158.3333897185735 -50.51590558158796, -156.5813819651081 -51.57798297767907 M-156.5813819651081 -51.57798297767907 C-155.55650184809517 -52.11266227825768, -154.5316217310822 -52.6473415788363, -153.21708665073234 -53.33313368825491 M-156.5813819651081 -51.57798297767907 C-155.84084513581533 -51.96432056718463, -155.10030830652258 -52.35065815669019, -153.21708665073234 -53.33313368825491 M-153.21708665073234 -53.33313368825491 C-152.22657698638236 -53.771602934237414, -151.23606732203237 -54.210072180219925, -149.7472507497736 -54.869127112584415 M-153.21708665073234 -53.33313368825491 C-152.15739562956423 -53.80222746870876, -151.09770460839616 -54.271321249162604, -149.7472507497736 -54.869127112584415 M-149.7472507497736 -54.869127112584415 C-148.9847076404918 -55.14975002567136, -148.22216453120996 -55.4303729387583, -146.18613256222642 -56.179651524217455 M-149.7472507497736 -54.869127112584415 C-148.8739696470199 -55.1905026309198, -148.00068854426618 -55.51187814925519, -146.18613256222642 -56.179651524217455 M-146.18613256222642 -56.179651524217455 C-144.7382325624735 -56.60938064396193, -143.29033256272058 -57.0391097637064, -142.54836548658082 -57.259321697240026 M-146.18613256222642 -56.179651524217455 C-144.93634612917742 -56.55058157728354, -143.68655969612843 -56.92151163034961, -142.54836548658082 -57.259321697240026 M-142.54836548658082 -57.259321697240026 C-141.72699126881216 -57.44679500247804, -140.90561705104346 -57.634268307716056, -138.84889788804924 -58.103701035322665 M-142.54836548658082 -57.259321697240026 C-141.31558611686611 -57.54069554374021, -140.0828067471514 -57.8220693902404, -138.84889788804924 -58.103701035322665 M-138.84889788804924 -58.103701035322665 C-137.43525334763763 -58.332248121639275, -136.021608807226 -58.560795207955884, -135.1029316725274 -58.70931980264637 M-138.84889788804924 -58.103701035322665 C-137.77107625902275 -58.2779548776721, -136.69325462999626 -58.45220872002153, -135.1029316725274 -58.70931980264637 M-135.1029316725274 -58.70931980264637 C-134.03740784016702 -58.81210960527428, -132.97188400780664 -58.91489940790219, -131.32585981870204 -59.0736893817914 M-135.1029316725274 -58.70931980264637 C-134.22741098493617 -58.79378023041062, -133.3518902973449 -58.87824065817486, -131.32585981870204 -59.0736893817914 M-131.32585981870204 -59.0736893817914 C-129.9228009127875 -59.11868275001559, -128.51974200687295 -59.16367611823978, -127.53320312500001 -59.1953125 M-131.32585981870204 -59.0736893817914 C-129.86813958959578 -59.120435632258534, -128.4104193604895 -59.16718188272567, -127.53320312500001 -59.1953125 M-127.53320312500001 -59.1953125 C-127.53320312500001 -59.1953125, -127.533203125 -59.1953125, -127.533203125 -59.1953125 M-127.53320312500001 -59.1953125 C-127.53320312500001 -59.1953125, -127.533203125 -59.1953125, -127.533203125 -59.1953125" stroke="#30363d" stroke-width="1" fill="none" stroke-dasharray="0 0" style="fill:#161b22 !important;stroke:#30363d !important;stroke-width:1px !important"/></g><g class="label" style="color:#e6edf3 !important" transform="translate(-151.9296875, -47.1953125)"><rect/><foreignObject width="303.859375" height="94.390625"><div style="color: rgb(230, 237, 243) !important; display: table; white-space: break-spaces; line-height: 1.5; max-width: 200px; text-align: center; width: 200px;" xmlns="http://www.w3.org/1999/xhtml"><span style="color:#e6edf3 !important" class="nodeLabel"><p></p><div style="text-align:center;line-height:1.8;padding:4px 12px"><b style="letter-spacing:1.5px">INPUT · CLAUDE CODE SESSION</b><br /><em style="color:&amp;8b949e;font-size:13pxfont-weight:400">SessionStart · PostToolUse(Edit|Write) · PreToolUse(Bash) · PreCompact</em></div><p></p></span></div></foreignObject></g></g><g class="node default peers" id="my-svg-flowchart-Peers-16" data-look="neo" transform="translate(1230.6981048583984, 1021.875)"><rect class="basic label-container" style="fill:#161b22 !important;stroke:#1e3a5f !important;stroke-width:1px !important" x="-496" y="-46.796875" width="992" height="93.59375"/><g class="label" style="color:#e6edf3 !important" transform="translate(-480, -34.796875)"><rect/><foreignObject width="960" height="69.59375"><div style="color: rgb(230, 237, 243) !important; display: table; white-space: break-spaces; line-height: 1.5; max-width: 200px; text-align: center; width: 200px;" xmlns="http://www.w3.org/1999/xhtml"><span style="color:#e6edf3 !important" class="nodeLabel"><p></p><div style="text-align:center;min-width:940px;line-height:1.8;padding:6px 10px"><b style="letter-spacing:1.5px;color:#79c0ff">PEER PLUGINS REACT</b><br /><em style="color:&amp;8b949e;font-size:13px;font-weight:400">Hydra blocks push on secret detection  ·  Pech attributes PR spend</em></div><p></p></span></div></foreignObject></g></g></g></g></g><defs><filter id="my-svg-drop-shadow" height="130%" width="130%"><feDropShadow dx="4" dy="4" stdDeviation="0" flood-opacity="0.06" flood-color="#FFFFFF"/></filter></defs><defs><filter id="my-svg-drop-shadow-small" height="150%" width="150%"><feDropShadow dx="2" dy="2" stdDeviation="0" flood-opacity="0.06" flood-color="#FFFFFF"/></filter></defs><linearGradient id="my-svg-gradient" gradientUnits="objectBoundingBox" x1="0%" y1="0%" x2="100%" y2="0%"><stop offset="0%" stop-color="#cccccc" stop-opacity="1"/><stop offset="100%" stop-color="hsl(180, 0%, 18.3529411765%)" stop-opacity="1"/></linearGradient><text text-anchor="middle" x="1210.57958984375" y="-25" class="flowchartTitleText">Sylph nine-subplugin architecture</text></svg>